<?xml version="1.0" standalone="no"?>
<!DOCTYPE svg PUBLIC "-//W3C//DTD SVG 1.1//EN" "http://www.w3.org/Graphics/SVG/1.1/DTD/svg11.dtd" >
<svg xmlns="http://www.w3.org/2000/svg" xmlns:xlink="http://www.w3.org/1999/xlink" version="1.1">
<metadata>
Created by FontForge 20150318 at Fri Jun 12 05:03:03 2015
 By uniteet7
Copyright (c) 2013 by Frank Hemmekam. All rights reserved.
</metadata>
<defs>
<font id="OdinRoundedRegular" horiz-adv-x="547" >
  <font-face 
    font-family="OdinRoundedRegular"
    font-weight="400"
    font-stretch="normal"
    units-per-em="1000"
    panose-1="2 15 0 0 0 0 0 0 0 0"
    ascent="750"
    descent="-250"
    x-height="466"
    cap-height="700"
    bbox="-7 -1088 3429 944"
    underline-thickness="50"
    underline-position="-50"
    unicode-range="U+000D-FB02"
  />
<missing-glyph horiz-adv-x="360" 
 />
    <glyph glyph-name="AE" unicode="AELIGA" horiz-adv-x="867" 
d="M785 100q20 0 35 -15t15 -36q0 -20 -15 -34.5t-35 -14.5h-210q-14 0 -26.5 9.5t-19.5 22.5l-47 118h-294l-47 -118q-6 -12 -19.5 -22t-26.5 -10q-23 0 -36.5 16t-13.5 34q0 10 3 18q57 145 120 300t120 300q7 13 20 22.5t27 9.5h243q21 0 36 -14.5t15 -34.5
q0 -21 -15 -36t-36 -15h-170l81 -201h176q21 0 35.5 -14.5t14.5 -34.5t-14.5 -34.5t-35.5 -14.5h-137l80 -201h177zM440 249l-105 268l-106 -268h211z" />
    <glyph glyph-name="OE" unicode="OELIGA" horiz-adv-x="652" 
d="M565 100q20 0 35 -15t15 -36q0 -20 -15 -34.5t-35 -14.5h-214q-63 0 -118 27.5t-96.5 75t-65.5 111.5t-24 136q0 65 22 128t62 112.5t96.5 79.5t126.5 30h211q20 0 35 -14.5t15 -34.5q0 -21 -15 -36t-35 -15h-164v-201h131q20 0 34.5 -14.5t14.5 -34.5t-14.5 -34.5
t-34.5 -14.5h-131v-201h164zM302 594q-34 -14 -62.5 -38t-49 -56t-32 -70t-11.5 -80t11.5 -80t32 -70t49 -56.5t62.5 -37.5v488z" />
    <glyph glyph-name="ampersand1" unicode="andsmall" horiz-adv-x="508" 
d="M460 265q12 -13 12 -32q0 -21 -15 -36t-36 -15q-23 0 -39 19l-34 43l-22 -23q-23 -20 -51 -29.5t-57 -9.5q-35 0 -66.5 13.5t-54.5 36.5t-36.5 54.5t-13.5 66.5q0 48 26 88.5t69 64.5q-12 33 -12 60q0 29 11 55t30.5 45.5t45.5 30.5t55 11t55 -11t45.5 -30.5t30.5 -45.5
t11 -55q0 -20 -14.5 -35t-35.5 -15t-36 15t-15 35q0 18 -11.5 29.5t-29.5 11.5q-17 0 -29.5 -11.5t-12.5 -29.5q0 -8 3 -14.5t6 -10.5l114 -143l31 34h-1q16 17 38 17q21 0 35.5 -15t14.5 -35q0 -19 -13 -34l-41 -46zM283 324l-79 99q-25 -7 -40.5 -26.5t-15.5 -43.5
q0 -29 20 -49.5t50 -20.5q13 0 23.5 4.5t18.5 10.5zM118 0q-22 0 -36.5 15t-14.5 35q0 21 14.5 36t36.5 15h273q20 0 35 -15t15 -36q0 -20 -15 -35t-35 -15h-273z" />
    <glyph glyph-name="b_a_r_o_n" unicode="Baron" horiz-adv-x="2987" 
d="M398 398q43 -29 66 -74.5t23 -105.5q0 -51 -19 -91t-48.5 -68.5t-65.5 -43.5t-71 -15h-212q-20 0 -35 15t-15 35v608q0 20 15 35t35 15h168q4 0 31 -3.5t59 -19.5q48 -23 72 -65t24 -99q0 -65 -30 -108zM122 434h101q7 0 23.5 2t34 10.5t31 26t13.5 48.5q0 30 -9 47
t-21.5 25.5t-25.5 11t-22 2.5h-125v-173zM336 117q17 10 27 22.5t15 26t6.5 27t1.5 25.5q0 16 -5.5 36t-18 38t-34 30t-52.5 12h-154v-233h154q1 0 20 2.5t40 13.5zM1178 69q3 -8 3 -19q0 -20 -13.5 -35t-36.5 -15q-13 0 -26.5 10.5t-19.5 21.5l-48 120h-297l-48 -120
q-7 -11 -20 -21.5t-27 -10.5q-22 0 -36 15.5t-14 34.5q0 11 3 19q58 147 121.5 303.5t121.5 303.5q7 13 20 22.5t28 9.5q14 0 26.5 -9.5t20.5 -22.5zM995 252l-106 271l-108 -271h214zM1739 77h-1q8 -14 8 -27q0 -20 -14 -35t-36 -15q-13 0 -24.5 6t-19.5 18l-140 224
q-30 -4 -44 -4.5t-15 -0.5h-72v-193q0 -20 -15 -35t-35 -15t-35 15t-15 35v608q0 20 15 35t35 15h122q1 0 13 -0.5t31.5 -3t44 -7.5t50.5 -15q75 -27 114.5 -80.5t39.5 -125.5q0 -64 -33.5 -115t-98.5 -84zM1453 344q16 0 34 3q15 2 34 6t39 12q27 11 43.5 25t26 29t13 30
t3.5 27t-3 27t-12 30t-26.5 29t-47.5 25q-20 8 -39 11.5t-33 5.5q-18 2 -32 3h-72v-263h72zM2118 182q-51 0 -96.5 21t-79 57t-53 84t-19.5 102t19.5 102t53 83.5t79 56t96.5 20.5t96 -20.5t79 -56t53.5 -83.5t19.5 -102t-19.5 -102t-53.5 -84t-79 -57t-96 -21zM2118 607
q-31 0 -57.5 -12.5t-46.5 -34.5t-31.5 -51.5t-11.5 -62.5q0 -34 11.5 -64t31.5 -52t46.5 -34.5t57.5 -12.5q30 0 56.5 12.5t47 34.5t32 52t11.5 64q0 33 -11.5 62.5t-32 51.5t-47 34.5t-56.5 12.5zM2285 101q21 0 36 -15t15 -36q0 -20 -15 -35t-36 -15h-335q-20 0 -35 15
t-15 35q0 21 15 36t35 15h335zM2978 0q-12 0 -23 5.5t-18 16.5l-334 477v-449q0 -20 -15 -35t-36 -15q-20 0 -35 15t-15 35v608q0 20 14 35t37 15q12 0 23 -5.5t18 -16.5l333 -477v449q0 20 15 35t36 15q20 0 35 -15t15 -35v-608q0 -20 -15 -35t-35 -15z" />
    <glyph glyph-name="n_e_w" unicode="newsmall" horiz-adv-x="1684" 
d="M1633 101q22 0 37 -15t15 -36q0 -20 -15 -35t-37 -15h-1548q-21 0 -35.5 15t-14.5 35q0 21 14.5 36t35.5 15h1548zM115 182q-20 0 -35 15t-15 35v426q0 16 9.5 29t25.5 18q9 3 16 3q26 0 40 -22l207 -294v266q0 20 15 35t35 15q21 0 36 -15t15 -35v-426q0 -17 -10 -30
t-26 -18q-8 -2 -15 -2q-12 0 -23 6.5t-19 15.5l-205 295v-267q0 -20 -15 -35t-36 -15zM631 193q-20 0 -35 15t-15 35v413q0 20 15 35t35 15h243q21 0 36 -15t15 -35t-15 -35t-36 -15h-193v-101h133q20 0 35 -15t15 -35t-15 -35t-35 -15h-133v-112h193q21 0 36 -15t15 -35
t-15 -35t-36 -15h-243zM1041 639q-2 5 -3 10t-1 9q0 14 9.5 27t21.5 19q5 2 10 3t10 1q14 0 27 -8.5t18 -22.5l132 -313l40 97l-74 178q-3 7 -3 18q0 15 8.5 28t23.5 19q10 4 19 4q14 0 26.5 -9t19.5 -22l36 -84l34 84q5 14 18.5 22.5t28.5 8.5q5 0 9.5 -1t10.5 -3
q14 -6 22 -19t8 -28q0 -11 -3 -18l-74 -178l40 -97l132 313q5 14 18 22.5t27 8.5q5 0 10 -1t10 -3q14 -5 22.5 -18t8.5 -28q0 -5 -1 -9.5t-3 -9.5l-177 -425q-5 -14 -18 -23t-29 -9q-13 0 -26.5 10t-20.5 22l-47 117l-49 -117q-7 -12 -20.5 -22t-26.5 -10q-16 0 -29 9
t-18 23z" />
    <glyph glyph-name="n_o_1" unicode="nosmall" horiz-adv-x="1192" 
d="M929 182q-51 0 -96 20.5t-79 56.5t-53.5 84t-19.5 102t19.5 102t53.5 84t79 56.5t96 20.5t96.5 -20.5t79 -56.5t53 -84t19.5 -102t-19.5 -102t-53 -84t-79 -56.5t-96.5 -20.5zM929 607q-30 0 -56.5 -12.5t-47 -34.5t-32 -51.5t-11.5 -63.5t11.5 -63.5t32 -51.5t47 -34.5
t56.5 -12.5q31 0 58 12.5t47 34.5t31.5 51.5t11.5 63.5t-11.5 63.5t-31.5 51.5t-47 34.5t-58 12.5zM980 50q0 -20 -15 -35t-36 -15q-20 0 -35 15t-15 35q0 21 15 36t35 15q21 0 36 -15t15 -36zM516 0q-28 0 -42 22l-333 477v-449q0 -20 -15 -35t-36 -15q-20 0 -35 15t-15 35
v608q0 16 9 29t26 18q5 2 8 2h7q11 0 22.5 -5t18.5 -16l334 -477v449q0 20 15 35t36 15q20 0 35 -15t15 -35v-608q0 -20 -15 -35t-35 -15z" />
    <glyph glyph-name="l_t_d" unicode="ltdsmall" horiz-adv-x="1241" 
d="M89 182q-20 0 -35 15t-15 35v419q0 21 15 36t35 15q21 0 36 -15t15 -36v-368h200q21 0 36 -15t15 -36q0 -20 -15 -35t-36 -15h-251zM424 607q-21 0 -35.5 15t-14.5 36q0 20 14.5 35t35.5 15h248q22 0 37 -15t15 -35q0 -21 -15 -36t-37 -15h-77v-375q0 -20 -15 -35
t-35 -15q-21 0 -36 15t-15 35v375h-70zM879 182q-20 0 -35 15t-15 35v426q0 20 15 35t35 15h125q2 0 12.5 -0.5t25.5 -4t34.5 -10.5t39.5 -19q19 -12 39 -30.5t36 -46t26.5 -65t10.5 -86.5q0 -50 -10.5 -88t-26.5 -65.5t-36 -45.5t-39 -30q-20 -13 -39.5 -20t-34.5 -10.5
t-25.5 -4t-12.5 -0.5h-125zM930 283h73q2 0 22 3.5t43 18.5q59 40 59 141q0 99 -59 139q-23 15 -43 18.5t-22 3.5h-73v-324zM1172 101q22 0 37 -15t15 -36q0 -20 -15 -35t-37 -15h-1083q-20 0 -35 15t-15 35q0 21 15 36t35 15h1083z" />
    <glyph glyph-name="w_i_t_h" unicode="withsmall" horiz-adv-x="1829" 
d="M261 182q-16 0 -28.5 9t-18.5 23l-178 425q-3 7 -3 18q0 14 9.5 27t21.5 20q5 2 10.5 3t9.5 1q15 0 28 -8.5t18 -22.5l131 -313l41 97l-74 178q-4 10 -4 19q0 14 9.5 27t21.5 19q5 2 10 3t10 1q14 0 27.5 -8.5t19.5 -22.5l34 -83l35 83q7 15 19.5 23t27.5 8q11 0 19 -3
q15 -6 23 -19.5t8 -28.5q0 -11 -3 -18l-75 -178l42 -97q14 34 30.5 74t33.5 81.5t34 82t32 75.5q8 15 20.5 23t26.5 8q5 0 9.5 -1t10.5 -3q14 -6 22 -19t8 -28q0 -11 -3 -18l-177 -425q-6 -14 -18.5 -23t-28.5 -9q-14 0 -27.5 10t-19.5 22l-49 117l-49 -117q-6 -12 -19 -22
t-27 -10zM841 182q-20 0 -35 15t-15 35v426q0 20 15 35t35 15q21 0 36 -15t15 -35v-426q0 -20 -15 -35t-36 -15zM1053 607q-20 0 -35 15t-15 36q0 20 15 35t35 15h249q21 0 36 -15t15 -35q0 -21 -15 -36t-36 -15h-77v-375q0 -20 -15 -35t-35 -15t-35 15t-15 35v375h-72z
M1783 708q21 0 36 -15t15 -35v-426q0 -20 -15 -35t-36 -15q-20 0 -35 15t-15 35v163h-174v-163q0 -20 -15 -35t-35 -15q-21 0 -36 15t-15 35v426q0 20 15 35t36 15q20 0 35 -15t15 -35v-162h174v162q0 20 15 35t35 15zM1783 101q21 0 36 -15t15 -36q0 -20 -15 -35t-36 -15
h-1640q-21 0 -36 15t-15 35q0 21 15 36t36 15h1640z" />
    <glyph glyph-name="f_i_v_e" unicode="fivestripe" horiz-adv-x="1101" 
d="M1078 620q3 -5 4 -11t1 -12q0 -14 -7 -26t-20 -18l-125 -64v-439q0 -20 -15 -35t-35 -15q-21 0 -36 15t-15 35v386l-111 -58v-328q0 -20 -15 -35t-36 -15q-20 0 -35 15t-15 35v277l-112 -58v-219q0 -20 -15 -35t-36 -15q-20 0 -35 15t-15 35v168l-112 -60v-108
q0 -20 -15 -35t-35 -15t-35 15t-15 35v56q-15 -7 -39 -19t-39 -20q-7 -2 -13 -4.5t-11 -2.5q-14 0 -26 7.5t-19 21.5v-2q-5 13 -5 23q0 14 7 26.5t21 19.5h-1l125 65v437q0 20 15 35t35 15t35 -15t15 -35v-386l112 58v328q0 20 15 35t35 15q21 0 36 -15t15 -35v-277l112 59
v218q0 20 15 35t35 15q21 0 36 -15t15 -35v-166l111 58v108q0 20 15 35t36 15q20 0 35 -15t15 -35v-56l75 39q13 7 27 7t26 -7.5t18 -19.5z" />
    <glyph glyph-name="t_h_e" unicode="thesmall" horiz-adv-x="1334" 
d="M88 607q-20 0 -35 15t-15 36q0 20 15 35t35 15h249q21 0 36 -15t15 -35q0 -21 -15 -36t-36 -15h-77v-375q0 -20 -15 -35t-35 -15t-35 15t-15 35v375h-72zM544 182q-21 0 -36 15t-15 35v426q0 20 15 35t36 15t35.5 -15t14.5 -35v-162h174v162q0 20 15 35t35 15
q22 0 36.5 -15t14.5 -35v-426q0 -20 -14.5 -35t-36.5 -15q-20 0 -35 15t-15 35v163h-174v-163q0 -20 -14.5 -35t-35.5 -15zM1274 283q20 0 35 -15t15 -36q0 -20 -15 -35t-35 -15h-244q-20 0 -35 15t-15 35v414q0 21 15 36t35 15h244q20 0 35 -15t15 -36q0 -20 -15 -35
t-35 -15h-193v-100h131q21 0 36 -15t15 -36q0 -20 -15 -35t-36 -15h-131v-112h193zM1274 101q20 0 35 -15t15 -36q0 -20 -15 -35t-35 -15h-1156q-20 0 -35 15t-15 35q0 21 15 36t35 15h1156z" />
    <glyph glyph-name=".notdef" horiz-adv-x="360" 
 />
    <glyph glyph-name=".null" horiz-adv-x="0" 
 />
    <glyph glyph-name="nonmarkingreturn" unicode="&#xd;" horiz-adv-x="268" 
 />
    <glyph glyph-name="NULL" horiz-adv-x="0" 
 />
    <glyph glyph-name="NULL" horiz-adv-x="0" 
 />
    <glyph glyph-name="space" unicode=" " horiz-adv-x="268" 
 />
    <glyph glyph-name="exclam" unicode="!" horiz-adv-x="197" 
d="M99 700q21 0 36 -14.5t15 -34.5v-421q0 -20 -15 -35t-36 -15q-20 0 -34.5 15t-14.5 35v421q0 20 14.5 34.5t34.5 14.5zM99 100q21 0 36 -15t15 -36q0 -20 -15 -34.5t-36 -14.5q-20 0 -34.5 14.5t-14.5 34.5q0 21 14.5 36t34.5 15z" />
    <glyph glyph-name="quotedbl" unicode="&#x22;" horiz-adv-x="384" 
d="M98 511q-7 0 -15 2q-17 5 -25.5 17.5t-8.5 29.5q0 8 2 16q7 22 15 45t16 45q7 12 19.5 23t26.5 11q8 0 16 -2q16 -5 25 -18.5t9 -28.5q0 -5 -6.5 -27.5t-25.5 -78.5q-7 -13 -20.5 -23.5t-27.5 -10.5zM261 512q-8 0 -16 2q-16 5 -25 17.5t-9 29.5q0 8 2 16q8 22 16 45
t15 45q7 13 20 23.5t27 10.5q8 0 16 -2q16 -5 25 -18.5t9 -28.5q0 -5 -6.5 -27.5t-25.5 -78.5q-7 -13 -20.5 -23.5t-27.5 -10.5z" />
    <glyph glyph-name="numbersign" unicode="#" horiz-adv-x="692" 
d="M531 420l-21 -140h67q20 0 34.5 -15t14.5 -35t-14.5 -35t-34.5 -15h-83l-20 -138v1q-4 -18 -18.5 -30.5t-30.5 -12.5q-22 0 -36 15t-14 35v3q0 4 1 7l18 120h-138l-21 -138v1q-3 -18 -17 -30.5t-32 -12.5q-21 0 -35.5 15t-14.5 35q0 -1 0.5 1t1.5 10l19 119h-61
q-20 0 -35 15t-15 35t15 35t35 15h75l22 140h-67q-20 0 -35 15t-15 35t15 35t35 15h82l21 138v-1q3 18 17 30.5t32 12.5q1 0 1.5 -0.5t2.5 -0.5h5q17 -5 29 -18.5t12 -29.5v-3t-2 -13l-18 -115h139l20 138v-1q4 18 17.5 30.5t31.5 12.5q1 0 1.5 -0.5t2.5 -0.5h5
q17 -5 29 -18.5t12 -29.5v-3t-2 -11l-17 -117h59q20 0 35 -15t15 -35t-15 -35t-35 -15h-75zM410 280l21 140h-139l-21 -140h139z" />
    <glyph glyph-name="dollar" unicode="$" horiz-adv-x="555" 
d="M388 393q29 -15 52.5 -31t40.5 -35.5t26 -44.5t9 -58q0 -50 -18.5 -91t-51 -70.5t-76.5 -46t-94 -16.5q-41 0 -81.5 15t-73.5 42t-53.5 64t-20.5 80q0 19 14.5 33.5t34.5 14.5q18 0 32.5 -12.5t17.5 -30.5q7 -35 37 -64.5t72 -40.5v233q-154 55 -154 190q0 36 15.5 68
t43 56t65 38t81.5 14q19 0 43.5 -5t45.5 -15.5t35.5 -25.5t14.5 -34q0 -23 -15.5 -36t-34.5 -13q-9 0 -18 4t-20 10q-9 4 -19.5 8t-29.5 9v-178q20 -7 40.5 -14t39.5 -17zM201 524q0 -32 14 -51.5t40 -33.5v154q-54 -29 -54 -69zM308 102q29 7 48 20t30.5 28.5t16 32.5
t4.5 32q0 20 -8.5 35.5t-22.5 28t-32 22t-36 17.5v-216z" />
    <glyph glyph-name="percent" unicode="%" horiz-adv-x="864" 
d="M214 0q-6 0 -14.5 2.5t-15.5 7.5q-8 8 -13.5 18t-5.5 21q0 17 10 30l448 598q14 20 39 20q16 0 30 -10q19 -16 19 -40q0 -7 -2 -15t-7 -14l-448 -598q-8 -8 -19 -14t-21 -6zM214 362q-35 0 -65.5 13.5t-53.5 36.5t-36.5 53.5t-13.5 65.5t13.5 65.5t36.5 53.5t53.5 36.5
t65.5 13.5t65.5 -13.5t53.5 -36.5t36.5 -53.5t13.5 -65.5t-13.5 -65.5t-36.5 -53.5t-53.5 -36.5t-65.5 -13.5zM214 601q-29 0 -49.5 -20.5t-20.5 -49.5t20.5 -49.5t49.5 -20.5t49.5 20.5t20.5 49.5t-20.5 49.5t-49.5 20.5zM663 3q-35 0 -66 13.5t-54 36.5t-36.5 53.5
t-13.5 65.5t13.5 66t36.5 54t54 36.5t66 13.5q34 0 65 -13.5t54 -36.5t36.5 -54t13.5 -66t-13.5 -65.5t-36.5 -53.5t-54 -36.5t-65 -13.5zM663 242q-29 0 -49.5 -20.5t-20.5 -49.5t20.5 -49.5t49.5 -20.5t49.5 20.5t20.5 49.5t-20.5 49.5t-49.5 20.5z" />
    <glyph glyph-name="ampersand" unicode="&#x26;" horiz-adv-x="630" 
d="M571 81q11 -12 11 -31q0 -11 -4.5 -21t-13.5 -18q-14 -11 -32 -11q-25 0 -38 19l-58 71l-34 -39q-31 -26 -67 -38.5t-72 -12.5q-45 0 -84 17.5t-68.5 47.5t-46.5 70t-17 85q0 64 34.5 117t90.5 83q-14 25 -21.5 50.5t-7.5 49.5q0 37 14 70t38.5 57.5t57 38.5t69.5 14
t70 -14t57.5 -38.5t38.5 -57.5t14 -70v-14q-3 -27 -15 -52.5t-31 -47t-43.5 -37.5t-52.5 -24l81 -102l66 74q8 8 17.5 12.5t18.5 4.5q19 0 33 -14q8 -8 12 -17.5t4 -18.5t-2.5 -17.5t-8.5 -15.5l-77 -86zM322 600q-33 0 -57 -23t-24 -57q0 -28 18 -51l25 -29h37
q17 0 31.5 6.5t25.5 17.5t17.5 25.5t6.5 30.5v10q-5 30 -27 50t-53 20zM373 169l-136 170q-40 -12 -65 -44.5t-25 -74.5q0 -25 9 -47t24.5 -38t37 -25.5t45.5 -9.5q20 0 37 5.5t33 19.5z" />
    <glyph glyph-name="quotesingle" unicode="'" horiz-adv-x="226" 
d="M99 512q-7 0 -15 2q-17 5 -25.5 17.5t-8.5 29.5q0 8 2 16q7 22 15 45t16 45q7 13 20 23.5t26 10.5q7 0 17 -2q15 -5 24.5 -18.5t9.5 -28.5q0 -5 -7 -27.5t-25 -78.5q-8 -13 -21.5 -23.5t-27.5 -10.5z" />
    <glyph glyph-name="parenleft" unicode="(" horiz-adv-x="284" 
d="M189 700q15 0 24 -6q14 -9 20 -20.5t6 -22.5q0 -16 -8 -29q-2 -3 -15 -25t-28 -58.5t-27 -85t-12 -103.5q0 -54 11.5 -101t25.5 -83t27.5 -59t17.5 -29q8 -13 8 -29q0 -24 -22 -40q-12 -9 -28 -9q-11 0 -22.5 6t-18.5 16t-23 39.5t-33 72.5t-30 98t-13 118q0 67 14 124.5
t31.5 101t33.5 70t20 32.5q7 10 18 16t23 6z" />
    <glyph glyph-name="parenright" unicode=")" horiz-adv-x="284" 
d="M99 0q-16 0 -28 9q-10 8 -16 18.5t-6 21.5q0 17 12 32q0 5 4 13t9 19q9 18 20 42.5t21.5 54.5t17.5 65.5t7 74.5q0 56 -12.5 105t-27.5 85.5t-28 58t-14 23.5q-5 6 -7 14t-2 15q0 25 21 40q12 9 29 9q11 0 22.5 -6t18.5 -16q7 -11 23 -40t33 -72t30 -98t13 -118
q0 -67 -14 -124.5t-31.5 -101t-33.5 -70t-20 -32.5q-7 -10 -18 -16t-23 -6z" />
    <glyph glyph-name="asterisk" unicode="*" horiz-adv-x="320" 
d="M261 558q15 -17 15 -35q0 -20 -15 -35q-13 -14 -35 -14q-21 0 -39 19l-25 23l-24 -23q-19 -19 -39 -19q-22 0 -35 14q-8 7 -11.5 16t-3.5 19q0 9 3.5 18t11.5 17l29 30l-29 28v-1q-15 12 -15 35q0 21 15 36q14 14 35 14q19 0 35 -14l28 -29l29 29q14 14 35 14
q19 0 35 -14q15 -18 15 -36q0 -20 -15 -35v1l-30 -28z" />
    <glyph glyph-name="plus" unicode="+" 
d="M457 399q21 0 36 -14.5t15 -34.5t-15 -34.5t-36 -14.5h-130v-131q0 -20 -14.5 -35t-35.5 -15q-20 0 -34.5 15t-14.5 35v131h-131q-20 0 -35 14.5t-15 34.5t15 34.5t35 14.5h131v131q0 20 14.5 35t34.5 15q21 0 35.5 -15t14.5 -35v-131h130z" />
    <glyph glyph-name="comma" unicode="," horiz-adv-x="226" 
d="M99 -90q-9 0 -15 3q-17 5 -25.5 17.5t-8.5 29.5q0 8 2 16q7 22 15 45t16 45q7 12 20 23t26 11q7 0 17 -2q15 -5 24.5 -18.5t9.5 -29.5q0 -2 -1.5 -8.5t-5.5 -18.5t-10 -31.5t-15 -47.5q-8 -12 -21.5 -23t-27.5 -11z" />
    <glyph glyph-name="hyphen" unicode="-" horiz-adv-x="576" 
d="M487 399q21 0 35.5 -14.5t14.5 -34.5t-14.5 -34.5t-35.5 -14.5h-390q-20 0 -35 14.5t-15 34.5t15 34.5t35 14.5h390z" />
    <glyph glyph-name="period" unicode="." horiz-adv-x="197" 
d="M99 100q21 0 36 -15t15 -36q0 -20 -15 -34.5t-36 -14.5q-20 0 -34.5 14.5t-14.5 34.5q0 21 14.5 36t34.5 15z" />
    <glyph glyph-name="slash" unicode="/" horiz-adv-x="313" 
d="M228 699q18 -3 29 -17.5t11 -31.5q0 -6 -1 -10l-120 -600q-3 -18 -17 -29t-31 -11h-4.5t-5.5 1q-17 3 -28.5 17.5t-11.5 31.5q0 6 1 10l121 600q3 18 17 29t31 11q5 0 9 -1z" />
    <glyph glyph-name="zero" unicode="0" horiz-adv-x="546" 
d="M441 618q66 -83 66 -208v-120q0 -63 -17.5 -116.5t-48 -92t-73 -60t-91.5 -21.5q-50 0 -92.5 22t-73 61t-47.5 92t-17 115v120q0 62 18 115t49 92t73 61t90 22q47 0 89.5 -21.5t74.5 -60.5zM408 410q0 34 -8.5 68t-25.5 61t-41.5 44t-55.5 17q-32 0 -56 -17t-41 -44
t-25.5 -61t-8.5 -68v-120q0 -41 9 -75.5t26.5 -60t41.5 -40t54 -14.5q29 0 53 14t41.5 39.5t27 60t9.5 76.5v120z" />
    <glyph glyph-name="one" unicode="1" horiz-adv-x="254" 
d="M159 0q-20 0 -35 14.5t-15 34.5v551q-25 0 -42 15t-17 36q0 20 14.5 34.5t34.5 14.5h61q20 0 34 -14.5t14 -34.5v-602q0 -20 -14.5 -34.5t-34.5 -14.5z" />
    <glyph glyph-name="two" unicode="2" horiz-adv-x="494" 
d="M98 0q-21 0 -35.5 15t-14.5 35q0 2 1 19.5t7 44.5t19 60.5t36 68.5t59 68t88 59q32 16 51 34t28.5 34t12.5 29t3 20v10q0 21 -8 40t-22 32.5t-32.5 21.5t-39.5 8q-43 0 -72.5 -29.5t-29.5 -72.5q0 -21 -15 -35.5t-36 -14.5t-35.5 14.5t-14.5 35.5q0 42 16 78.5t43.5 64.5
t64.5 44t79 16q41 0 77.5 -16t64 -43.5t44 -64t16.5 -77.5v-10q0 -15 -4 -40t-19.5 -54t-45 -60t-80.5 -56q-33 -17 -57.5 -39t-42.5 -46t-29.5 -48t-18.5 -45h247q21 0 35.5 -15t14.5 -36q0 -20 -14.5 -35t-35.5 -15h-305z" />
    <glyph glyph-name="three" unicode="3" 
d="M415 414q43 -32 68 -79.5t25 -104.5q0 -48 -18 -89.5t-49.5 -73t-73.5 -49.5t-90 -18t-89.5 18t-73 49.5t-49.5 73t-18 89.5q0 20 15 35t35 15q21 0 35.5 -15t14.5 -35q0 -27 10 -51t28 -41.5t41.5 -27.5t50.5 -10t51 10t42 27.5t28 41.5t10 51q0 26 -10 49.5t-28 41.5
t-41.5 28.5t-50.5 10.5q-21 0 -35.5 14.5t-14.5 35.5q0 27 16.5 36t36.5 14q12 3 24 7.5t21.5 12t15.5 19.5t6 31q0 29 -21 49.5t-50 20.5h-119q-21 0 -36 15t-15 36q0 20 15 34.5t36 14.5h119q35 0 66 -13.5t54 -36.5t36.5 -54t13.5 -66q0 -59 -34 -102z" />
    <glyph glyph-name="four" unicode="4" horiz-adv-x="546" 
d="M367 0q-20 0 -35 14.5t-15 34.5v101h-220q-14 0 -25 6.5t-18 17.5q-5 5 -6 11.5t-1 14.5q0 6 2 11.5t5 11.5l239 450q16 27 44 27h30q20 0 35 -14.5t15 -34.5v-401h40q20 0 35 -15t15 -35t-15 -35t-35 -15h-40v-101q0 -20 -15 -34.5t-35 -14.5zM179 250h138v221l-17 5z
" />
    <glyph glyph-name="five" unicode="5" 
d="M277 460q48 0 90 -18t73.5 -49.5t49.5 -73.5t18 -89q0 -48 -18 -89.5t-49.5 -73t-73.5 -49.5t-90 -18t-89.5 18t-73 49.5t-49.5 73t-18 89.5q0 20 15 35t35 15q21 0 35.5 -15t14.5 -35q0 -27 10 -51t28 -41.5t41.5 -27.5t50.5 -10t51 10t42 27.5t28 41.5t10 51
q0 26 -10 49t-27 40.5t-39.5 28t-48.5 12.5l-113 -28q-8 -2 -13 -2q-23 0 -35.5 17t-13.5 39l30 270q2 19 16 31.5t33 12.5h181q20 0 34.5 -14.5t14.5 -34.5q0 -21 -14.5 -36t-34.5 -15h-136l-17 -155l51 13h-1q10 2 12 2z" />
    <glyph glyph-name="six" unicode="6" 
d="M277 0q-48 0 -89.5 18t-73 49.5t-49.5 73t-18 89.5q0 55 23 99l183 344q8 14 19.5 20.5t25.5 6.5q21 0 35 -15.5t14 -33.5q0 -12 -6 -24l-94 -175q19 6 23.5 7t6.5 1q48 0 90 -18t73.5 -49.5t49.5 -73.5t18 -89q0 -48 -18 -89.5t-49.5 -73t-73.5 -49.5t-90 -18zM277 360
q-27 0 -50.5 -10t-41.5 -27.5t-28 -41.5t-10 -51t10 -51t28 -41.5t41.5 -27.5t50.5 -10t51 10t42 27.5t28 41.5t10 51t-10 51t-28 41.5t-42 27.5t-51 10z" />
    <glyph glyph-name="seven" unicode="7" horiz-adv-x="488" 
d="M97 0q-10 0 -22 5h1q-14 7 -21 19t-7 25q0 11 5 23l264 528h-220q-20 0 -34.5 15t-14.5 36q0 20 14.5 34.5t34.5 14.5h301q12 0 23 -5t16 -16q10 -17 10 -29q0 -7 -1.5 -12t-3.5 -10l-300 -601q-7 -13 -19 -20t-26 -7z" />
    <glyph glyph-name="eight" unicode="8" 
d="M415 414q43 -32 68 -79.5t25 -104.5q0 -48 -18 -89.5t-49.5 -73t-73.5 -49.5t-90 -18t-89.5 18t-73 49.5t-49.5 73t-18 89.5q0 57 27.5 106t72.5 84q-19 25 -29.5 53t-10.5 57q0 35 13.5 66t36.5 54t54 36.5t66 13.5t66 -13.5t54 -36.5t36.5 -54t13.5 -66q0 -59 -34 -102
zM207 530q0 -29 20.5 -49.5t49.5 -20.5t50 20.5t21 49.5t-21 49.5t-50 20.5t-49.5 -20.5t-20.5 -49.5zM277 100q27 0 51 10t42 27.5t28 41.5t10 51t-10 51t-28 41.5t-42 27.5t-51 10t-50.5 -10t-41.5 -27.5t-28 -41.5t-10 -51t10 -51t28 -41.5t41.5 -27.5t50.5 -10z" />
    <glyph glyph-name="nine" unicode="9" 
d="M277 700q48 0 90 -18t73.5 -49.5t49.5 -73t18 -89.5q0 -28 -6.5 -52.5t-16.5 -47.5v1l-184 -344q-15 -27 -44 -27q-22 0 -36 15t-14 34q0 12 6 24l97 181q-22 -11 -26.5 -12.5t-6.5 -1.5q-48 0 -89.5 18t-73 49.5t-49.5 73.5t-18 89q0 48 18 89.5t49.5 73t73 49.5
t89.5 18zM277 340q27 0 51 10t42 27.5t28 41.5t10 51t-10 50.5t-28 41.5t-42 28t-51 10t-50.5 -10t-41.5 -28t-28 -41.5t-10 -50.5t10 -51t28 -41.5t41.5 -27.5t50.5 -10z" />
    <glyph glyph-name="colon" unicode=":" horiz-adv-x="197" 
d="M99 301q-20 0 -34.5 14.5t-14.5 34.5t14.5 34.5t34.5 14.5q21 0 36 -14.5t15 -34.5t-15 -34.5t-36 -14.5zM99 0q-20 0 -34.5 15t-14.5 35t14.5 35t34.5 15q21 0 36 -15t15 -35t-15 -35t-36 -15z" />
    <glyph glyph-name="semicolon" unicode=";" horiz-adv-x="226" 
d="M99 301q-20 0 -34.5 14.5t-14.5 34.5t14.5 34.5t34.5 14.5q21 0 36 -14.5t15 -34.5t-15 -34.5t-36 -14.5zM99 -90q-9 0 -15 3q-17 5 -25.5 17.5t-8.5 29.5q0 8 2 16q7 22 15 45t16 45q7 12 20 23t26 11q7 0 17 -2q15 -5 24.5 -18.5t9.5 -29.5q0 -3 -1 -6.5t-3 -8.5
q-7 -23 -14.5 -45.5t-14.5 -45.5h1q-6 -15 -19 -24.5t-30 -9.5z" />
    <glyph glyph-name="less" unicode="&#x3c;" horiz-adv-x="430" 
d="M339 91q-20 0 -33 12l-241 210q-8 7 -12.5 17t-4.5 21q0 23 17 37l241 211q12 11 33 11q19 0 37 -15q12 -17 12 -34q0 -21 -17 -38v1l-198 -173l198 -173v1q17 -17 17 -38q0 -17 -12 -34q-8 -7 -18 -11.5t-19 -4.5z" />
    <glyph glyph-name="equal" unicode="=" horiz-adv-x="576" 
d="M487 280q21 0 35.5 -15t14.5 -35t-14.5 -35t-35.5 -15h-390q-20 0 -35 15t-15 35t15 35t35 15h390zM97 420q-20 0 -35 15t-15 35t15 35t35 15h390q21 0 35.5 -15t14.5 -35t-14.5 -35t-35.5 -15h-390z" />
    <glyph glyph-name="greater" unicode="&#x3e;" horiz-adv-x="430" 
d="M98 91q-10 0 -19.5 4.5t-17.5 11.5q-6 8 -9.5 17t-3.5 17q0 21 18 38v-1l197 173l-197 173v-1q-18 16 -18 38q0 8 3.5 17t9.5 17q17 15 37 15q19 0 33 -11l240 -211q17 -14 17 -37q0 -11 -4.5 -21t-12.5 -17l-240 -210q-15 -12 -33 -12z" />
    <glyph glyph-name="question" unicode="?" horiz-adv-x="488" 
d="M248 700q41 0 77.5 -16t63.5 -43t42.5 -63.5t15.5 -77.5q0 -72 -27 -117.5t-89 -76.5q-10 -5 -16.5 -15t-10 -21.5t-5 -22.5t-1.5 -17q0 -20 -15 -35t-35 -15t-35 15t-15 35q0 4 1.5 24.5t10 46.5t26.5 52t51 42h-1q17 9 29 17.5t19.5 20t10.5 27.5t3 40q0 21 -8 39
t-21.5 31.5t-31.5 21.5t-39 8t-39.5 -8t-32 -21.5t-21 -31.5t-7.5 -39t-15 -35.5t-36 -14.5q-20 0 -34.5 14.5t-14.5 35.5q0 41 15.5 77.5t42.5 63.5t63.5 43t78.5 16zM248 100q20 0 35 -15t15 -36q0 -20 -15 -34.5t-35 -14.5t-35 14.5t-15 34.5q0 21 15 36t35 15z" />
    <glyph glyph-name="at" unicode="@" horiz-adv-x="780" 
d="M396 700q72 0 135.5 -27.5t111.5 -75.5t75.5 -111.5t27.5 -135.5t-21.5 -119.5t-48 -76.5t-49.5 -41.5t-25 -13.5q-8 -3 -14 -3q-2 0 -10 2q-75 18 -96 63l1 -1l-10 35q-23 -13 -45.5 -20t-44.5 -7q-35 0 -65.5 14.5t-53.5 39t-36.5 57.5t-13.5 71q0 37 13.5 70.5
t36.5 58t53.5 39t65.5 14.5q24 0 47.5 -8t46.5 -22q7 14 17 22t21 8q16 0 26.5 -11t10.5 -27v-288v-7t-2 -8q6 -5 14 -8.5t19 -8.5q11 7 26 20t29 34.5t23.5 51.5t9.5 70q0 57 -22 107t-59.5 87.5t-87.5 59t-106 21.5q-57 0 -107.5 -21.5t-87.5 -59t-58.5 -87.5t-21.5 -107
t21.5 -107t58.5 -87.5t87.5 -59t107.5 -21.5q21 0 41.5 3.5t41.5 11.5l-1 -1q10 2 12 2q13 0 23 -8t14 -20q2 -3 2 -11q0 -11 -7 -21t-19 -14q-56 -17 -107 -17q-72 0 -136 27.5t-111.5 75t-75 111.5t-27.5 136t27.5 135.5t75 111.5t111.5 75.5t136 27.5zM384 244
q19 0 36.5 8t30.5 22.5t20.5 33.5t7.5 42q0 22 -7.5 41t-20.5 33.5t-30.5 23t-36.5 8.5t-36 -8.5t-30 -23t-20.5 -33.5t-7.5 -41t7.5 -41t20.5 -33.5t30 -23t36 -8.5z" />
    <glyph glyph-name="A" unicode="A" horiz-adv-x="663" 
d="M623 68q3 -8 3 -19q0 -19 -13 -34t-36 -15q-14 0 -27 10t-20 22l-47 118h-293l-48 -118q-6 -12 -19 -22t-27 -10q-22 0 -35.5 15.5t-13.5 33.5q0 11 3 19q57 145 119.5 300t120.5 300q7 13 19.5 22.5t27.5 9.5q14 0 26.5 -9.5t19.5 -22.5zM442 249l-105 268l-106 -268
h211z" />
    <glyph glyph-name="B" unicode="B" 
d="M420 393q43 -28 65.5 -73.5t22.5 -104.5q0 -50 -18.5 -90t-48 -67.5t-65 -42.5t-69.5 -15h-210q-20 0 -35 14.5t-15 34.5v602q0 20 15 34.5t35 14.5h166q4 0 30.5 -3.5t58.5 -19.5q95 -48 95 -162q0 -31 -7.5 -58.5t-22.5 -48.5zM147 429h100q7 0 23.5 2t33.5 10
t30.5 25.5t13.5 48.5q0 29 -9 46t-21.5 25.5t-25.5 11t-21 2.5h-124v-171zM358 115q17 10 27 22.5t15 26t6.5 26.5t1.5 25q0 16 -5.5 36t-18 37.5t-33 29.5t-51.5 12h-153v-230h153q1 0 19.5 2t38.5 13z" />
    <glyph glyph-name="C" unicode="C" horiz-adv-x="628" 
d="M516 130q12 6 24 6q13 0 25 -6.5t19 -20.5q10 -17 3.5 -36.5t-23.5 -30.5q-38 -19 -81.5 -30.5t-85.5 -11.5q-72 0 -136 27.5t-111.5 75t-75 111.5t-27.5 136t27.5 135.5t75 111.5t111.5 75.5t136 27.5q42 0 85.5 -12t81.5 -30q17 -11 23.5 -30.5t-3.5 -36.5
q-7 -14 -19 -20.5t-25 -6.5q-5 0 -12 2t-12 4q-26 14 -57 22t-62 8q-51 0 -96.5 -19.5t-79.5 -53.5t-54 -79.5t-20 -97.5t20 -97.5t54 -79.5t79.5 -53.5t96.5 -19.5q32 0 62.5 7t56.5 23z" />
    <glyph glyph-name="D" unicode="D" horiz-adv-x="605" 
d="M96 0q-20 0 -34.5 14.5t-14.5 34.5v602q0 20 14.5 34.5t34.5 14.5h175q1 0 23.5 -1.5t55.5 -11t71 -30.5t70.5 -60t54 -99t21.5 -148t-21.5 -148t-54 -99t-70.5 -60t-71 -30.5t-55.5 -11t-23.5 -1.5h-175zM147 100h124q1 0 10.5 1t23.5 4.5t31.5 10t35.5 17.5
q46 30 70.5 85t24.5 132q0 79 -25.5 134.5t-73.5 85.5q-17 10 -34 16t-31 9t-23 4l-9 1h-124v-500z" />
    <glyph glyph-name="E" unicode="E" horiz-adv-x="518" 
d="M428 100q20 0 35 -15t15 -36q0 -20 -15 -34.5t-35 -14.5h-330q-21 0 -35.5 14.5t-14.5 34.5v602q0 20 14.5 34.5t35.5 14.5h330q20 0 35 -14.5t15 -34.5q0 -21 -15 -36t-35 -15h-280v-201h220q20 0 34.5 -14.5t14.5 -34.5t-14.5 -34.5t-34.5 -14.5h-220v-201h280v0z" />
    <glyph glyph-name="F" unicode="F" 
d="M457 700q21 0 36 -14.5t15 -34.5q0 -21 -15 -36t-36 -15h-310v-201h250q20 0 35 -14.5t15 -34.5t-15 -34.5t-35 -14.5h-250v-252q0 -20 -14.5 -34.5t-35.5 -14.5q-20 0 -35 14.5t-15 34.5v602q0 20 15 34.5t35 14.5h360z" />
    <glyph glyph-name="G" unicode="G" horiz-adv-x="694" 
d="M396 0q-68 0 -132.5 25.5t-115.5 76.5q-50 50 -76 113.5t-26 134.5q0 70 26 133.5t76 113.5q51 51 114.5 77t133.5 26t134 -26t114 -77q8 -7 11 -16t3 -18q0 -22 -15 -36q-14 -14 -35 -14t-35 14q-35 35 -80.5 54t-96.5 19t-96 -19t-81 -54q-35 -35 -54.5 -80.5
t-19.5 -96.5t19.5 -96.5t54.5 -80.5q37 -37 83 -55.5t94 -18.5q44 0 85.5 15t77.5 45v142h-161q-20 0 -35 14.5t-15 34.5t15 34.5t35 14.5h210q20 0 35 -14.5t15 -34.5v-212q0 -10 -3.5 -19.5t-11.5 -16.5q-51 -51 -115 -76.5t-132 -25.5z" />
    <glyph glyph-name="H" unicode="H" horiz-adv-x="576" 
d="M487 700q21 0 35.5 -14.5t14.5 -34.5v-602q0 -20 -14.5 -34.5t-35.5 -14.5q-20 0 -35 14.5t-15 34.5v252h-290v-252q0 -20 -15 -34.5t-35 -14.5t-35 14.5t-15 34.5v602q0 20 15 34.5t35 14.5t35 -14.5t15 -34.5v-252h290v252q0 20 15 34.5t35 14.5z" />
    <glyph glyph-name="I" unicode="I" horiz-adv-x="196" 
d="M99 0q-20 0 -34.5 14.5t-14.5 34.5v602q0 20 14.5 34.5t34.5 14.5t35 -14.5t15 -34.5v-602q0 -20 -15 -34.5t-35 -14.5z" />
    <glyph glyph-name="J" unicode="J" horiz-adv-x="343" 
d="M98 0q-20 0 -34.5 14.5t-14.5 34.5q0 21 14.5 36t34.5 15q34 0 54 14t30.5 31.5t13.5 33.5t3 21v451q0 20 15 34.5t35 14.5t35 -14.5t15 -34.5v-451q0 -2 -0.5 -11t-3 -22.5t-7.5 -30t-14 -34.5q-25 -50 -70 -76t-106 -26z" />
    <glyph glyph-name="K" unicode="K" horiz-adv-x="546" 
d="M494 83q5 -7 9 -16t4 -18q0 -20 -15 -34.5t-35 -14.5q-9 0 -19 4.5t-18 11.5l-273 300v-267q0 -20 -14.5 -34.5t-35.5 -14.5q-20 0 -35 14.5t-15 34.5v602q0 20 15 34.5t35 14.5q21 0 35.5 -14.5t14.5 -34.5v-267l273 300q8 7 18 11.5t19 4.5q21 0 35.5 -14.5t14.5 -34.5
q0 -19 -13 -34l-244 -267z" />
    <glyph glyph-name="L" unicode="L" horiz-adv-x="460" 
d="M99 0q-21 0 -36 14.5t-15 34.5v602q0 20 15 34.5t36 14.5q20 0 34.5 -14.5t14.5 -34.5v-551h220q21 0 36 -15t15 -36q0 -20 -15 -34.5t-36 -14.5h-269z" />
    <glyph glyph-name="M" unicode="M" horiz-adv-x="722" 
d="M636 0q-20 0 -34.5 14.5t-14.5 34.5v452l-181 -241q-15 -20 -40 -20t-40 20l-180 241v-452q0 -20 -15 -34.5t-35 -14.5t-35 14.5t-15 34.5v602q0 20 14.5 34.5t36.5 14.5q24 0 39 -20l230 -307l231 307q14 20 39 20q22 0 36 -14.5t14 -34.5v-602q0 -20 -14.5 -34.5
t-35.5 -14.5z" />
    <glyph glyph-name="N" unicode="N" horiz-adv-x="605" 
d="M517 0q-25 0 -41 22l-329 471v-444q0 -20 -15 -34.5t-36 -14.5q-20 0 -34.5 14.5t-14.5 34.5v602q0 19 14 34t36 15q25 0 41 -22l329 -471v444q0 20 15 34.5t35 14.5t35 -14.5t15 -34.5v-602q0 -20 -15 -34.5t-35 -14.5z" />
    <glyph glyph-name="O" unicode="O" horiz-adv-x="751" 
d="M381 0q-69 0 -130 27.5t-106.5 75t-72 111.5t-26.5 136t26.5 135.5t72 111.5t106.5 75.5t130 27.5t130 -27.5t106.5 -75.5t72 -111.5t26.5 -135.5t-26.5 -136t-72 -111.5t-106.5 -75t-130 -27.5zM381 600q-49 0 -91.5 -19.5t-74.5 -53.5t-50.5 -79.5t-18.5 -97.5
t18.5 -97.5t50.5 -79.5t74.5 -53.5t91.5 -19.5t91.5 19.5t74.5 53.5t50.5 79.5t18.5 97.5t-18.5 97.5t-50.5 79.5t-74.5 53.5t-91.5 19.5z" />
    <glyph glyph-name="P" unicode="P" horiz-adv-x="532" 
d="M97 0q-20 0 -34.5 14.5t-14.5 34.5v602q0 20 14.5 34.5t34.5 14.5h164q2 0 12.5 -1t26 -4t35 -8.5t39.5 -14.5q55 -29 86.5 -81.5t31.5 -120.5q0 -2 -0.5 -12.5t-3.5 -26t-8.5 -35t-15.5 -39.5v1q-29 -57 -81.5 -87.5t-121.5 -30.5h-114v-191q0 -20 -14.5 -34.5
t-35.5 -14.5zM147 340h114q79 0 113 59q6 12 9.5 24.5t5.5 22.5t2.5 16.5t0.5 7.5q0 82 -63 114q-13 6 -24.5 9t-21.5 5q-11 2 -22 2h-114v-260z" />
    <glyph glyph-name="Q" unicode="Q" horiz-adv-x="751" 
d="M674 82q12 -17 12 -32q0 -23 -18 -39q-14 -11 -32 -11q-23 0 -38 19v-2l-33 41q-42 -28 -88.5 -43t-95.5 -15q-69 0 -130 27.5t-106.5 75t-72 111.5t-26.5 136t26.5 135.5t72 111.5t106.5 75.5t130 27.5t130 -27.5t106.5 -75.5t72 -111.5t26.5 -135.5q0 -61 -21 -118.5
t-57 -105.5zM381 100q62 0 121 34l-54 64q-12 17 -12 33q0 22 18 37q15 12 32 12q22 0 38 -18l48 -59q44 70 44 147q0 52 -18.5 97.5t-50.5 79.5t-74.5 53.5t-91.5 19.5t-91.5 -19.5t-74.5 -53.5t-50.5 -79.5t-18.5 -97.5t18.5 -97.5t50.5 -79.5t74.5 -53.5t91.5 -19.5z" />
    <glyph glyph-name="R" unicode="R" horiz-adv-x="532" 
d="M485 76h-1q8 -14 8 -27q0 -11 -6.5 -22.5t-17.5 -19.5q-10 -7 -25 -7q-28 0 -43 23l-136 217h-117v-191q0 -20 -14.5 -34.5t-35.5 -14.5q-20 0 -34.5 14.5t-14.5 34.5v602q0 20 14.5 34.5t34.5 14.5h164q2 0 12.5 -1t26 -4t35 -8.5t39.5 -14.5q55 -29 86.5 -81.5
t31.5 -120.5q0 -2 -0.5 -12.5t-3.5 -26t-8.5 -35t-15.5 -39.5v1q-15 -31 -39 -55t-56 -41zM147 340h114q79 0 113 59q6 12 9.5 24.5t5.5 22.5t2.5 16.5t0.5 7.5q0 82 -63 114q-13 6 -24.5 9t-21.5 5q-11 2 -22 2h-114v-260z" />
    <glyph glyph-name="S" unicode="S" horiz-adv-x="520" 
d="M271 428q7 -2 25 -8.5t40.5 -18t46.5 -27.5t45 -37t35 -48t17 -59v-11q0 -42 -16.5 -81.5t-45.5 -68.5q-32 -32 -75.5 -49.5t-92.5 -17.5h-8q-63 2 -113.5 35t-76.5 89q-4 8 -4 21q0 14 7 26.5t21 18.5q9 5 21 5q14 0 27 -7.5t19 -21.5q14 -30 41 -47.5t62 -18.5h5
q59 0 95 36q35 35 35 81v4q-2 20 -18 38.5t-37.5 33t-45 25t-38.5 15.5q-1 0 -3 1t-4 1q-149 54 -149 187v8q2 38 18 70t48 55q26 21 61 32.5t73 11.5h10q29 -1 60 -13t57 -30q8 -8 14 -18.5t6 -20.5q0 -19 -11 -30q-15 -20 -40 -20q-7 0 -15 2.5t-15 7.5q-12 9 -28.5 15
t-31.5 7h-7q-42 0 -70.5 -20.5t-29.5 -52.5v-4q0 -22 7 -37t19 -25.5t27.5 -18t31.5 -14.5z" />
    <glyph glyph-name="T" unicode="T" 
d="M457 700q21 0 36 -14.5t15 -34.5q0 -21 -15 -36t-36 -15h-130v-551q0 -20 -14.5 -34.5t-35.5 -14.5q-20 0 -34.5 14.5t-14.5 34.5v551h-131q-20 0 -35 15t-15 36q0 20 15 34.5t35 14.5h360z" />
    <glyph glyph-name="U" unicode="U" horiz-adv-x="575" 
d="M292 0q-75 0 -130 34t-86 100q-11 23 -16.5 44.5t-8.5 38.5t-3.5 28.5t-0.5 14.5v391q0 20 15 34.5t35 14.5t34.5 -14.5t14.5 -34.5v-391q0 -4 1.5 -17.5t6.5 -31t15 -37.5t26 -36.5t40 -27t57 -10.5q48 0 76.5 21.5t43.5 49t20 54t5 35.5v391q0 20 15 34.5t35 14.5
t34.5 -14.5t14.5 -34.5v-391q0 -3 -0.5 -14.5t-3 -28.5t-8.5 -38.5t-16 -44.5q-31 -66 -86 -100t-130 -34z" />
    <glyph glyph-name="V" unicode="V" horiz-adv-x="663" 
d="M337 0q-15 0 -27.5 9.5t-19.5 22.5l-240 600q-3 7 -3 18q0 19 13.5 34.5t35.5 15.5q15 0 28 -8.5t18 -23.5l195 -485l193 485q6 15 19 23.5t28 8.5q23 0 36 -15.5t13 -33.5q0 -12 -3 -19q-57 -145 -120 -300t-120 -300q-7 -13 -19.5 -22.5t-26.5 -9.5z" />
    <glyph glyph-name="W" unicode="W" horiz-adv-x="945" 
d="M883 696q15 -6 23 -19t8 -27q0 -12 -3 -19l-251 -600q-5 -14 -18 -22.5t-27 -8.5q-34 0 -47 31l-88 213l-90 -213q-5 -14 -17.5 -22.5t-27.5 -8.5t-28 8.5t-18 22.5l-251 600q-3 7 -3 19q0 19 13.5 34.5t36.5 15.5q15 0 27.5 -8.5t17.5 -22.5l205 -490l80 195l-107 257
q-4 10 -4 20q0 19 14 34t37 15q34 0 45 -31l70 -167l69 167q5 14 18 22.5t27 8.5q23 0 37 -15.5t14 -34.5q0 -12 -3 -19l-109 -257l82 -195l204 490q5 14 17.5 22.5t27.5 8.5q9 0 19 -4z" />
    <glyph glyph-name="X" unicode="X" horiz-adv-x="605" 
d="M558 78v1q9 -14 9 -30q0 -19 -15 -34t-35 -15q-25 0 -41 22l-170 240l-168 -240q-16 -22 -42 -22q-20 0 -34.5 15t-14.5 34q0 17 9 29l190 272l-190 272q-9 12 -9 25q0 20 13 36.5t36 16.5q26 0 42 -22l168 -241l170 241q16 22 41 22q20 0 35 -15t15 -34q0 -17 -9 -29
l-190 -272z" />
    <glyph glyph-name="Y" unicode="Y" horiz-adv-x="605" 
d="M545 691q22 -16 22 -40q0 -17 -9 -29l-201 -287v-286q0 -20 -15 -34.5t-36 -14.5q-20 0 -34.5 14.5t-14.5 34.5v286l-201 287q-9 12 -9 25q0 20 13 36.5t36 16.5q26 0 42 -22l168 -241l170 241q16 22 41 22q16 0 28 -9z" />
    <glyph glyph-name="Z" unicode="Z" 
d="M97 0q-20 0 -35 15t-15 35q0 7 1 13t6 11l316 526h-273q-20 0 -35 15t-15 35t15 35t35 15h360q20 0 35 -14.5t15 -34.5q0 -15 -8 -26l-315 -525h273q21 0 36 -15t15 -36q0 -20 -15 -34.5t-36 -14.5h-360z" />
    <glyph glyph-name="bracketleft" unicode="[" horiz-adv-x="314" 
d="M220 700q20 0 34.5 -15t14.5 -35t-14.5 -35t-34.5 -15h-71v-500h71q20 0 34.5 -15t14.5 -36q0 -20 -14.5 -34.5t-34.5 -14.5h-120q-21 0 -36 14.5t-15 34.5v602q0 20 15 34.5t36 14.5h120z" />
    <glyph glyph-name="backslash" unicode="\" horiz-adv-x="313" 
d="M89 699q4 1 10 1q17 0 31 -11t17 -29l120 -600q1 -4 1 -10q0 -17 -11 -31.5t-29 -17.5q-4 -1 -9 -1q-18 0 -31.5 11t-16.5 29l-121 600q-1 4 -1 10q0 17 11.5 31.5t28.5 17.5z" />
    <glyph glyph-name="bracketright" unicode="]" horiz-adv-x="314" 
d="M99 0q-20 0 -35 14.5t-15 34.5q0 21 15 36t35 15h71v500h-71q-20 0 -35 15t-15 35t15 35t35 15h120q21 0 35.5 -14.5t14.5 -34.5v-602q0 -20 -14.5 -34.5t-35.5 -14.5h-120z" />
    <glyph glyph-name="asciicircum" unicode="^" horiz-adv-x="451" 
d="M66 462q-18 18 -18 38q0 19 13 33v-1l131 150q15 18 37 18q23 0 37 -18l131 -150q7 -7 9.5 -15.5t2.5 -17.5q0 -22 -16 -37q-7 -6 -15.5 -8.5t-17.5 -2.5t-19 4t-18 13l-93 106l-95 -107q-15 -16 -37 -16q-20 0 -32 11z" />
    <glyph glyph-name="underscore" unicode="_" horiz-adv-x="576" 
d="M487 -21q21 0 35.5 -14.5t14.5 -34.5t-14.5 -34.5t-35.5 -14.5h-390q-20 0 -35 14.5t-15 34.5t15 34.5t35 14.5h390z" />
    <glyph glyph-name="grave" unicode="`" horiz-adv-x="313" 
d="M76 605h1q-14 8 -21 19.5t-7 25.5q0 11 5 23q7 13 19.5 20t26.5 7q6 0 11 -1.5t10 -3.5q30 -15 60.5 -30.5t60.5 -30.5h-1q14 -7 20.5 -19t6.5 -25q0 -11 -5 -23q-6 -12 -18 -19.5t-26 -7.5q-11 0 -23 6z" />
    <glyph glyph-name="a" unicode="a" horiz-adv-x="488" 
d="M451 50q0 -20 -15 -35t-35 -15q-15 0 -28.5 10.5t-21.5 26.5q-32 -17 -68 -26.5t-74 -9.5q-63 0 -103.5 30t-54.5 86q-4 15 -4 32q0 43 25 74q16 22 39 35.5t49.5 21t55.5 10.5t58 3q16 0 37.5 -1t36.5 -2q-4 20 -11 37.5t-17 23.5q-26 14 -57 14q-32 0 -61.5 -12
t-46.5 -26q-7 -6 -15.5 -8.5t-16.5 -2.5q-22 0 -39 17q-11 14 -11 33q0 24 18 38q29 26 65.5 40.5t77.5 19.5q8 1 14 1h13q27 0 56 -7.5t52 -18.5q28 -17 44 -42.5t24.5 -50t10.5 -43.5t2 -23v-163zM346 189q-14 1 -31.5 2t-34.5 1q-22 0 -45.5 -2t-43 -7t-32 -13.5
t-12.5 -21.5q0 -25 19.5 -35.5t42.5 -10.5q16 0 27 1.5t15 2.5q2 1 4 1q32 7 52 23.5t29 31.5z" />
    <glyph glyph-name="b" unicode="b" horiz-adv-x="517" 
d="M264 466q45 0 84.5 -18.5t69 -50.5t46.5 -74.5t17 -90.5t-17 -90.5t-46.5 -74t-69 -49.5t-84.5 -18q-30 0 -59.5 9.5t-57.5 26.5q-9 -15 -22.5 -25.5t-27.5 -10.5q-20 0 -35 15t-15 35v608q0 20 15 35t35 15q21 0 36 -15t15 -35v-229q30 17 60 27t56 10zM264 101
q24 0 45.5 10t37 28t25 42t9.5 51q0 28 -9.5 52t-25 42t-37 28.5t-45.5 10.5t-45.5 -10.5t-37 -28.5t-24.5 -42t-9 -52q0 -27 9 -51t24.5 -42t37 -28t45.5 -10z" />
    <glyph glyph-name="c" unicode="c" horiz-adv-x="422" 
d="M265 0q-45 0 -84.5 18t-69 49.5t-46.5 74t-17 90.5t17 90.5t46.5 74.5t69 50.5t84.5 18.5q24 0 46.5 -5.5t43.5 -15.5q28 -14 28 -45q0 -10 -5 -22q-6 -14 -18.5 -21.5t-26.5 -7.5q-9 0 -22 5q-22 11 -46 11t-45 -10.5t-36.5 -28.5t-25 -42t-9.5 -52q0 -27 9.5 -51
t25 -42t36.5 -28t45 -10q26 0 46 10q5 3 10.5 4t10.5 1q14 0 27 -7.5t19 -21.5q2 -5 3.5 -10t1.5 -11q0 -14 -7 -27t-21 -19q-43 -20 -90 -20z" />
    <glyph glyph-name="d" unicode="d" 
d="M46 232q0 48 18.5 90.5t50 74.5t74 50.5t90.5 18.5q31 0 64.5 -11t67.5 -31v234q0 20 15 35t35 15q21 0 36 -15t15 -35v-608q0 -20 -15 -35t-36 -15q-15 0 -29 11.5t-22 29.5q-32 -19 -65.5 -30t-65.5 -11q-48 0 -90.5 18t-74 49.5t-50 74t-18.5 90.5zM147 232
q0 -27 10.5 -51t28.5 -42t42 -28t51 -10q28 0 52 10t42 28t28 42t10 51q0 28 -10 52t-28 42t-42 28.5t-52 10.5q-27 0 -51 -10.5t-42 -28.5t-28.5 -42t-10.5 -52z" />
    <glyph glyph-name="e" unicode="e" horiz-adv-x="488" 
d="M264 0q-13 0 -17 1q-46 2 -85 21t-65 52q-50 64 -50 159q0 48 16 90.5t43.5 74t64 50t78.5 18.5q85 0 145 -66q28 -31 42.5 -71t14.5 -85q0 -21 -15 -36t-35 -15h-251q5 -16 13.5 -32t20.5 -29t28.5 -21.5t38.5 -9.5h6q13 0 33.5 2.5t42.5 17.5q16 8 29 8t25.5 -7
t20.5 -21q5 -4 5 -21q0 -26 -24 -44q-35 -23 -69.5 -29.5t-55.5 -6.5zM343 294q-15 34 -35 51t-56 17q-35 0 -55.5 -18t-38.5 -50h185z" />
    <glyph glyph-name="f" unicode="f" horiz-adv-x="401" 
d="M310 466q22 0 36.5 -15t14.5 -36t-14.5 -35.5t-36.5 -14.5h-70v-315q0 -20 -15 -35t-35 -15q-22 0 -36.5 15t-14.5 35v315h-41q-20 0 -35 14.5t-15 35.5t15 36t35 15h41v70q0 6 3 30t17 53q21 44 60.5 66.5t90.5 22.5q22 0 36.5 -15t14.5 -35q0 -21 -14.5 -36t-36.5 -15
q-28 0 -41 -9.5t-18 -21.5v1q-7 -12 -9 -24t-2 -17v-70h70v0z" />
    <glyph glyph-name="g" unicode="g" horiz-adv-x="517" 
d="M481 -10q0 -42 -14 -82t-40 -73q-31 -33 -75 -55.5t-89 -22.5h-13q-50 4 -93.5 30.5t-72.5 70.5h1q-8 16 -8 27q0 13 6 24.5t17 18.5q11 8 28 8q13 0 23.5 -6t18.5 -16q15 -24 38 -39t48 -17h7q51 0 87 41q31 39 31 91v45q-31 -16 -60 -25.5t-57 -9.5q-45 0 -84.5 18.5
t-69 50t-46.5 74t-17 90.5t17 90.5t46.5 74t69 50t84.5 18.5q59 0 118 -37q8 16 21.5 26.5t27.5 10.5q20 0 35 -15t15 -35v-426zM264 101q24 0 45.5 10t37 28t25 42t9.5 52q0 27 -9.5 51t-25 42t-37 28.5t-45.5 10.5t-45.5 -10.5t-37 -28.5t-24.5 -42t-9 -51q0 -28 9 -52
t24.5 -42t37 -28t45.5 -10z" />
    <glyph glyph-name="h" unicode="h" horiz-adv-x="488" 
d="M423 364q10 -18 15.5 -35t8.5 -31t3.5 -23.5t0.5 -12.5v-212q0 -20 -15 -35t-36 -15q-20 0 -35 15t-15 35v212q0 2 -2.5 19t-14.5 37q-29 47 -103 47h-83v-315q0 -20 -15 -35t-35 -15t-35 15t-15 35v608q0 20 15 35t35 15t35 -15t15 -35v-192h83q66 0 116 -26.5t77 -75.5
z" />
    <glyph glyph-name="i" unicode="i" horiz-adv-x="197" 
d="M100 0q-20 0 -35 15t-15 35v365q0 21 15 36t35 15q21 0 36 -15t15 -36v-365q0 -20 -15 -35t-36 -15zM151 627q0 -21 -15 -36t-36 -15q-20 0 -35 15t-15 36q0 20 15 35t35 15q21 0 36 -15t15 -35z" />
    <glyph glyph-name="j" unicode="j" horiz-adv-x="314" 
d="M272 627q0 -21 -15 -36t-35 -15q-21 0 -36 15t-15 36q0 20 15 35t36 15q20 0 35 -15t15 -35zM99 -182q-20 0 -35 15t-15 35q0 21 15 36t35 15q29 0 42 10t19 23v-1q4 7 5.5 14t3.5 12l2 12v426q0 21 15 36t35 15q21 0 36 -15t15 -36v-425q0 -6 -3 -30.5t-18 -53.5
q-21 -43 -60 -65.5t-92 -22.5z" />
    <glyph glyph-name="k" unicode="k" horiz-adv-x="459" 
d="M407 86q8 -8 11 -16.5t3 -19.5q0 -21 -14 -35q-15 -15 -36 -15q-22 0 -35 15l-188 187v-152q0 -20 -15 -35t-36 -15q-20 0 -35 15t-15 35v608q0 20 15 35t35 15q21 0 36 -15t15 -35v-394l188 187q14 14 35 14q19 0 36 -14q14 -16 14 -36t-14 -36l-147 -147z" />
    <glyph glyph-name="l" unicode="l" horiz-adv-x="197" 
d="M100 708q21 0 36 -15t15 -35v-608q0 -20 -15 -35t-36 -15q-20 0 -35 15t-15 35v608q0 20 15 35t35 15z" />
    <glyph glyph-name="m" unicode="m" horiz-adv-x="623" 
d="M429 466q45 0 75.5 -18t49.5 -44.5t27.5 -58t8.5 -58.5v-237q0 -20 -15 -35t-36 -15q-20 0 -35 15t-15 35v237q0 6 -2 19t-9 27q-8 17 -18.5 24.5t-30.5 7.5t-31 -7.5t-19 -24.5q-6 -14 -8 -27t-2 -19v-237q0 -20 -15 -35t-37 -15q-20 0 -35 15t-15 35v237q0 6 -2 19
t-8 27q-8 17 -19 24.5t-31 7.5q-35 0 -50 -32q-6 -14 -8 -27t-2 -19v-237q0 -20 -15 -35t-36 -15q-20 0 -35 15t-15 35v365q0 21 15 36t35 15q9 0 19 -5t18 -12q18 8 36 12.5t38 4.5q34 0 61.5 -12t48.5 -32q23 20 50 32t62 12z" />
    <glyph glyph-name="n" unicode="n" horiz-adv-x="488" 
d="M401 466q20 0 35 -15t15 -36v-365q0 -16 -9 -29t-24 -18q-8 -3 -18 -3q-9 0 -19.5 5.5t-17.5 12.5l-215 258v-226q0 -20 -15 -35t-36 -15q-20 0 -35 15t-15 35v365q0 16 8.5 29t23.5 19q4 2 9 2.5t10 0.5q10 0 20 -6t18 -12l215 -257v224q0 21 15 36t35 15z" />
    <glyph glyph-name="o" unicode="o" 
d="M279 466q48 0 90.5 -18.5t74 -50.5t50 -74.5t18.5 -90.5t-18.5 -90.5t-50 -74t-74 -49.5t-90.5 -18t-90.5 18t-74 49.5t-50 74t-18.5 90.5t18.5 90.5t50 74.5t74 50.5t90.5 18.5zM279 101q28 0 52 10t42 28t28 42t10 51q0 28 -10 52t-28 42t-42 28.5t-52 10.5
q-27 0 -51 -10.5t-42 -28.5t-28.5 -42t-10.5 -52q0 -27 10.5 -51t28.5 -42t42 -28t51 -10z" />
    <glyph glyph-name="p" unicode="p" 
d="M96 -243q-20 0 -35 15t-15 35v609q0 20 15 35t35 15q16 0 29.5 -11.5t21.5 -28.5q32 19 65.5 29.5t66.5 10.5q48 0 90.5 -18.5t74 -50t50 -74t18.5 -90.5t-18.5 -90.5t-50 -74t-74 -50t-90.5 -18.5q-31 0 -64.5 11t-67.5 31v-235q0 -20 -14.5 -35t-36.5 -15zM279 365
q-27 0 -51 -10.5t-42 -28.5t-28.5 -42t-10.5 -51q0 -28 10.5 -52t28.5 -42t42 -28t51 -10q28 0 52 10t42 28t28 42t10 52q0 27 -10 51t-28 42t-42 28.5t-52 10.5z" />
    <glyph glyph-name="q" unicode="q" 
d="M512 -193q0 -20 -15 -35t-36 -15q-20 0 -35 15t-15 35v235q-34 -20 -67.5 -31t-64.5 -11q-48 0 -90.5 18.5t-74 50t-50 74t-18.5 90.5t18.5 90.5t50 74t74 50t90.5 18.5q32 0 65.5 -11t65.5 -30q8 18 22 29.5t29 11.5q21 0 36 -15t15 -35v-609zM411 233q0 27 -10 51
t-28 42t-42 28.5t-52 10.5q-27 0 -51 -10.5t-42 -28.5t-28.5 -42t-10.5 -51q0 -28 10.5 -52t28.5 -42t42 -28t51 -10q28 0 52 10t42 28t28 42t10 52z" />
    <glyph glyph-name="r" unicode="r" horiz-adv-x="313" 
d="M221 466q20 0 35 -15t15 -36t-15 -35.5t-35 -14.5q-17 0 -36.5 -5t-29.5 -19q-2 -4 -4 -10q-1 -3 -1 -5v-276q0 -20 -15 -35t-36 -15q-20 0 -35 15t-15 35v365q0 21 15 36t35 15q10 0 19.5 -4.5t17.5 -11.5q19 8 40 12t45 4z" />
    <glyph glyph-name="s" unicode="s" horiz-adv-x="430" 
d="M294 286q29 -14 47.5 -29t29 -30t15 -29.5t5.5 -26.5v-11q0 -28 -9.5 -54.5t-29.5 -47.5q-27 -28 -63.5 -43t-80.5 -15q-49 0 -90 22.5t-63 60.5q-7 16 -7 26q0 13 6 24.5t19 18.5q14 7 25 7q12 0 24 -6.5t19 -19.5q11 -18 30.5 -25t36.5 -7q23 0 41 6t29 19h-1
q14 14 14 38q-3 6 -12.5 13t-23 14.5t-28.5 14t-29 9.5l-2 1q-22 6 -45 16.5t-42 27.5t-31 40.5t-12 55.5q0 28 12.5 52t34.5 42t52.5 28t65.5 10q23 0 48 -7.5t45 -20.5q11 -7 17.5 -18.5t6.5 -23.5q0 -8 -2.5 -14t-6.5 -13h1q-14 -23 -42 -23q-13 0 -29 8l2 -1q-9 5 -20 8
t-20 3q-17 0 -29 -4t-20 -9t-11.5 -10t-3.5 -7q0 -4 1 -9t6 -11t16 -12.5t31 -12.5q8 -2 29 -8t44 -17z" />
    <glyph glyph-name="t" unicode="t" horiz-adv-x="430" 
d="M341 466q20 0 35 -15t15 -36t-15 -35.5t-35 -14.5h-72v-315q0 -20 -14.5 -35t-35.5 -15q-20 0 -35 15t-15 35v315h-71q-20 0 -35 14.5t-15 35.5t15 36t35 15h71v192q0 20 15 35t35 15q21 0 35.5 -15t14.5 -35v-192h72v0z" />
    <glyph glyph-name="u" unicode="u" horiz-adv-x="453" 
d="M365 466q20 0 35 -15t15 -36v-237q0 -5 -3 -30.5t-19 -55.5q-23 -45 -64.5 -68.5t-96.5 -23.5q-56 0 -97.5 23.5t-64.5 68.5q-17 30 -20 55.5t-3 30.5v237q0 21 15 36t35 15q21 0 36 -15t15 -36v-237q0 -2 2 -15.5t10 -28.5q8 -11 22.5 -22t49.5 -11q34 0 49 11t22 22
q8 14 10 28t2 16v237q0 21 15 36t35 15z" />
    <glyph glyph-name="v" unicode="v" horiz-adv-x="529" 
d="M465 460q14 -6 21 -18.5t7 -26.5q0 -7 -1.5 -12t-3.5 -10l-173 -365q-5 -13 -17.5 -20.5t-26.5 -7.5t-26.5 8.5t-19.5 19.5l-173 365q-2 5 -3.5 10t-1.5 12q0 14 7 26.5t21 18.5q10 6 22 6q14 0 26.5 -8t18.5 -22l129 -268l127 268q7 12 19.5 21t25.5 9q11 0 22 -6z" />
    <glyph glyph-name="w" unicode="w" horiz-adv-x="688" 
d="M624 463q16 -6 24.5 -19.5t8.5 -28.5q0 -9 -2 -17l-128 -365q-5 -14 -18 -23.5t-30 -9.5q-16 0 -29 9.5t-19 23.5l-80 229q-8 -24 -18.5 -53.5t-21 -60t-21 -60.5t-19.5 -55q-5 -14 -18.5 -23.5t-29.5 -9.5q-17 0 -30 9.5t-18 23.5l-128 365q-2 8 -2 17q0 16 8.5 29
t24.5 19q8 2 18 2q16 0 29 -8.5t18 -24.5l80 -228l79 228q5 17 18 25t29 9h4q14 -1 27 -11.5t19 -22.5l80 -228l80 228q5 16 18.5 24.5t28.5 8.5q9 0 18 -4v2z" />
    <glyph glyph-name="x" unicode="x" horiz-adv-x="459" 
d="M411 84q10 -15 10 -31q0 -24 -20 -39q-14 -11 -30 -11q-11 0 -21.5 5.5t-18.5 15.5l-95 127l-98 -131q-8 -8 -19 -14t-22 -6q-6 0 -14.5 2.5t-15.5 7.5q-8 8 -14 18t-6 22q0 7 3 15.5t8 14.5l114 154l-114 155q-11 11 -11 29q0 11 6 22t14 18q7 5 15.5 8t14.5 3
q26 0 41 -20l98 -131q20 28 47 63t48 64q7 8 18 14t22 6q17 0 30 -10q20 -15 20 -39q0 -15 -10 -32l-112 -150z" />
    <glyph glyph-name="y" unicode="y" horiz-adv-x="529" 
d="M316 30l-8 -12l-104 -232q-8 -12 -20 -20.5t-26 -8.5q-5 0 -11 1t-11 3q-14 7 -21 19.5t-7 26.5q0 13 4 21l101 224l-161 341q-2 5 -3.5 10t-1.5 12q0 14 7 26.5t21 18.5q10 6 22 6q14 0 26.5 -8t18.5 -22l129 -268l127 268q7 12 19.5 21t25.5 9q11 0 22 -6
q14 -6 21 -18.5t7 -26.5q0 -7 -1.5 -12t-3.5 -10z" />
    <glyph glyph-name="z" unicode="z" horiz-adv-x="488" 
d="M401 101q20 0 35 -15t15 -36q0 -20 -15 -35t-35 -15h-304q-14 0 -27 7.5t-19 21.5q-4 8 -4 22q0 18 11 32l235 282h-196q-20 0 -35 14.5t-15 35.5t15 36t35 15h304q14 0 26.5 -9t19.5 -21q2 -5 3 -10t1 -10q0 -18 -11 -34l-235 -281h196v0z" />
    <glyph glyph-name="braceleft" unicode="{" horiz-adv-x="401" 
d="M308 100q21 0 35.5 -15t14.5 -36q0 -20 -14.5 -34.5t-35.5 -14.5h-60q-21 0 -35 14q-3 4 -14 18t-25 40q-17 35 -26.5 75t-9.5 83q0 6 -5.5 15.5t-15 20.5t-21.5 22.5t-25 20.5l-15 14q-7 10 -7 27q0 12 5 23.5t16 18.5q6 5 13 10q6 5 13 10t13 12q19 19 24 31t5 15
q0 43 9.5 83t26.5 75q14 26 25 40t14 18q14 14 35 14h60q21 0 35.5 -14.5t14.5 -34.5q0 -21 -14.5 -36t-35.5 -15h-36q-11 -18 -22.5 -50.5t-11.5 -79.5q0 -33 -19 -64t-43 -56q24 -25 43 -56t19 -64q0 -47 11.5 -79.5t22.5 -50.5h36z" />
    <glyph glyph-name="bar" unicode="|" horiz-adv-x="196" 
d="M99 -61q-20 0 -34.5 15t-14.5 35v773q0 20 14.5 34.5t34.5 14.5t35 -14.5t15 -34.5v-773q0 -20 -15 -35t-35 -15z" />
    <glyph glyph-name="braceright" unicode="}" horiz-adv-x="401" 
d="M192 10l-1 -2v-1zM191 693v-1q0 -2 1 -3zM98 600q-20 0 -34.5 15t-14.5 36q0 20 14.5 34.5t34.5 14.5h61q19 0 35 -14l-2 3l5 -7h-1q5 -5 15.5 -19.5t21.5 -34.5q17 -35 26 -75t9 -83q0 -5 5.5 -14.5t15 -20.5t22 -22.5t25.5 -21.5q1 -2 6.5 -7t7.5 -7q4 -5 6 -13t2 -14
q0 -10 -6 -22t-13 -19q-5 -2 -16.5 -11t-24.5 -22q-18 -18 -24 -30.5t-6 -15.5q0 -43 -9 -83t-26 -75q-11 -20 -21.5 -34.5t-15.5 -20.5h1l-5 -7l2 4q-16 -14 -35 -14h-61q-20 0 -34.5 14.5t-14.5 34.5q0 21 14.5 36t34.5 15h35q11 18 23.5 51t12.5 79q0 33 19 64t43 56
q-24 25 -43 56t-19 64q0 46 -12.5 79t-23.5 51h-35z" />
    <glyph glyph-name="asciitilde" unicode="~" horiz-adv-x="401" 
d="M248 570q-17 0 -32 6t-27 12q-11 5 -21 8.5t-24 3.5q-8 -13 -20 -21.5t-26 -8.5q-20 0 -34.5 15t-14.5 35q0 10 5 24t17 26.5t33.5 21t54.5 8.5q17 0 31 -5t26 -11q11 -6 20.5 -10t26.5 -4q8 14 20 22t26 8q20 0 34.5 -14.5t14.5 -34.5q0 -44 -31.5 -62.5t-78.5 -18.5z
" />
    <glyph glyph-name="exclamdown" unicode="&#xa1;" horiz-adv-x="197" 
d="M100 0q-20 0 -35 14.5t-15 34.5v421q0 20 15 35t35 15t35 -15t15 -35v-421q0 -20 -15 -34.5t-35 -14.5zM100 600q-20 0 -35 15t-15 36q0 20 15 34.5t35 14.5t35 -14.5t15 -34.5q0 -21 -15 -36t-35 -15z" />
    <glyph glyph-name="sterling" unicode="&#xa3;" horiz-adv-x="544" 
d="M485 152q20 -15 20 -40q0 -7 -3 -16t-8 -15q-3 -4 -13 -15t-25.5 -23.5t-35.5 -24t-44 -15.5q-14 -3 -29 -3q-23 0 -50.5 9t-55.5 38q-10 9 -16.5 11t-12.5 2q-11 0 -23 -4.5t-23 -11.5t-20 -14t-14 -13q-13 -14 -35 -14t-35 13q-15 16 -15 36q0 21 14 35l3 4
q4 4 13 11.5t22 16.5t30 18t38 16v150h-40q-20 0 -35 14t-15 35q0 20 15 34.5t35 14.5h40v130q0 5 3 28.5t17 52.5q21 43 59.5 65.5t89.5 22.5h59q20 0 35 -14.5t15 -34.5t-15 -35t-35 -15h-59q-29 0 -42 -10t-19 -23q-7 -15 -8 -25q-1 -6 -1 -12v-130h100q20 0 34.5 -14.5
t14.5 -34.5q0 -21 -14.5 -35t-34.5 -14h-100v-154q29 -13 45 -32q11 -11 20.5 -14.5t15.5 -3.5q1 0 3 0.5t4 0.5q11 2 21.5 7.5t18.5 12.5t14 13t8 9q15 20 39 20q8 0 15.5 -2t14.5 -8z" />
    <glyph glyph-name="currency" unicode="&#xa4;" horiz-adv-x="567" 
d="M514 576q14 -16 14 -36q0 -19 -14 -35l-55 -54q29 -52 29 -101t-29 -101l55 -54q14 -17 14 -36q0 -21 -14 -35q-15 -15 -35 -15q-22 0 -35 15l-54 53q-26 -13 -51.5 -20t-51.5 -7t-51 7t-51 20l-53 -53q-15 -15 -35 -15q-22 0 -35 15q-15 12 -15 35q0 21 15 36l54 54
q-14 26 -21.5 51.5t-7.5 49.5q0 25 7.5 50t21.5 51l-54 54q-15 14 -15 35q0 22 15 36q13 15 35 15q18 0 35 -15l53 -53q26 13 51 20t51 7t51.5 -7t51.5 -20l54 53q13 15 35 15q20 0 35 -15zM217 279q29 -29 70 -29q44 0 71 29q15 15 22 33t7 38q0 19 -7 37.5t-22 33.5
q-28 30 -71 30q-9 0 -21 -4.5t-22.5 -10t-18 -10t-8.5 -5.5q-30 -30 -30 -71t30 -71z" />
    <glyph glyph-name="yen" unicode="&#xa5;" horiz-adv-x="605" 
d="M545 691q22 -16 22 -40q0 -17 -9 -29l-176 -252h75q21 0 35.5 -15t14.5 -35q0 -21 -14.5 -35.5t-35.5 -14.5h-100v-51h100q21 0 35.5 -14.5t14.5 -34.5t-14.5 -35t-35.5 -15h-100v-71q0 -20 -15 -34.5t-36 -14.5q-20 0 -34.5 14.5t-14.5 34.5v71h-100q-21 0 -35.5 15
t-14.5 35t14.5 34.5t35.5 14.5h100v51h-100q-21 0 -35.5 14.5t-14.5 35.5q0 20 14.5 35t35.5 15h75l-176 252v-1q-9 13 -9 30q0 11 6 21.5t16 18.5q11 8 27 8q12 0 23 -5t19 -16l168 -241l170 241q16 22 41 22q16 0 28 -9z" />
    <glyph glyph-name="brokenbar" unicode="&#xa6;" horiz-adv-x="196" 
d="M99 -60q-20 0 -34.5 15t-14.5 35v269q0 21 14.5 36t34.5 15t35 -15t15 -36v-269q0 -20 -15 -35t-35 -15zM99 390q-20 0 -34.5 15t-14.5 35v262q0 20 14.5 34.5t34.5 14.5t35 -14.5t15 -34.5v-262q0 -20 -15 -35t-35 -15z" />
    <glyph glyph-name="section" unicode="&#xa7;" horiz-adv-x="361" 
d="M263 235q23 -16 38.5 -39.5t15.5 -61.5q0 -28 -10.5 -52.5t-28.5 -42.5t-42.5 -28.5t-51.5 -10.5q-24 0 -46 7.5t-39 21t-29.5 32.5t-16.5 41q-2 5 -2 7.5v4.5q0 11 6 19t15 10q5 2 7 2h4q10 0 19 -7t11 -18q5 -26 25 -41.5t46 -15.5q30 0 50.5 21t20.5 50q0 10 -2 19
t-10.5 18t-25 18.5t-44.5 18.5q-1 0 -4 1t-4 1l3 -1q-15 5 -35.5 14t-39 24t-31.5 38t-13 56q0 32 18 62.5t48 53.5q-26 19 -46 45t-20 63q0 28 10.5 52.5t29 43t43 29t52.5 10.5q47 0 83.5 -28.5t45.5 -73.5q2 -5 2 -7.5v-4.5q0 -11 -5.5 -19t-14.5 -10q-5 -2 -7 -2h-4
q-11 0 -19.5 7t-10.5 18q-6 26 -25 41.5t-45 15.5q-30 0 -51 -21.5t-21 -50.5q0 -9 2.5 -18t11 -18t25 -18t45.5 -19q2 0 3 -1t3 -1q15 -5 35 -14t37.5 -24t30 -37.5t12.5 -55.5t-14 -61t-40 -47v-16zM184 413q-12 0 -24.5 -5t-23 -14t-17 -21.5t-6.5 -27.5q5 -26 25 -42
t46 -16q13 0 25.5 5.5t22.5 14.5t16 21.5t6 26.5q-6 26 -25 42t-45 16z" />
    <glyph glyph-name="dieresis" unicode="&#xa8;" horiz-adv-x="360" 
d="M149 591q0 -21 -15 -36t-35 -15q-21 0 -35.5 15t-14.5 36q0 20 14.5 34.5t35.5 14.5q20 0 35 -14.5t15 -34.5zM316 591q0 -21 -14.5 -36t-34.5 -15t-34.5 15t-14.5 36q0 20 14.5 34.5t34.5 14.5t34.5 -14.5t14.5 -34.5z" />
    <glyph glyph-name="copyright" unicode="&#xa9;" horiz-adv-x="780" 
d="M476 435q-19 19 -41 27.5t-45 8.5t-45.5 -8.5t-40.5 -26.5q-36 -35 -36 -86q0 -52 35 -85q19 -19 41.5 -27.5t45.5 -8.5t45 8.5t41 27.5q4 4 12 4q2 0 6 -1t6 -2q5 -8 5 -15q0 -6 -4 -12q-48 -45 -111 -45q-31 0 -59.5 11t-51.5 34q-22 23 -34 51.5t-12 59.5t12 59.5
t34 51.5q23 23 51.5 34t59.5 11q30 0 59 -11t52 -34q4 -5 4 -13q0 -5 -4 -13q-5 -5 -13 -5q-7 0 -12 5zM644 597q50 -50 76 -113.5t26 -133.5q0 -72 -26 -134.5t-76 -113.5q-50 -50 -114 -76t-134 -26t-133.5 26t-113.5 76q-52 52 -77.5 115.5t-25.5 132.5q0 68 25.5 132
t76.5 115t114.5 77t133.5 26t133.5 -26t114.5 -77zM573 173q35 35 54.5 80.5t19.5 96.5t-19.5 96.5t-54.5 80.5q-36 35 -81 54t-96 19t-96.5 -19t-80.5 -54q-38 -37 -55.5 -83t-17.5 -94q0 -49 17.5 -95t55.5 -82q35 -35 80.5 -54t96.5 -19t96 19t81 54z" />
    <glyph glyph-name="guillemotleft" unicode="&#xab;" horiz-adv-x="602" 
d="M242 565q15 15 35 15q17 0 34 -15q8 -8 11 -17t3 -18q0 -22 -14 -35l-146 -145l146 -145q8 -8 11 -17t3 -18q0 -22 -14 -35q-17 -15 -34 -15q-20 0 -35 15l-181 180q-14 14 -14 35q0 19 14 35zM480 565q18 15 35 15q19 0 34 -15q8 -8 11.5 -17t3.5 -18q0 -10 -3.5 -19
t-11.5 -16l-145 -145l145 -145q8 -8 11.5 -17t3.5 -18q0 -23 -15 -35q-15 -15 -35 -15q-17 0 -34 15l-181 180q-14 14 -14 34t14 36z" />
    <glyph glyph-name="registered" unicode="&#xae;" horiz-adv-x="780" 
d="M489 406q0 -63 -50 -89l-18 -8l65 -88q3 -5 3 -10q0 -9 -7 -14q-3 -3 -10 -3q-8 0 -13 7l-84 111q-3 4 -3 11q0 5 1 7v-1q6 11 16 11q5 0 10 1t11 2.5t12 4.5q32 16 32 58q0 40 -30 56q-13 6 -23.5 7.5t-11.5 1.5h-52v-260q0 -7 -5 -12t-12 -5q-8 0 -13 5t-5 12v278
q0 7 5 12t13 5h69q2 0 16.5 -1.5t32.5 -10.5q26 -12 38.5 -35t12.5 -53zM644 597q50 -50 76 -113.5t26 -133.5q0 -71 -26 -134t-76 -113q-51 -51 -114.5 -77t-133.5 -26t-133.5 26t-113.5 76q-52 52 -77.5 115.5t-25.5 132.5q0 68 25.5 132t76.5 115t114.5 77t133.5 26
t133.5 -26t114.5 -77zM573 173q35 35 54 80.5t19 96.5t-19 96.5t-54 80.5q-36 35 -81 54t-96 19t-96.5 -19t-80.5 -54q-38 -37 -55.5 -83t-17.5 -94q0 -49 17.5 -95t55.5 -82q35 -35 80.5 -54t96.5 -19t96 19t81 54z" />
    <glyph glyph-name="degree" unicode="&#xb0;" horiz-adv-x="428" 
d="M217 362q-35 0 -65.5 13.5t-53.5 36.5t-36.5 53.5t-13.5 65.5t13.5 65.5t36.5 53.5t53.5 36.5t65.5 13.5t65.5 -13.5t53.5 -36.5t36.5 -53.5t13.5 -65.5t-13.5 -65.5t-36.5 -53.5t-53.5 -36.5t-65.5 -13.5zM217 601q-29 0 -49.5 -20.5t-20.5 -49.5t20.5 -49.5t49.5 -20.5
t49.5 20.5t20.5 49.5t-20.5 49.5t-49.5 20.5z" />
    <glyph glyph-name="plusminus" unicode="&#xb1;" horiz-adv-x="488" 
d="M398 100q20 0 34.5 -15t14.5 -36q0 -20 -14.5 -34.5t-34.5 -14.5h-301q-20 0 -34.5 14.5t-14.5 34.5q0 21 14.5 36t34.5 15h301zM97 301q-20 0 -34.5 14.5t-14.5 34.5t14.5 34.5t34.5 14.5h101v101q0 20 15 35t35 15t34.5 -15t14.5 -35v-101h101q20 0 34.5 -14.5
t14.5 -34.5t-14.5 -34.5t-34.5 -14.5h-101v-101q0 -20 -14.5 -35t-34.5 -15t-35 15t-15 35v101h-101z" />
    <glyph glyph-name="twosuperior" unicode="&#xb2;" horiz-adv-x="313" 
d="M74 325q-12 0 -21 11q-4 6 -4 14v6q1 2 7.5 17t19 35.5t31.5 43t45 39.5q38 24 52.5 39t14.5 37q0 25 -18 42t-42 17q-26 0 -43 -17t-17 -42q0 -10 -7.5 -17.5t-17.5 -7.5q-11 0 -18 7.5t-7 17.5q0 22 8.5 42t23.5 34.5t35 23t43 8.5q22 0 42 -8.5t35 -23t23.5 -34.5
t8.5 -42q0 -23 -7.5 -40t-20 -30.5t-28.5 -25t-32 -22.5h1q-19 -13 -36 -32t-31 -42h130q10 0 17 -7.5t7 -17.5t-7 -17.5t-17 -7.5h-170z" />
    <glyph glyph-name="threesuperior" unicode="&#xb3;" horiz-adv-x="323" 
d="M243 509q16 -14 26 -34.5t10 -43.5q0 -22 -9 -41t-25 -33.5t-37 -23t-45 -8.5q-23 0 -44 8.5t-36.5 23t-24.5 33.5t-9 41q0 11 7 18t18 7q10 0 17.5 -7t7.5 -18q0 -24 19 -40t45 -16q28 0 47 16t19 40q0 25 -19 41.5t-47 16.5q-10 0 -17 7t-7 18q0 10 7 17t17 7
q21 0 35.5 13t14.5 30t-14.5 29.5t-35.5 12.5q-20 0 -34 -12.5t-14 -29.5q0 -11 -7 -18t-18 -7q-10 0 -17 7t-7 18q0 19 7.5 35.5t21 29t31 19.5t37.5 7q42 0 70.5 -26.5t28.5 -64.5q0 -34 -21 -58z" />
    <glyph glyph-name="acute" unicode="&#xb4;" horiz-adv-x="313" 
d="M99 540q-14 0 -26 7.5t-19 19.5q-5 12 -5 23q0 13 7 25t21 19h-1l120 61q6 2 11 3.5t11 1.5q14 0 26.5 -7t18.5 -20q5 -12 5 -23q0 -14 -6.5 -25.5t-20.5 -19.5h1l-121 -59q-11 -6 -22 -6z" />
    <glyph glyph-name="mu" unicode="&#xb5;" horiz-adv-x="454" 
d="M365 465q21 0 36 -15t15 -35v-237q0 -5 -3 -31t-20 -56q-23 -45 -64.5 -68t-96.5 -23q-41 0 -84 15v-87q0 -20 -15 -35t-35 -15q-21 0 -36 15t-15 35v487q0 20 15 35t36 15q20 0 35 -15t15 -35v-237q0 -2 2.5 -16t10.5 -28q6 -11 22.5 -22.5t48.5 -11.5q18 0 30 3.5
t20.5 8.5t13.5 11.5t9 12.5q7 15 8.5 28t1.5 14v237q0 20 15 35t35 15z" />
    <glyph glyph-name="paragraph" unicode="&#xb6;" horiz-adv-x="486" 
d="M396 698q20 0 34.5 -14.5t14.5 -34.5v-600q0 -20 -14.5 -34.5t-34.5 -14.5q-21 0 -36 14.5t-15 34.5v253h-48v-251q0 -20 -14.5 -35t-34.5 -15t-35 15t-15 35v257q-32 10 -59.5 28.5t-47.5 44t-31.5 56t-11.5 63.5q0 41 16 77t43 63t63.5 42.5t77.5 15.5h148zM345 411
v189h-108v-200h98z" />
    <glyph glyph-name="onesuperior" unicode="&#xb9;" horiz-adv-x="181" 
d="M109 325q-11 0 -18 7.5t-7 17.5v275q-14 1 -24 8t-10 18q0 10 7 17t18 7h34q10 0 17.5 -7t7.5 -17v-301q0 -10 -7.5 -17.5t-17.5 -7.5z" />
    <glyph glyph-name="guillemotright" unicode="&#xbb;" horiz-adv-x="602" 
d="M549 385q15 -15 15 -35q0 -22 -15 -35l-180 -180q-15 -15 -35 -15q-17 0 -34 15q-14 13 -14 35q0 9 3 18t11 17l145 145l-145 145q-14 13 -14 35q0 9 3 18t11 17q17 15 34 15q20 0 35 -15zM312 385q14 -16 14 -36t-14 -34l-182 -180q-15 -15 -34 -15q-18 0 -35 15
q-14 13 -14 35q0 9 3 18t11 17l146 145l-146 145q-14 13 -14 35q0 9 3 18t11 17q17 15 34 15q11 0 19 -4t16 -11z" />
    <glyph glyph-name="onequarter" unicode="&#xbc;" horiz-adv-x="642" 
d="M519 693q11 -7 17 -18.5t6 -23.5q0 -17 -8 -28l-392 -600q-13 -23 -41 -23q-13 0 -27 8v-1q-11 7 -16.5 18.5t-5.5 23.5q0 14 8 28h-1l391 600q8 11 19 17t23 6q13 0 27 -8v1zM70 626q-10 1 -16.5 7.5t-6.5 17.5q0 10 7 17t17 7h33q11 0 18 -7t7 -17v-301q0 -10 -7 -17.5
t-18 -7.5q-10 0 -17 7.5t-7 17.5v266zM605 57q0 -11 -7.5 -18t-17.5 -7t-17.5 7t-7.5 18v126h-125q-11 0 -18 7.5t-7 17.5v118q0 11 7 18t18 7t18 -7t7 -18v-93h100v93q0 11 7.5 18t17.5 7t17.5 -7t7.5 -18v-269z" />
    <glyph glyph-name="onehalf" unicode="&#xbd;" horiz-adv-x="673" 
d="M520 693q11 -7 16.5 -18.5t5.5 -23.5q0 -15 -9 -28h1l-392 -600q-13 -23 -40 -23q-12 0 -28 8v-1q-11 7 -16.5 18.5t-5.5 23.5q0 16 8 27l390 601q7 11 18.5 17t24.5 6t27 -8v1zM549 149q-19 -11 -36.5 -32t-32.5 -43h132q10 0 17 -7t7 -18q0 -10 -7 -17t-17 -7h-169
q-6 0 -12 3t-9 8q-5 5 -5 14v6l3 5q3 6 10 21.5t19.5 34t30.5 38.5t42 36h-1q39 24 52.5 39.5t13.5 37.5q0 23 -17 40t-43 17t-42.5 -17t-16.5 -40q0 -11 -7.5 -18t-17.5 -7q-11 0 -18 7t-7 18q0 22 8.5 41.5t23.5 34t35 23t42 8.5t42 -8.5t35 -23t23.5 -34t8.5 -41.5
q0 -23 -7.5 -40.5t-20 -31.5t-28.5 -25.5t-32 -22.5zM70 626q-9 1 -16 7.5t-7 17.5q0 10 7 17t17 7h33q11 0 18.5 -7t7.5 -17v-301q0 -10 -7.5 -17.5t-18.5 -7.5q-10 0 -17.5 7.5t-7.5 17.5v266z" />
    <glyph glyph-name="threequarters" unicode="&#xbe;" horiz-adv-x="704" 
d="M580 693q11 -7 16 -18.5t5 -23.5q0 -14 -8 -28h1l-390 -600v1q-17 -24 -42 -24q-14 0 -28 8v-1q-11 7 -17 18.5t-6 23.5q0 16 8 27l391 601q7 11 18.5 17t24.5 6q11 0 27 -8v1zM276 434q0 -22 -9 -41t-24.5 -33.5t-36.5 -23t-44 -8.5q-24 0 -45 8.5t-37 23t-25 33.5
t-9 41q0 11 7.5 18t17.5 7t17.5 -7t7.5 -18q0 -24 19 -40t47 -16q26 0 45 16t19 40q0 23 -19 40.5t-45 17.5q-11 0 -18 7t-7 18q0 10 7 17t18 7q19 0 33.5 13t14.5 30t-14.5 29.5t-33.5 12.5q-21 0 -35.5 -12.5t-14.5 -29.5q0 -11 -7 -18t-18 -7q-10 0 -17 7t-7 18
q0 38 28.5 64.5t70.5 26.5q20 0 37.5 -7t31 -19.5t21 -29t7.5 -35.5q0 -35 -27 -65q20 -18 32 -40t12 -45zM668 49q0 -10 -7 -17t-18 -7q-10 0 -17 7t-7 17v128h-126q-10 0 -17.5 7t-7.5 18v118q0 11 7.5 18t17.5 7t17.5 -7t7.5 -18v-94h101v94q0 11 7 18t17 7q11 0 18 -7
t7 -18v-271z" />
    <glyph glyph-name="questiondown" unicode="&#xbf;" horiz-adv-x="500" 
d="M254 0q-43 0 -80.5 16.5t-65.5 44.5t-44 65.5t-16 79.5q0 35 11.5 67t32.5 58t49.5 45.5t61.5 29.5v35q0 20 15 34.5t36 14.5q20 0 34.5 -14.5t14.5 -34.5v-79q0 -20 -14.5 -35t-34.5 -15q-23 0 -42 -8.5t-33.5 -23t-22.5 -33.5t-8 -41t8.5 -41t23 -33.5t33.5 -23
t41 -8.5q27 0 44.5 8.5t28.5 22t18 30t12 33.5q7 23 17 42t36 19q20 0 35 -14.5t15 -34.5q0 -42 -16.5 -79.5t-44.5 -65.5t-65.5 -44.5t-79.5 -16.5zM257 600q-20 0 -35 15t-15 36q0 20 15 34.5t35 14.5t34.5 -14.5t14.5 -34.5q0 -21 -14.5 -36t-34.5 -15z" />
    <glyph glyph-name="Agrave" unicode="&#xc0;" horiz-adv-x="663" 
d="M397 746q-11 0 -23 5l-120 60q-14 6 -20.5 18.5t-6.5 26.5q0 11 5 23q5 11 18 18.5t28 7.5q13 0 21 -4q30 -15 60 -30.5t60 -30.5h-1q14 -7 21 -19t7 -25q0 -11 -5 -23q-6 -12 -18.5 -19.5t-25.5 -7.5zM623 68q3 -8 3 -19q0 -19 -13 -34t-36 -15q-14 0 -27 10t-20 22
l-47 118h-293l-48 -118q-6 -12 -19 -22t-27 -10q-22 0 -35.5 15.5t-13.5 33.5q0 11 3 19q57 145 119.5 300t120.5 300q7 13 19.5 22.5t27.5 9.5q14 0 26.5 -9.5t19.5 -22.5zM442 249l-105 268l-106 -268h211z" />
    <glyph glyph-name="Aacute" unicode="&#xc1;" horiz-adv-x="663" 
d="M276 746q-14 0 -26 7.5t-18 19.5q-5 12 -5 23q0 13 7 25t21 19h-1l120 61q5 2 10 3.5t12 1.5q14 0 26.5 -7t18.5 -20q5 -12 5 -23q0 -13 -7.5 -26t-19.5 -19l-120 -60q-12 -5 -23 -5zM290 668q7 13 19.5 22.5t26.5 9.5t27 -9.5t20 -22.5l240 -600q3 -8 3 -19
q0 -18 -13.5 -33.5t-35.5 -15.5q-14 0 -27 10t-20 22l-47 118h-293l-48 -118q-6 -12 -19 -22t-27 -10q-23 0 -36 15t-13 34q0 11 3 19zM230 249h212l-106 268z" />
    <glyph glyph-name="Acircumflex" unicode="&#xc2;" horiz-adv-x="663" 
d="M290 668q7 13 19.5 22.5t26.5 9.5t27 -9.5t20 -22.5l240 -600q3 -8 3 -19q0 -18 -13.5 -33.5t-35.5 -15.5q-14 0 -27 10t-20 22l-47 118h-293l-48 -118q-6 -12 -19 -22t-27 -10q-23 0 -36 15t-13 34q0 11 3 19zM230 249h212l-106 268zM336 906q12 0 24 -5l119 -61h-1
q13 -7 20.5 -18.5t7.5 -24.5q0 -11 -5 -24q-14 -27 -45 -27q-10 0 -22 5l-98 49l-97 -49q-10 -5 -23 -5q-14 0 -26 7.5t-18 19.5q-5 13 -5 24q0 13 7 24.5t21 18.5h-1l119 61q5 2 11.5 3.5t11.5 1.5z" />
    <glyph glyph-name="Atilde" unicode="&#xc3;" horiz-adv-x="663" 
d="M381 776q-17 0 -32 5.5t-28 12.5q-11 5 -20.5 8.5t-23.5 3.5q-8 -13 -20 -21.5t-26 -8.5q-20 0 -35 15t-15 35q0 10 5 24t17.5 26.5t34 21t54.5 8.5q17 0 31 -5t26 -12q11 -5 20.5 -9t26.5 -4q8 14 20 22t26 8q20 0 34.5 -15t14.5 -35q0 -43 -31.5 -61.5t-78.5 -18.5z
M623 68q3 -8 3 -19q0 -19 -13 -34t-36 -15q-14 0 -27 10t-20 22l-47 118h-293l-48 -118q-6 -12 -19 -22t-27 -10q-22 0 -35.5 15.5t-13.5 33.5q0 11 3 19q57 145 119.5 300t120.5 300q7 13 19.5 22.5t27.5 9.5q14 0 26.5 -9.5t19.5 -22.5zM442 249l-105 268l-106 -268h211z
" />
    <glyph glyph-name="Adieresis" unicode="&#xc4;" horiz-adv-x="663" 
d="M302 856q0 -20 -15 -35t-35 -15t-35 15t-15 35t15 35t35 15t35 -15t15 -35zM470 856q0 -20 -15 -35t-35 -15t-34.5 15t-14.5 35t14.5 35t34.5 15t35 -15t15 -35zM290 668q7 13 19.5 22.5t26.5 9.5t27 -9.5t20 -22.5l240 -600q3 -8 3 -19q0 -18 -13.5 -33.5t-35.5 -15.5
q-14 0 -27 10t-20 22l-47 118h-293l-48 -118q-6 -12 -19 -22t-27 -10q-23 0 -36 15t-13 34q0 11 3 19zM230 249h212l-106 268z" />
    <glyph glyph-name="Aring" unicode="&#xc5;" horiz-adv-x="663" 
d="M623 68q3 -8 3 -19q0 -19 -13 -34t-36 -15q-14 0 -27 10t-20 22l-47 118h-293l-48 -118q-6 -12 -19 -22t-27 -10q-22 0 -35.5 15.5t-13.5 33.5q0 11 3 19l219 550q-46 23 -74.5 64t-28.5 92q0 35 13.5 66t36.5 54t54 36.5t66 13.5t66 -13.5t54 -36.5t36.5 -54t13.5 -66
q0 -51 -28 -92t-75 -64zM336 844q-29 0 -49.5 -20.5t-20.5 -49.5t20.5 -50t49.5 -21q30 0 50.5 21t20.5 50t-20.5 49.5t-50.5 20.5zM442 249l-105 268l-106 -268h211z" />
    <glyph glyph-name="Egrave" unicode="&#xc8;" 
d="M338 746q-11 0 -23 5l-120 60q-14 6 -20.5 18.5t-6.5 26.5q0 11 5 23t18 19.5t27 7.5q10 0 22 -5q30 -15 60 -30.5t60 -30.5h-1q14 -7 21 -19t7 -25q0 -11 -5 -23q-6 -12 -18.5 -19.5t-25.5 -7.5zM457 100q21 0 36 -15t15 -36q0 -20 -15 -34.5t-36 -14.5h-360
q-20 0 -35 14.5t-15 34.5v602q0 20 15 34.5t35 14.5h360q21 0 36 -14.5t15 -34.5q0 -21 -15 -36t-36 -15h-310v-201h250q20 0 35 -14.5t15 -34.5t-15 -34.5t-35 -14.5h-250v-201h310z" />
    <glyph glyph-name="Eacute" unicode="&#xc9;" 
d="M217 746q-14 0 -26 7.5t-18 19.5q-5 12 -5 23q0 13 7 25t21 19h-1l120 61q5 2 10 3.5t12 1.5q14 0 26.5 -7t18.5 -20q5 -12 5 -23q0 -13 -7.5 -26t-19.5 -19l-120 -60q-12 -5 -23 -5zM457 100q21 0 36 -15t15 -36q0 -20 -15 -34.5t-36 -14.5h-360q-20 0 -35 14.5
t-15 34.5v602q0 20 15 34.5t35 14.5h360q21 0 36 -14.5t15 -34.5q0 -21 -15 -36t-36 -15h-310v-201h250q20 0 35 -14.5t15 -34.5t-15 -34.5t-35 -14.5h-250v-201h310z" />
    <glyph glyph-name="Ecircumflex" unicode="&#xca;" 
d="M277 906q5 0 12 -1.5t12 -3.5l119 -61h-1q14 -7 21 -18.5t7 -24.5q0 -11 -5 -24q-14 -27 -45 -27q-10 0 -22 5l-98 49l-97 -49q-10 -5 -22 -5q-14 0 -26 7.5t-19 19.5q-5 13 -5 24q0 13 7 24.5t21 18.5h-1l119 61q12 5 23 5zM457 100q21 0 36 -15t15 -36q0 -20 -15 -34.5
t-36 -14.5h-360q-20 0 -35 14.5t-15 34.5v602q0 20 15 34.5t35 14.5h360q21 0 36 -14.5t15 -34.5q0 -21 -15 -36t-36 -15h-310v-201h250q20 0 35 -14.5t15 -34.5t-15 -34.5t-35 -14.5h-250v-201h310z" />
    <glyph glyph-name="Edieresis" unicode="&#xcb;" 
d="M243 856q0 -20 -14.5 -35t-34.5 -15q-21 0 -36 15t-15 35t15 35t36 15q20 0 34.5 -15t14.5 -35zM411 856q0 -20 -15 -35t-35 -15t-34.5 15t-14.5 35t14.5 35t34.5 15t35 -15t15 -35zM457 100q21 0 36 -15t15 -36q0 -20 -15 -34.5t-36 -14.5h-360q-20 0 -35 14.5t-15 34.5
v602q0 20 15 34.5t35 14.5h360q21 0 36 -14.5t15 -34.5q0 -21 -15 -36t-36 -15h-310v-201h250q20 0 35 -14.5t15 -34.5t-15 -34.5t-35 -14.5h-250v-201h310z" />
    <glyph glyph-name="Igrave" unicode="&#xcc;" horiz-adv-x="203" 
d="M163 746q-10 0 -22 5l-121 60q-13 6 -20 18.5t-7 26.5q0 12 6 23q6 14 18 20.5t26 6.5q10 0 22 -5q31 -15 61 -30.5t60 -30.5q11 -7 19 -19t8 -24t-6 -24t-18 -19.5t-26 -7.5zM104 0q-21 0 -36 14.5t-15 34.5v602q0 20 15 34.5t36 14.5q20 0 34.5 -14.5t14.5 -34.5v-602
q0 -20 -14.5 -34.5t-34.5 -14.5z" />
    <glyph glyph-name="Iacute" unicode="&#xcd;" horiz-adv-x="203" 
d="M43 746q-14 0 -26 7.5t-18 19.5q-6 10 -6 23t7 25t21 19h-1l121 61q5 2 10 3.5t11 1.5q14 0 26.5 -7t18.5 -20q6 -11 6 -24t-7 -25t-21 -19h1l-121 -60q-12 -5 -22 -5zM104 0q-21 0 -36 14.5t-15 34.5v602q0 20 15 34.5t36 14.5q20 0 34.5 -14.5t14.5 -34.5v-602
q0 -20 -14.5 -34.5t-34.5 -14.5z" />
    <glyph glyph-name="Icircumflex" unicode="&#xce;" horiz-adv-x="320" 
d="M162 906q11 0 23 -5q30 -15 60 -30.5t60 -30.5q12 -6 19.5 -19t7.5 -26q0 -7 -1.5 -12t-3.5 -10v1q-7 -14 -19 -21t-25 -7q-11 0 -23 5l-98 49l-97 -49q-13 -5 -23 -5q-31 0 -44 27q-5 12 -5 23q0 28 27 44h-1l121 61q12 5 22 5zM162 0q-20 0 -34.5 14.5t-14.5 34.5v602
q0 20 14.5 34.5t34.5 14.5t35 -14.5t15 -34.5v-602q0 -20 -15 -34.5t-35 -14.5z" />
    <glyph glyph-name="Idieresis" unicode="&#xcf;" horiz-adv-x="250" 
d="M93 856q0 -20 -15 -35t-36 -15q-20 0 -34.5 15t-14.5 35t14.5 35t34.5 15q21 0 36 -15t15 -35zM261 856q0 -20 -15 -35t-35 -15q-21 0 -35.5 15t-14.5 35t14.5 35t35.5 15q20 0 35 -15t15 -35zM127 0q-20 0 -35 14.5t-15 34.5v602q0 20 15 34.5t35 14.5t34.5 -14.5
t14.5 -34.5v-602q0 -20 -14.5 -34.5t-34.5 -14.5z" />
    <glyph glyph-name="Eth" unicode="&#xd0;" horiz-adv-x="722" 
d="M540 655q25 -15 51 -39.5t47 -61.5t34.5 -87t13.5 -117t-13.5 -117t-34.5 -87t-47 -61.5t-51 -39.5q-27 -17 -52.5 -26t-46 -13t-34 -5t-16.5 -1h-175q-20 0 -34.5 14.5t-14.5 34.5v252h-71q-20 0 -35 14.5t-15 34.5t15 34.5t35 14.5h71v252q0 20 14.5 34.5t34.5 14.5
h175q3 0 16.5 -1t34 -5t46 -13.5t52.5 -25.5zM491 133q96 61 96 217q0 159 -99 220q-18 11 -35 17t-30.5 9t-22.5 3.5l-9 0.5h-126v-201h71q20 0 35 -14.5t15 -34.5t-15 -34.5t-35 -14.5h-71v-201h126q1 0 10 0.5t23 4t32 10t36 18.5h-1z" />
    <glyph glyph-name="Ntilde" unicode="&#xd1;" horiz-adv-x="605" 
d="M352 776q-17 0 -32.5 5.5t-27.5 12.5q-11 5 -21 8.5t-23 3.5q-8 -13 -20.5 -21.5t-26.5 -8.5q-20 0 -34.5 15t-14.5 35q0 10 5 24t17.5 26.5t33.5 21t54 8.5q17 0 31 -5t27 -12q11 -5 20.5 -9t25.5 -4q8 14 20 22t26 8q20 0 35 -15t15 -35q0 -43 -32 -61.5t-78 -18.5z
M517 0q-25 0 -41 22l-329 471v-444q0 -20 -15 -34.5t-36 -14.5q-20 0 -34.5 14.5t-14.5 34.5v602q0 19 14 34t36 15q25 0 41 -22l329 -471v444q0 20 15 34.5t35 14.5t35 -14.5t15 -34.5v-602q0 -20 -15 -34.5t-35 -14.5z" />
    <glyph glyph-name="Ograve" unicode="&#xd2;" horiz-adv-x="751" 
d="M382 0q-69 0 -130.5 27.5t-107 75t-72 111.5t-26.5 136t26.5 135.5t72 111.5t107 75.5t130.5 27.5t130 -27.5t106 -75.5t71.5 -111.5t26.5 -135.5t-26.5 -136t-71.5 -111.5t-106 -75t-130 -27.5zM146 350q0 -52 18.5 -97.5t50.5 -79.5t75 -53.5t92 -19.5q48 0 91 19.5
t74.5 53.5t50 79.5t18.5 97.5t-18.5 97.5t-50 79.5t-74.5 53.5t-91 19.5q-49 0 -92 -19.5t-75 -53.5t-50.5 -79.5t-18.5 -97.5zM298 811q-11 6 -19 19t-8 27q0 11 6 22q6 14 18 20.5t27 6.5q10 0 22 -5l120 -61h-1q13 -7 20.5 -19t7.5 -25q0 -7 -1.5 -12t-3.5 -11
q-7 -12 -19 -19.5t-26 -7.5q-10 0 -22 5z" />
    <glyph glyph-name="Oacute" unicode="&#xd3;" horiz-adv-x="751" 
d="M381 0q-69 0 -130 27.5t-106.5 75t-72 111.5t-26.5 136t26.5 135.5t72 111.5t106.5 75.5t130 27.5t130 -27.5t106.5 -75.5t72 -111.5t26.5 -135.5t-26.5 -136t-72 -111.5t-106.5 -75t-130 -27.5zM381 600q-49 0 -91.5 -19.5t-74.5 -53.5t-50.5 -79.5t-18.5 -97.5
t18.5 -97.5t50.5 -79.5t74.5 -53.5t91.5 -19.5t91.5 19.5t74.5 53.5t50.5 79.5t18.5 97.5t-18.5 97.5t-50.5 79.5t-74.5 53.5t-91.5 19.5zM322 746q-14 0 -26 7.5t-18 19.5q-6 10 -6 23t7.5 25t20.5 19h-1l120 61q12 5 22 5q32 0 46 -27q2 -5 3.5 -10t1.5 -12q0 -14 -8 -27
t-19 -19l-121 -60q-12 -5 -22 -5z" />
    <glyph glyph-name="Ocircumflex" unicode="&#xd4;" horiz-adv-x="751" 
d="M382 0q-69 0 -130.5 27.5t-107 75t-72 111.5t-26.5 136t26.5 135.5t72 111.5t107 75.5t130.5 27.5t130 -27.5t106 -75.5t71.5 -111.5t26.5 -135.5t-26.5 -136t-71.5 -111.5t-106 -75t-130 -27.5zM146 350q0 -52 18.5 -97.5t50.5 -79.5t75 -53.5t92 -19.5q48 0 91 19.5
t74.5 53.5t50 79.5t18.5 97.5t-18.5 97.5t-50 79.5t-74.5 53.5t-91 19.5q-49 0 -92 -19.5t-75 -53.5t-50.5 -79.5t-18.5 -97.5zM381 906q13 0 23 -5l120 -61h-1q13 -7 20 -18.5t7 -24.5q0 -11 -5 -24q-6 -13 -18 -20t-26 -7q-10 0 -23 5l-97 49l-97 -49q-10 -5 -23 -5
q-14 0 -26 7.5t-18 19.5q-5 13 -5 24q0 13 7 24.5t20 18.5h-1l120 61q10 5 23 5z" />
    <glyph glyph-name="Otilde" unicode="&#xd5;" horiz-adv-x="751" 
d="M382 0q-69 0 -130.5 27.5t-107 75t-72 111.5t-26.5 136t26.5 135.5t72 111.5t107 75.5t130.5 27.5t130 -27.5t106 -75.5t71.5 -111.5t26.5 -135.5t-26.5 -136t-71.5 -111.5t-106 -75t-130 -27.5zM146 350q0 -52 18.5 -97.5t50.5 -79.5t75 -53.5t92 -19.5q48 0 91 19.5
t74.5 53.5t50 79.5t18.5 97.5t-18.5 97.5t-50 79.5t-74.5 53.5t-91 19.5q-49 0 -92 -19.5t-75 -53.5t-50.5 -79.5t-18.5 -97.5zM426 776q-17 0 -32 5.5t-28 12.5q-11 5 -21 8.5t-23 3.5q-8 -13 -20 -21.5t-26 -8.5q-20 0 -35 15t-15 35q0 10 5 24t17.5 26.5t33.5 21t54 8.5
q17 0 31 -5t27 -12q11 -5 20.5 -9t25.5 -4q8 14 20.5 22t26.5 8q20 0 34.5 -15t14.5 -35q0 -43 -31.5 -61.5t-78.5 -18.5z" />
    <glyph glyph-name="Odieresis" unicode="&#xd6;" horiz-adv-x="751" 
d="M381 0q-69 0 -130 27.5t-106.5 75t-72 111.5t-26.5 136t26.5 135.5t72 111.5t106.5 75.5t130 27.5t130 -27.5t106.5 -75.5t72 -111.5t26.5 -135.5t-26.5 -136t-72 -111.5t-106.5 -75t-130 -27.5zM381 600q-49 0 -91.5 -19.5t-74.5 -53.5t-50.5 -79.5t-18.5 -97.5
t18.5 -97.5t50.5 -79.5t74.5 -53.5t91.5 -19.5t91.5 19.5t74.5 53.5t50.5 79.5t18.5 97.5t-18.5 97.5t-50.5 79.5t-74.5 53.5t-91.5 19.5zM348 856q0 -20 -15 -35t-35 -15q-21 0 -35.5 15t-14.5 35t14.5 35t35.5 15q20 0 35 -15t15 -35zM515 856q0 -20 -14.5 -35t-34.5 -15
t-34.5 15t-14.5 35t14.5 35t34.5 15t34.5 -15t14.5 -35z" />
    <glyph glyph-name="multiply" unicode="&#xd7;" horiz-adv-x="402" 
d="M345 279q14 -16 14 -35q0 -21 -14 -35q-13 -14 -35 -14q-19 0 -35 14l-71 70l-71 -70q-7 -7 -16.5 -10.5t-18.5 -3.5q-22 0 -35 14q-14 13 -14 35q0 9 3 18t11 17l70 71l-70 71q-14 14 -14 35q0 22 14 35q14 14 35 14q19 0 35 -14l71 -71l71 71q14 14 35 14
q9 0 18.5 -3.5t16.5 -10.5t10.5 -16.5t3.5 -18.5q0 -21 -14 -35l-71 -71z" />
    <glyph glyph-name="Oslash" unicode="&#xd8;" horiz-adv-x="751" 
d="M642 568q35 -45 54.5 -100.5t19.5 -117.5q0 -72 -26.5 -136t-72 -111.5t-106.5 -75t-130 -27.5q-48 0 -95 15t-89 42l-34 -38q-15 -19 -38 -19q-16 0 -32 12h1q-18 16 -18 38q0 17 12 32l36 44q-37 48 -57.5 105.5t-20.5 118.5q0 72 26.5 135.5t72 111.5t106.5 75.5
t130 27.5q49 0 95.5 -15t88.5 -41l33 37q15 19 39 19q15 0 32 -12h-1q18 -17 18 -38q0 -15 -12 -32l-32 -37v-13zM146 350q0 -36 11 -73.5t34 -72.5l309 362q-58 34 -119 34q-49 0 -91.5 -19.5t-74.5 -53.5t-50.5 -79.5t-18.5 -97.5zM381 100q49 0 91.5 19.5t74.5 53.5
t50.5 79.5t18.5 97.5q0 38 -11.5 75.5t-32.5 71.5l-310 -364q57 -33 119 -33z" />
    <glyph glyph-name="Ugrave" unicode="&#xd9;" horiz-adv-x="575" 
d="M352 746q-10 0 -23 5l-119 60q-19 8 -25.5 28t2.5 40q10 19 30.5 24.5t37.5 -2.5l120 -61h-1q18 -9 25 -28t-3 -39q-6 -12 -18 -19.5t-26 -7.5zM292 0q-75 0 -130 34t-86 100q-11 23 -16.5 44.5t-8.5 38.5t-3.5 28.5t-0.5 14.5v391q0 20 15 34.5t35 14.5t34.5 -14.5
t14.5 -34.5v-391q0 -4 1.5 -17.5t6.5 -31t15 -37.5t26 -36.5t40 -27t57 -10.5q48 0 76.5 21.5t43.5 49t20 54t5 35.5v391q0 20 15 34.5t35 14.5t34.5 -14.5t14.5 -34.5v-391q0 -3 -0.5 -14.5t-3.5 -28.5t-9 -38.5t-16 -44.5q-31 -66 -86 -100t-129 -34z" />
    <glyph glyph-name="Uacute" unicode="&#xda;" horiz-adv-x="575" 
d="M232 746q-14 0 -27 7.5t-19 19.5q-9 19 -2 39t25 28l119 61q19 9 38.5 2.5t28.5 -24.5q10 -19 3.5 -38.5t-24.5 -29.5l-120 -60q-5 -2 -11 -3.5t-11 -1.5zM291 0q-78 0 -132 34t-83 100q-11 23 -17 44t-8.5 38t-3 28.5t-0.5 15.5v391q0 20 15 34.5t35 14.5t34.5 -14.5
t14.5 -34.5v-391q0 -9 5 -35.5t20.5 -54t44 -49t75.5 -21.5q33 0 57 10.5t40 27t26 36.5t15 37.5t6.5 31t1.5 17.5v391q0 20 15 34.5t35 14.5t34.5 -14.5t14.5 -34.5v-391q0 -3 -0.5 -14.5t-3.5 -28.5t-9 -38.5t-16 -44.5q-31 -66 -86 -100t-130 -34z" />
    <glyph glyph-name="Ucircumflex" unicode="&#xdb;" horiz-adv-x="575" 
d="M291 906q5 0 12 -1.5t12 -3.5l119 -61h-1q19 -9 25.5 -28t-2.5 -39q-9 -18 -28.5 -24t-38.5 2l-98 49l-98 -49q-18 -9 -37.5 -2.5t-27.5 24.5q-10 20 -3.5 39t25.5 28h-1l120 61q5 2 11 3.5t11 1.5zM292 0q-75 0 -130 34t-86 100q-11 23 -16.5 44.5t-8.5 38.5t-3.5 28.5
t-0.5 14.5v391q0 20 15 34.5t35 14.5t34.5 -14.5t14.5 -34.5v-391q0 -4 1.5 -17.5t6.5 -31t15 -37.5t26 -36.5t40 -27t57 -10.5q48 0 76.5 21.5t43.5 49t20 54t5 35.5v391q0 20 15 34.5t35 14.5t34.5 -14.5t14.5 -34.5v-391q0 -3 -0.5 -14.5t-3.5 -28.5t-9 -38.5t-16 -44.5
q-31 -66 -86 -100t-129 -34z" />
    <glyph glyph-name="Udieresis" unicode="&#xdc;" horiz-adv-x="575" 
d="M258 856q0 -20 -14.5 -35t-35.5 -15q-20 0 -35 15t-15 35t15 35t35 15q21 0 35.5 -15t14.5 -35zM426 856q0 -20 -14.5 -35t-34.5 -15q-21 0 -36 15t-15 35t15 35t36 15q20 0 34.5 -15t14.5 -35zM291 0q-74 0 -129 34t-86 100q-11 23 -16.5 44.5t-8.5 38.5t-3.5 28.5
t-0.5 14.5v391q0 20 15 34.5t35 14.5t34.5 -14.5t14.5 -34.5v-391q0 -9 5 -35.5t20 -54t44 -49t77 -21.5q33 0 56.5 10.5t39.5 27t25.5 36.5t15 37.5t7 31t1.5 17.5v391q0 20 15 34.5t35 14.5t34.5 -14.5t14.5 -34.5v-391q0 -3 -0.5 -14.5t-3.5 -28.5t-9 -38.5t-16 -44.5
q-31 -66 -86 -100t-130 -34z" />
    <glyph glyph-name="germandbls" unicode="&#xdf;" 
d="M423 398q44 -29 66.5 -74.5t22.5 -105.5q0 -56 -18.5 -96t-47.5 -66t-65 -39t-71 -16v-1h-62q-20 0 -35 15t-15 35q0 21 15 36t35 15h60q8 1 25.5 5.5t35.5 16.5q4 3 11 8.5t14 16.5t12 28t5 42q0 22 -10.5 51t-39.5 49q-19 11 -38 13.5t-21 2.5h-54q-20 0 -35 15t-15 35
q0 22 15 36.5t35 14.5h15q1 0 17 1.5t33 11.5q13 7 25.5 22.5t12.5 50.5t-12.5 50.5t-25.5 23.5q-13 6 -25 8.5t-19 3.5l-1 1q-2 0 -5 -0.5t-4 -0.5h-112v-557q0 -20 -14.5 -35t-36.5 -15q-20 0 -35 15t-15 35v608q0 20 15 35t35 15h168q1 0 9.5 -0.5t21 -3t28 -7
t31.5 -12.5q47 -23 72 -65t25 -99q0 -63 -31 -108z" />
    <glyph glyph-name="agrave" unicode="&#xe0;" horiz-adv-x="488" 
d="M166 612h1q-14 8 -21 20t-7 25q0 12 5 24q6 13 19 20t27 7q6 0 11 -1.5t11 -3.5q30 -15 60.5 -31t60.5 -30h-1q14 -8 21.5 -19.5t7.5 -25.5q0 -6 -2 -12t-4 -11q-6 -13 -18.5 -20t-25.5 -7q-11 0 -23 5zM450 117v163q0 4 -2 23t-10.5 43.5t-24.5 50t-44 42.5
q-23 11 -52 18.5t-56 7.5h-13t-14 -1q-41 -5 -77.5 -19.5t-65.5 -40.5q-18 -14 -18 -38q0 -19 11 -33q17 -17 39 -17q8 0 16.5 2.5t15.5 8.5q17 14 46.5 26t61.5 12q31 0 57 -14q10 -6 17 -23.5t11 -37.5q-15 1 -36.5 2t-37.5 1q-29 0 -58 -3t-55.5 -10.5t-49.5 -21
t-39 -35.5q-25 -31 -25 -74q0 -17 4 -32q14 -56 54.5 -86t103.5 -30q38 0 74 9.5t68 26.5q8 -16 21.5 -26.5t28.5 -10.5q20 0 35 15t15 35zM336 162q-9 -15 -29 -31.5t-52 -23.5q-2 0 -4 -1q-4 -1 -15 -2.5t-27 -1.5q-23 0 -42.5 10.5t-19.5 35.5q0 13 12.5 21.5t32 13.5
t43 7t45.5 2q17 0 34.5 -1t31.5 -2z" />
    <glyph glyph-name="aacute" unicode="&#xe1;" horiz-adv-x="488" 
d="M188 547q-14 0 -26.5 7t-18.5 20q-5 12 -5 23q0 14 7 25.5t21 19.5h-1l122 61q5 2 10 3.5t11 1.5q14 0 27 -7t19 -20q5 -12 5 -24q0 -13 -7 -25t-21 -20h1l-121 -60q-13 -5 -23 -5zM450 117v163q0 4 -2 23t-10.5 43.5t-24.5 50t-44 42.5q-23 11 -52 18.5t-56 7.5h-13
t-14 -1q-41 -5 -77.5 -19.5t-65.5 -40.5q-18 -14 -18 -38q0 -19 11 -33q17 -17 39 -17q8 0 16.5 2.5t15.5 8.5q17 14 46.5 26t61.5 12q31 0 57 -14q10 -6 17 -23.5t11 -37.5q-15 1 -36.5 2t-37.5 1q-29 0 -58 -3t-55.5 -10.5t-49.5 -21t-39 -35.5q-25 -31 -25 -74
q0 -17 4 -32q14 -56 54.5 -86t103.5 -30q38 0 74 9.5t68 26.5q8 -16 21.5 -26.5t28.5 -10.5q20 0 35 15t15 35zM336 162q-9 -15 -29 -31.5t-52 -23.5q-2 0 -4 -1q-4 -1 -15 -2.5t-27 -1.5q-23 0 -42.5 10.5t-19.5 35.5q0 13 12.5 21.5t32 13.5t43 7t45.5 2q17 0 34.5 -1
t31.5 -2z" />
    <glyph glyph-name="acircumflex" unicode="&#xe2;" horiz-adv-x="488" 
d="M248 708q5 0 12 -1.5t12 -3.5l121 -61h-1q28 -16 28 -44q0 -11 -5 -24q-14 -27 -45 -27q-11 0 -23 5l-99 49l-98 -49q-10 -5 -23 -5q-31 0 -45 27q-5 13 -5 24q0 28 28 44h-1l121 61q5 2 11.5 3.5t11.5 1.5zM450 117v163q0 4 -2 23t-10.5 43.5t-24.5 50t-44 42.5
q-23 11 -52 18.5t-56 7.5h-13t-14 -1q-41 -5 -77.5 -19.5t-65.5 -40.5q-18 -14 -18 -38q0 -19 11 -33q17 -17 39 -17q8 0 16.5 2.5t15.5 8.5q17 14 46.5 26t61.5 12q31 0 57 -14q10 -6 17 -23.5t11 -37.5q-15 1 -36.5 2t-37.5 1q-29 0 -58 -3t-55.5 -10.5t-49.5 -21
t-39 -35.5q-25 -31 -25 -74q0 -17 4 -32q14 -56 54.5 -86t103.5 -30q38 0 74 9.5t68 26.5q8 -16 21.5 -26.5t28.5 -10.5q20 0 35 15t15 35zM336 162q-9 -15 -29 -31.5t-52 -23.5q-2 0 -4 -1q-4 -1 -15 -2.5t-27 -1.5q-23 0 -42.5 10.5t-19.5 35.5q0 13 12.5 21.5t32 13.5
t43 7t45.5 2q17 0 34.5 -1t31.5 -2z" />
    <glyph glyph-name="atilde" unicode="&#xe3;" horiz-adv-x="488" 
d="M294 577q-17 0 -32.5 5.5t-28.5 12.5q-11 5 -21 8.5t-23 3.5q-8 -13 -20.5 -21.5t-26.5 -8.5q-20 0 -35 15t-15 35q0 10 5 24t17.5 27t34 21.5t54.5 8.5q17 0 31.5 -5t27.5 -11q11 -6 20.5 -10t25.5 -4q8 14 20.5 22t26.5 8q20 0 35 -15t15 -35q0 -22 -8.5 -37.5
t-23.5 -25t-35.5 -14t-43.5 -4.5zM450 117v163q0 4 -2 23t-10.5 43.5t-24.5 50t-44 42.5q-23 11 -52 18.5t-56 7.5h-13t-14 -1q-41 -5 -77.5 -19.5t-65.5 -40.5q-18 -14 -18 -38q0 -19 11 -33q17 -17 39 -17q8 0 16.5 2.5t15.5 8.5q17 14 46.5 26t61.5 12q31 0 57 -14
q10 -6 17 -23.5t11 -37.5q-15 1 -36.5 2t-37.5 1q-29 0 -58 -3t-55.5 -10.5t-49.5 -21t-39 -35.5q-25 -31 -25 -74q0 -17 4 -32q14 -56 54.5 -86t103.5 -30q38 0 74 9.5t68 26.5q8 -16 21.5 -26.5t28.5 -10.5q20 0 35 15t15 35zM336 162q-9 -15 -29 -31.5t-52 -23.5
q-2 0 -4 -1q-4 -1 -15 -2.5t-27 -1.5q-23 0 -42.5 10.5t-19.5 35.5q0 13 12.5 21.5t32 13.5t43 7t45.5 2q17 0 34.5 -1t31.5 -2z" />
    <glyph glyph-name="adieresis" unicode="&#xe4;" horiz-adv-x="488" 
d="M215 598q0 -21 -15 -36t-35 -15q-21 0 -36 15t-15 36q0 20 15 35t36 15q20 0 35 -15t15 -35zM384 598q0 -21 -14.5 -36t-35.5 -15q-20 0 -35 15t-15 36q0 20 15 35t35 15q21 0 35.5 -15t14.5 -35zM450 117v163q0 4 -2 23t-10.5 43.5t-24.5 50t-44 42.5q-23 11 -52 18.5
t-56 7.5h-13t-14 -1q-41 -5 -77.5 -19.5t-65.5 -40.5q-18 -14 -18 -38q0 -19 11 -33q17 -17 39 -17q8 0 16.5 2.5t15.5 8.5q17 14 46.5 26t61.5 12q31 0 57 -14q10 -6 17 -23.5t11 -37.5q-15 1 -36.5 2t-37.5 1q-29 0 -58 -3t-55.5 -10.5t-49.5 -21t-39 -35.5
q-25 -31 -25 -74q0 -17 4 -32q14 -56 54.5 -86t103.5 -30q38 0 74 9.5t68 26.5q8 -16 21.5 -26.5t28.5 -10.5q20 0 35 15t15 35zM336 162q-9 -15 -29 -31.5t-52 -23.5q-2 0 -4 -1q-4 -1 -15 -2.5t-27 -1.5q-23 0 -42.5 10.5t-19.5 35.5q0 13 12.5 21.5t32 13.5t43 7t45.5 2
q17 0 34.5 -1t31.5 -2z" />
    <glyph glyph-name="ae" unicode="&#xe6;" horiz-adv-x="780" 
d="M752 243q0 -20 -15 -35t-35 -15h-249q14 -36 38.5 -63t60.5 -29q2 0 10.5 1t20.5 4.5t26 12t28 23.5q15 16 37 16q19 0 33 -12q17 -16 17 -39q0 -20 -12 -33q-31 -33 -73 -53.5t-90 -20.5q-45 0 -84.5 23.5t-71.5 63.5q-29 -39 -72 -63t-94 -24q-38 0 -71.5 12.5
t-58 33.5t-39 49.5t-14.5 60.5q0 33 14.5 61.5t39 50t58 34t71.5 12.5q29 0 59.5 -10.5t61.5 -28.5v90h-193q-21 0 -36 14.5t-15 35.5t15 36t36 15h243q14 0 25.5 -9t21.5 -25q53 34 105 34q40 0 78 -18.5t67 -47.5q26 -31 41.5 -71.5t15.5 -85.5zM227 101q15 0 30 4
t26.5 11.5t19 17.5t7.5 22t-7.5 22.5t-19 18t-26.5 12t-30 4.5t-29.5 -4.5t-26 -12t-19 -18t-7.5 -22.5t7.5 -22t19 -17.5t26 -11.5t29.5 -4zM644 293q-17 32 -41 52t-53 20q-26 0 -50 -20t-41 -52h185z" />
    <glyph glyph-name="egrave" unicode="&#xe8;" horiz-adv-x="488" 
d="M166 612h1q-14 8 -21 20t-7 25q0 12 5 24q6 13 19 20t27 7q6 0 11 -1.5t11 -3.5q30 -15 60.5 -31t60.5 -30h-1q14 -8 21.5 -19.5t7.5 -25.5q0 -6 -2 -12t-4 -11q-6 -13 -18.5 -20t-25.5 -7q-11 0 -23 5zM264 0q-13 0 -17 1q-46 2 -85 21t-65 52q-50 64 -50 159
q0 48 16 90.5t43.5 74t64 50t78.5 18.5q85 0 145 -66q28 -31 42.5 -71t14.5 -85q0 -21 -15 -36t-35 -15h-251q5 -16 13.5 -32t20.5 -29t28.5 -21.5t38.5 -9.5h6q13 0 33.5 2.5t42.5 17.5q16 8 29 8t25.5 -7t20.5 -21q5 -4 5 -21q0 -26 -24 -44q-35 -23 -69.5 -29.5
t-55.5 -6.5zM344 294q-17 32 -41.5 52t-53.5 20q-25 0 -49.5 -20t-41.5 -52h186z" />
    <glyph glyph-name="eacute" unicode="&#xe9;" horiz-adv-x="488" 
d="M188 547q-14 0 -26.5 7t-18.5 20q-5 12 -5 23q0 14 7 25.5t21 19.5h-1l122 61q5 2 10 3.5t11 1.5q14 0 27 -7t19 -20q5 -12 5 -24q0 -13 -7 -25t-21 -20h1l-121 -60q-13 -5 -23 -5zM264 0q-13 0 -17 1q-46 2 -85 21t-65 52q-50 64 -50 159q0 48 16 90.5t43.5 74t64 50
t78.5 18.5q85 0 145 -66q28 -31 42.5 -71t14.5 -85q0 -21 -15 -36t-35 -15h-251q5 -16 13.5 -32t20.5 -29t28.5 -21.5t38.5 -9.5h6q13 0 33.5 2.5t42.5 17.5q16 8 29 8t25.5 -7t20.5 -21q5 -4 5 -21q0 -26 -24 -44q-35 -23 -69.5 -29.5t-55.5 -6.5zM344 294q-17 32 -41.5 52
t-53.5 20q-25 0 -49.5 -20t-41.5 -52h186z" />
    <glyph glyph-name="ecircumflex" unicode="&#xea;" horiz-adv-x="488" 
d="M248 708q5 0 12 -1.5t12 -3.5l121 -61h-1q28 -16 28 -44q0 -11 -5 -24q-14 -27 -45 -27q-11 0 -23 5l-99 49l-98 -49q-10 -5 -23 -5q-31 0 -45 27q-5 13 -5 24q0 28 28 44h-1l121 61q5 2 11.5 3.5t11.5 1.5zM264 0q-13 0 -17 1q-46 2 -85 21t-65 52q-50 64 -50 159
q0 48 16 90.5t43.5 74t64 50t78.5 18.5q85 0 145 -66q28 -31 42.5 -71t14.5 -85q0 -21 -15 -36t-35 -15h-251q5 -16 13.5 -32t20.5 -29t28.5 -21.5t38.5 -9.5h6q13 0 33.5 2.5t42.5 17.5q16 8 29 8t25.5 -7t20.5 -21q5 -4 5 -21q0 -26 -24 -44q-35 -23 -69.5 -29.5
t-55.5 -6.5zM344 294q-17 32 -41.5 52t-53.5 20q-25 0 -49.5 -20t-41.5 -52h186z" />
    <glyph glyph-name="edieresis" unicode="&#xeb;" horiz-adv-x="488" 
d="M215 598q0 -21 -15 -36t-35 -15q-21 0 -36 15t-15 36q0 20 15 35t36 15q20 0 35 -15t15 -35zM384 598q0 -21 -14.5 -36t-35.5 -15q-20 0 -35 15t-15 36q0 20 15 35t35 15q21 0 35.5 -15t14.5 -35zM264 0q-13 0 -17 1q-46 2 -85 21t-65 52q-50 64 -50 159q0 48 16 90.5
t43.5 74t64 50t78.5 18.5q85 0 145 -66q28 -31 42.5 -71t14.5 -85q0 -21 -15 -36t-35 -15h-251q5 -16 13.5 -32t20.5 -29t28.5 -21.5t38.5 -9.5h6q13 0 33.5 2.5t42.5 17.5q16 8 29 8t25.5 -7t20.5 -21q5 -4 5 -21q0 -26 -24 -44q-35 -23 -69.5 -29.5t-55.5 -6.5zM344 294
q-17 32 -41.5 52t-53.5 20q-25 0 -49.5 -20t-41.5 -52h186z" />
    <glyph glyph-name="igrave" unicode="&#xec;" horiz-adv-x="313" 
d="M76 612h1q-14 8 -21 20t-7 25q0 12 5 24q6 13 19 20t27 7q6 0 11 -1.5t11 -3.5q30 -15 60.5 -31t61.5 -30h-1q28 -16 28 -45q0 -13 -6 -23q-6 -13 -18.5 -20t-25.5 -7q-11 0 -23 5zM108 415q0 21 15 36t36 15q20 0 35 -15t15 -36v-365q0 -20 -15 -35t-35 -15
q-21 0 -36 15t-15 35v365z" />
    <glyph glyph-name="iacute" unicode="&#xed;" horiz-adv-x="313" 
d="M99 547q-14 0 -26.5 7t-18.5 20q-5 12 -5 23q0 14 7 25.5t21 19.5h-1l122 61q5 2 10 3.5t12 1.5q14 0 26.5 -7t18.5 -20q6 -11 6 -24t-7 -25t-21 -20h1l-122 -60q-13 -5 -23 -5zM159 0q-20 0 -35 15t-15 35v365q0 21 15 36t35 15q21 0 36 -15t15 -36v-365q0 -20 -15 -35
t-36 -15z" />
    <glyph glyph-name="icircumflex" unicode="&#xee;" horiz-adv-x="429" 
d="M218 708q14 0 24 -5l121 -61h-1q28 -16 28 -44q0 -11 -5 -24q-6 -14 -18.5 -20.5t-26.5 -6.5q-10 0 -23 5l-99 49l-97 -49q-12 -5 -23 -5q-14 0 -26.5 7t-18.5 20q-5 13 -5 24q0 28 28 44h-1l121 61q5 2 11 3.5t11 1.5zM168 415q0 21 15 36t36 15t35.5 -15t14.5 -36v-365
q0 -20 -14.5 -35t-35.5 -15t-36 15t-15 35v365z" />
    <glyph glyph-name="idieresis" unicode="&#xef;" horiz-adv-x="360" 
d="M149 598q0 -21 -15 -36t-35 -15q-21 0 -36 15t-15 36q0 20 15 35t36 15q20 0 35 -15t15 -35zM319 598q0 -21 -15 -36t-35 -15t-35 15t-15 36q0 20 15 35t35 15t35 -15t15 -35zM183 0q-20 0 -35 15t-15 35v365q0 21 15 36t35 15q21 0 36 -15t15 -36v-365q0 -20 -15 -35
t-36 -15z" />
    <glyph glyph-name="ntilde" unicode="&#xf1;" horiz-adv-x="488" 
d="M294 577q-17 0 -32.5 5.5t-28.5 12.5q-11 5 -21 8.5t-23 3.5q-8 -13 -20.5 -21.5t-26.5 -8.5q-20 0 -35 15t-15 35q0 10 5 24t17.5 27t34 21.5t54.5 8.5q17 0 31.5 -5t27.5 -11q11 -6 20.5 -10t25.5 -4q8 14 20.5 22t26.5 8q20 0 35 -15t15 -35q0 -22 -8.5 -37.5
t-23.5 -25t-35.5 -14t-43.5 -4.5zM401 466q-20 0 -35 -15t-15 -36v-224l-215 257q-8 6 -18 12t-20 6q-5 0 -10 -0.5t-9 -2.5q-15 -6 -23.5 -19t-8.5 -29v-365q0 -20 15 -35t35 -15q21 0 36 15t15 35v226l215 -258q7 -7 17.5 -12.5t19.5 -5.5q10 0 18 3q15 5 24 18t9 29v365
q0 21 -15 36t-35 15z" />
    <glyph glyph-name="ograve" unicode="&#xf2;" 
d="M196 612h1q-14 8 -21 20t-7 25t6 24q6 13 18.5 20t26.5 7q7 0 12 -1.5t10 -3.5q31 -15 61 -31t61 -30h-1q14 -8 21 -19.5t7 -25.5q0 -11 -5 -23q-6 -13 -18.5 -20t-26.5 -7q-10 0 -23 5zM279 466q-48 0 -90.5 -18.5t-74 -50.5t-50 -74.5t-18.5 -90.5t18.5 -90.5t50 -74
t74 -49.5t90.5 -18t90.5 18t74 49.5t50 74t18.5 90.5t-18.5 90.5t-50 74.5t-74 50.5t-90.5 18.5zM279 101q-27 0 -51 10t-42 28t-28.5 42t-10.5 51q0 28 10.5 52t28.5 42t42 28.5t51 10.5q28 0 52 -10.5t42 -28.5t28 -42t10 -52q0 -27 -10 -51t-28 -42t-42 -28t-52 -10z" />
    <glyph glyph-name="oacute" unicode="&#xf3;" 
d="M218 547q-14 0 -26 7t-19 20q-5 12 -5 23q0 29 28 45h-1l122 61q6 2 11 3.5t11 1.5q14 0 27 -7t19 -20q5 -12 5 -24q0 -13 -7 -25t-21 -20h1l-122 -60q-12 -5 -23 -5zM279 466q-48 0 -90.5 -18.5t-74 -50.5t-50 -74.5t-18.5 -90.5t18.5 -90.5t50 -74t74 -49.5t90.5 -18
t90.5 18t74 49.5t50 74t18.5 90.5t-18.5 90.5t-50 74.5t-74 50.5t-90.5 18.5zM279 101q-27 0 -51 10t-42 28t-28.5 42t-10.5 51q0 28 10.5 52t28.5 42t42 28.5t51 10.5q28 0 52 -10.5t42 -28.5t28 -42t10 -52q0 -27 -10 -51t-28 -42t-42 -28t-52 -10z" />
    <glyph glyph-name="ocircumflex" unicode="&#xf4;" 
d="M279 708q12 0 24 -5l120 -61h-1q29 -16 29 -44q0 -6 -2 -12l-4 -12q-6 -14 -18 -20.5t-26 -6.5q-11 0 -23 5l-99 49l-98 -49q-10 -5 -23 -5q-14 0 -26.5 7t-18.5 20q-5 13 -5 24q0 28 28 44h-1l121 61q10 5 23 5zM279 466q-48 0 -90.5 -18.5t-74 -50.5t-50 -74.5
t-18.5 -90.5t18.5 -90.5t50 -74t74 -49.5t90.5 -18t90.5 18t74 49.5t50 74t18.5 90.5t-18.5 90.5t-50 74.5t-74 50.5t-90.5 18.5zM279 101q-27 0 -51 10t-42 28t-28.5 42t-10.5 51q0 28 10.5 52t28.5 42t42 28.5t51 10.5q28 0 52 -10.5t42 -28.5t28 -42t10 -52
q0 -27 -10 -51t-28 -42t-42 -28t-52 -10z" />
    <glyph glyph-name="otilde" unicode="&#xf5;" 
d="M325 577q-17 0 -32.5 5.5t-28.5 12.5q-11 5 -21 8.5t-24 3.5q-8 -13 -20.5 -21.5t-26.5 -8.5q-20 0 -35 15t-15 35q0 10 5 24t17.5 27t34.5 21.5t55 8.5q17 0 31.5 -5t26.5 -11q11 -6 20.5 -10t26.5 -4q8 14 20.5 22t26.5 8q20 0 35 -15t15 -35q0 -22 -8.5 -37.5
t-23.5 -25t-35.5 -14t-43.5 -4.5zM279 466q-48 0 -90.5 -18.5t-74 -50.5t-50 -74.5t-18.5 -90.5t18.5 -90.5t50 -74t74 -49.5t90.5 -18t90.5 18t74 49.5t50 74t18.5 90.5t-18.5 90.5t-50 74.5t-74 50.5t-90.5 18.5zM279 101q-27 0 -51 10t-42 28t-28.5 42t-10.5 51
q0 28 10.5 52t28.5 42t42 28.5t51 10.5q28 0 52 -10.5t42 -28.5t28 -42t10 -52q0 -27 -10 -51t-28 -42t-42 -28t-52 -10z" />
    <glyph glyph-name="odieresis" unicode="&#xf6;" 
d="M245 598q0 -21 -15 -36t-35 -15q-21 0 -36 15t-15 36q0 20 15 35t36 15q20 0 35 -15t15 -35zM415 598q0 -21 -15 -36t-35 -15t-35 15t-15 36q0 20 15 35t35 15t35 -15t15 -35zM279 466q-48 0 -90.5 -18.5t-74 -50.5t-50 -74.5t-18.5 -90.5t18.5 -90.5t50 -74t74 -49.5
t90.5 -18t90.5 18t74 49.5t50 74t18.5 90.5t-18.5 90.5t-50 74.5t-74 50.5t-90.5 18.5zM279 101q-27 0 -51 10t-42 28t-28.5 42t-10.5 51q0 28 10.5 52t28.5 42t42 28.5t51 10.5q28 0 52 -10.5t42 -28.5t28 -42t10 -52q0 -27 -10 -51t-28 -42t-42 -28t-52 -10z" />
    <glyph glyph-name="oslash" unicode="&#xf8;" horiz-adv-x="518" 
d="M469 84q13 -13 13 -34q0 -22 -17 -38q-14 -12 -34 -12q-10 0 -19.5 4t-17.5 13l-17 17q-57 -34 -113 -34q-45 0 -84.5 18t-69 49.5t-46.5 74t-17 90.5q0 64 35 125l-22 24q-13 14 -13 35t15 35q16 14 36 14q21 0 37 -16l17 -18q26 17 55 26t57 9q45 0 84.5 -18.5
t69.5 -50.5t47 -74.5t17 -90.5q0 -31 -9 -62.5t-26 -62.5zM264 365q-15 0 -45 -8l158 -173q2 14 3 25.5t1 22.5q0 28 -9.5 52t-25 42t-37 28.5t-45.5 10.5zM264 101q18 0 46 7l-157 171q-2 -14 -3.5 -26.5t-1.5 -20.5q0 -27 9.5 -51t25 -42t36.5 -28t45 -10z" />
    <glyph glyph-name="ugrave" unicode="&#xf9;" horiz-adv-x="454" 
d="M98 466q20 0 35 -15t15 -36v-237q0 -2 2.5 -16t10.5 -28q6 -11 22 -22t49 -11q34 0 49 11t22 22q8 14 10 28t2 16v237q0 21 15 36t35 15q21 0 36 -15t15 -36v-237q0 -5 -3 -30.5t-20 -55.5q-23 -45 -64.5 -68.5t-96.5 -23.5q-56 0 -97.5 23.5t-64.5 68.5q-17 30 -20 55.5
t-3 30.5v237q0 21 15 36t36 15zM148 612h1q-14 8 -21 20t-7 25t6 24q6 13 18.5 20t26.5 7q7 0 12 -1.5t10 -3.5q31 -15 61 -31t61 -30h-1q14 -8 21 -19.5t7 -25.5q0 -11 -5 -23q-6 -13 -18.5 -20t-26.5 -7q-10 0 -23 5z" />
    <glyph glyph-name="uacute" unicode="&#xfa;" horiz-adv-x="454" 
d="M170 547q-14 0 -26 7t-19 20q-5 12 -5 23q0 29 28 45h-1l122 61q6 2 11 3.5t11 1.5q14 0 27 -7t19 -20q5 -12 5 -24q0 -13 -7 -25t-21 -20h1l-122 -60q-12 -5 -23 -5zM365 466q-20 0 -35 -15t-15 -36v-237q0 -2 -2 -16t-10 -28q-7 -11 -22 -22t-49 -11q-35 0 -49.5 11
t-22.5 22q-8 15 -10 28.5t-2 15.5v237q0 21 -15 36t-36 15q-20 0 -35 -15t-15 -36v-237q0 -5 3 -30.5t20 -55.5q23 -45 64.5 -68.5t97.5 -23.5q55 0 96.5 23.5t64.5 68.5q16 30 19 55.5t3 30.5v237q0 21 -15 36t-35 15z" />
    <glyph glyph-name="ucircumflex" unicode="&#xfb;" horiz-adv-x="454" 
d="M231 708q12 0 24 -5l120 -61h-1q29 -16 29 -44q0 -6 -2 -12l-4 -12q-6 -14 -18 -20.5t-26 -6.5q-11 0 -23 5l-99 49l-98 -49q-10 -5 -23 -5q-14 0 -26.5 7t-18.5 20q-5 13 -5 24q0 28 28 44h-1l121 61q10 5 23 5zM365 466q-20 0 -35 -15t-15 -36v-237q0 -2 -2 -16
t-10 -28q-7 -11 -22 -22t-49 -11q-35 0 -49.5 11t-22.5 22q-8 15 -10 28.5t-2 15.5v237q0 21 -15 36t-36 15q-20 0 -35 -15t-15 -36v-237q0 -5 3 -30.5t20 -55.5q23 -45 64.5 -68.5t97.5 -23.5q55 0 96.5 23.5t64.5 68.5q16 30 19 55.5t3 30.5v237q0 21 -15 36t-35 15z" />
    <glyph glyph-name="udieresis" unicode="&#xfc;" horiz-adv-x="454" 
d="M197 598q0 -21 -15 -36t-35 -15q-21 0 -36 15t-15 36q0 20 15 35t36 15q20 0 35 -15t15 -35zM367 598q0 -21 -15 -36t-35 -15t-35 15t-15 36q0 20 15 35t35 15t35 -15t15 -35zM365 466q-20 0 -35 -15t-15 -36v-237q0 -2 -2 -16t-10 -28q-7 -11 -22 -22t-49 -11
q-35 0 -49.5 11t-22.5 22q-8 15 -10 28.5t-2 15.5v237q0 21 -15 36t-36 15q-20 0 -35 -15t-15 -36v-237q0 -5 3 -30.5t19 -56.5q23 -45 65 -68t98 -23q55 0 96.5 23.5t64.5 68.5q16 30 19 55.5t3 30.5v237q0 21 -15 36t-35 15z" />
    <glyph glyph-name="yacute" unicode="&#xfd;" horiz-adv-x="529" 
d="M209 562q-14 0 -26 7.5t-19 20.5q-5 12 -5 22q0 14 7 26t21 19h-1l122 62q12 5 22 5q14 0 26.5 -7t19.5 -20q5 -12 5 -23q0 -14 -8 -27t-19 -19l-122 -60q-5 -2 -11 -4t-12 -2zM488 393q2 5 3.5 10t1.5 12q0 14 -7 26.5t-21 18.5q-11 6 -22 6q-13 0 -25.5 -9t-19.5 -21
l-127 -268l-129 268q-6 14 -18.5 22t-26.5 8q-12 0 -22 -6q-14 -6 -21 -18.5t-7 -26.5q0 -7 1.5 -12t3.5 -10l161 -341l-101 -224q-4 -8 -4 -21q0 -14 7 -26.5t21 -19.5q5 -2 11 -3t11 -1q14 0 26 8.5t20 20.5l104 232l8 12z" />
    <glyph glyph-name="ydieresis" unicode="&#xff;" horiz-adv-x="529" 
d="M236 614q0 -22 -15 -37t-35 -15q-21 0 -36 15t-15 37q0 20 15 35t36 15q20 0 35 -15t15 -35zM406 614q0 -22 -15 -37t-35 -15t-35 15t-15 37q0 20 15 35t35 15t35 -15t15 -35zM488 393q2 5 3.5 10t1.5 12q0 14 -7 26.5t-21 18.5q-11 6 -22 6q-13 0 -25.5 -9t-19.5 -21
l-127 -268l-129 268q-6 14 -18.5 22t-26.5 8q-12 0 -22 -6q-14 -6 -21 -18.5t-7 -26.5q0 -7 1.5 -12t3.5 -10l161 -341l-101 -224q-4 -8 -4 -21q0 -14 7 -26.5t21 -19.5q5 -2 11 -3t11 -1q14 0 26 8.5t20 20.5l104 232l8 12z" />
    <glyph glyph-name="dotlessi" unicode="&#x131;" horiz-adv-x="282" 
d="M190 461q20 0 34.5 -14.5t14.5 -35.5v-361q0 -20 -14.5 -35t-34.5 -15t-35 15t-15 35v311h-41q-20 0 -35 15t-15 35q0 21 15 35.5t35 14.5h91v0z" />
    <glyph glyph-name="ij" unicode="&#x133;" horiz-adv-x="430" 
d="M341 466q20 0 35 -15t15 -35v-487q0 -5 -3 -29.5t-17 -53.5q-22 -43 -61 -66t-91 -23q-20 0 -35 15t-15 35q0 21 15 36t35 15q29 0 42 10t20 23q6 12 8 25q1 6 1 13v436h-141v-314q0 -21 -15 -36t-36 -15q-20 0 -35 15t-15 36v365q0 20 15 35t35 15h243zM98 648
q21 0 36 -15t15 -36q0 -20 -15 -35t-36 -15q-20 0 -35 15t-15 35q0 21 15 36t35 15zM341 648q20 0 35 -15t15 -36q0 -20 -15 -35t-35 -15q-21 0 -36 15t-15 35q0 21 15 36t36 15z" />
    <glyph glyph-name="omacron" unicode="&#x14d;" horiz-adv-x="576" 
d="M294 526q51 0 96 -21t79 -57t53.5 -84t19.5 -102t-19.5 -101.5t-53.5 -83.5t-79 -56.5t-96 -20.5t-96 20.5t-79 56.5t-53.5 83.5t-19.5 101.5t19.5 102t53.5 84t79 57t96 21zM294 101q30 0 56.5 12.5t47 34.5t32 51.5t11.5 62.5q0 34 -11.5 64t-32 52t-47 34.5
t-56.5 12.5q-31 0 -57.5 -12.5t-46.5 -34.5t-31.5 -52t-11.5 -64q0 -33 11.5 -62.5t31.5 -51.5t46.5 -34.5t57.5 -12.5zM126 607q-20 0 -35 15t-15 36q0 20 15 35t35 15h335q21 0 36 -15t15 -35q0 -21 -15 -36t-36 -15h-335z" />
    <glyph glyph-name="oe" unicode="&#x153;" horiz-adv-x="848" 
d="M822 244q0 -21 -15 -36t-35 -15h-251q5 -16 13.5 -32t20.5 -29t28.5 -21.5t38.5 -9.5h7q12 0 33 2.5t43 17.5q14 8 28 8q29 0 47 -28q4 -4 4 -21q0 -12 -6 -24t-18 -20q-35 -23 -69.5 -29.5t-55.5 -6.5q-13 0 -17 1q-94 5 -150 73l-12 12q-35 -40 -82 -63t-98 -23
q-48 0 -90.5 18t-74 49.5t-50 74t-18.5 90.5t18.5 90.5t50 74.5t74 50.5t90.5 18.5q51 0 99 -25t85 -67q32 42 73.5 67t86.5 25q42 0 79 -17t66 -49q29 -31 43 -71t14 -85zM276 101q27 0 51 10t42 28t28.5 42t10.5 51q0 28 -10.5 52t-28.5 42t-42 28.5t-51 10.5t-51 -10.5
t-42 -28.5t-28.5 -42t-10.5 -52q0 -27 10.5 -51t28.5 -42t42 -28t51 -10zM715 294q-17 32 -41.5 52t-53.5 20q-25 0 -49 -20t-41 -52h185z" />
    <glyph glyph-name="Ydieresis" unicode="&#x178;" horiz-adv-x="605" 
d="M545 691q22 -16 22 -40q0 -17 -9 -29l-201 -287v-286q0 -20 -15 -34.5t-36 -14.5q-20 0 -34.5 14.5t-14.5 34.5v286l-201 287q-9 12 -9 25q0 20 13 36.5t36 16.5q26 0 42 -22l168 -241l170 241q16 22 41 22q16 0 28 -9zM272 856q0 -20 -14.5 -35t-34.5 -15
q-21 0 -35.5 15t-14.5 35t14.5 35t35.5 15q20 0 34.5 -15t14.5 -35zM440 856q0 -20 -14.5 -35t-34.5 -15t-35 15t-15 35t15 35t35 15t34.5 -15t14.5 -35z" />
    <glyph glyph-name="zcaron" unicode="&#x17e;" horiz-adv-x="488" 
d="M249 562q-6 0 -12 2l-12 4l-121 61h1q-28 16 -28 44q0 12 5 24q7 14 19 20.5t26 6.5q11 0 23 -5l99 -49l98 49q10 5 23 5q14 0 26 -7t19 -20q5 -12 5 -24q0 -28 -28 -44h1l-121 -61q-5 -2 -11.5 -4t-11.5 -2zM249 122l207 248q16 17 16 46q0 12 -6 29q-21 41 -65 41h-304
q-30 0 -50.5 -20.5t-20.5 -50.5t20.5 -50.5t50.5 -20.5h152l-207 -248q-16 -19 -16 -45q0 -8 1 -15t5 -15q10 -20 27.5 -31t37.5 -11h304q30 0 50.5 20.5t20.5 50.5q0 31 -20.5 51.5t-50.5 20.5h-152z" />
    <glyph glyph-name="florin" unicode="&#x192;" horiz-adv-x="428" 
d="M339 468q20 0 35 -15t15 -35t-15 -35t-35 -15h-71v-343q0 -5 -3 -29t-17 -53q-22 -43 -60.5 -65.5t-89.5 -22.5q-20 0 -35 15t-15 35t15 35t35 15q28 0 41 11t20 23q5 11 7 22t2 15v342h-40q-20 0 -35 15t-15 35t15 35t35 15h40v69q0 6 3 30t18 53q21 43 60 65.5t90 22.5
q20 0 35 -15t15 -35t-15 -35t-35 -15q-28 0 -41 -10.5t-20 -22.5q-5 -11 -7.5 -22t-2.5 -16v-69h71v0z" />
    <glyph glyph-name="circumflex" unicode="&#x2c6;" horiz-adv-x="429" 
d="M217 906q5 0 12 -1.5t12 -3.5l119 -61h-1q14 -7 21 -18.5t7 -24.5q0 -11 -5 -24q-6 -13 -18 -20t-26 -7q-11 0 -23 5l-98 49l-97 -49q-10 -5 -22 -5q-14 0 -26 7.5t-19 19.5q-5 13 -5 24q0 13 7.5 24.5t20.5 18.5h-1l119 61q12 5 23 5z" />
    <glyph glyph-name="tilde" unicode="&#x2dc;" horiz-adv-x="401" 
d="M248 776q-17 0 -32 5.5t-27 12.5q-11 5 -21 8.5t-24 3.5q-8 -13 -20 -21.5t-26 -8.5q-20 0 -34.5 15t-14.5 35q0 10 5 24t17 26.5t33.5 21t54.5 8.5q17 0 31 -5t26 -12q11 -5 20.5 -9t26.5 -4q8 14 20 22t26 8q20 0 34.5 -15t14.5 -35q0 -43 -31.5 -61.5t-78.5 -18.5z
" />
    <glyph glyph-name="Gamma" unicode="&#x393;" horiz-adv-x="427" 
d="M336 700q20 0 34.5 -15t14.5 -35t-14.5 -35t-34.5 -15h-188v-551q0 -20 -14.5 -34.5t-35.5 -14.5q-20 0 -35 14.5t-15 34.5v602q0 20 15 34.5t36 14.5h237v0z" />
    <glyph glyph-name="Epsilon" unicode="&#x395;" horiz-adv-x="488" 
d="M147 301v-201h251q20 0 34.5 -15t14.5 -36q0 -20 -14.5 -34.5t-34.5 -14.5h-301q-20 0 -34.5 14.5t-14.5 34.5v602q0 20 14.5 34.5t34.5 14.5h301q20 0 34.5 -14.5t14.5 -34.5q0 -21 -14.5 -36t-34.5 -15h-251v-201h251q20 0 34.5 -14.5t14.5 -34.5t-14.5 -34.5
t-34.5 -14.5h-251z" />
    <glyph glyph-name="Theta" unicode="&#x398;" horiz-adv-x="780" 
d="M643 597q51 -51 77 -115t26 -132q0 -69 -26 -133t-77 -115q-50 -50 -114 -76t-133 -26q-72 0 -134.5 26t-113.5 76q-51 51 -76.5 115t-25.5 133t25.5 132.5t76.5 114.5t114 77t134 26q69 0 132.5 -26t114.5 -77zM573 173q36 36 54.5 82.5t18.5 94.5q0 49 -18.5 94.5
t-54.5 82.5q-36 35 -81 54t-96 19t-96.5 -19t-80.5 -54q-38 -37 -55.5 -83t-17.5 -94q0 -49 17.5 -95t55.5 -82q35 -35 80.5 -54t96.5 -19t96 19t81 54zM396 429q32 0 55.5 -23.5t23.5 -55.5q0 -33 -23.5 -56.5t-55.5 -23.5q-34 0 -57.5 23.5t-23.5 56.5q0 16 6.5 30.5
t17.5 25t25.5 17t31.5 6.5z" />
    <glyph glyph-name="Iota" unicode="&#x399;" horiz-adv-x="314" 
d="M219 100q21 0 35.5 -15t14.5 -36q0 -20 -14.5 -34.5t-35.5 -14.5h-119q-21 0 -36 14.5t-15 34.5q0 21 17.5 36t43.5 15v500q-26 0 -43.5 15t-17.5 36q0 20 15 34.5t36 14.5h119q21 0 35.5 -14.5t14.5 -34.5q0 -21 -17 -36t-43 -15v-490z" />
    <glyph glyph-name="Lambda" unicode="&#x39b;" horiz-adv-x="606" 
d="M565 67q7 -20 -1.5 -39t-28.5 -26v1q-9 -3 -18 -3q-15 0 -28.5 9t-18.5 25v-1l-163 465q-18 -53 -39 -112t-42 -119.5t-42 -120t-39 -113.5q-9 -17 -27.5 -26.5t-36.5 -4.5q-20 7 -29 26t-2 39l210 600q5 15 18 24t29 9q17 0 30 -9t18 -24l210 -600v0z" />
    <glyph glyph-name="Xi" unicode="&#x39e;" horiz-adv-x="546" 
d="M97 600q-20 0 -35 15t-15 36q0 20 15 34.5t35 14.5h360q20 0 35 -14.5t15 -34.5q0 -21 -15 -36t-35 -15h-360zM457 100q20 0 35 -15t15 -36q0 -20 -15 -34.5t-35 -14.5h-360q-20 0 -35 14.5t-15 34.5q0 21 15 36t35 15h360zM401 399q20 0 34.5 -14.5t14.5 -34.5
t-14.5 -34.5t-34.5 -14.5h-244q-20 0 -35 14.5t-15 34.5t15 34.5t35 14.5h244z" />
    <glyph glyph-name="Pi" unicode="&#x3a0;" horiz-adv-x="488" 
d="M398 700q20 0 34.5 -14.5t14.5 -34.5v-602q0 -20 -14.5 -34.5t-34.5 -14.5t-35 14.5t-15 34.5v551h-200v-551q0 -20 -15 -34.5t-36 -14.5q-20 0 -34.5 14.5t-14.5 34.5v602q0 20 14.5 34.5t34.5 14.5h301v0z" />
    <glyph glyph-name="theta" unicode="&#x3b8;" horiz-adv-x="780" 
d="M398 708q73 0 137.5 -28t112.5 -76t76 -112.5t28 -137.5t-28 -137.5t-76 -112.5t-112.5 -76t-137.5 -28t-137.5 28t-112.5 76t-76 112.5t-28 137.5t28 137.5t76 112.5t112.5 76t137.5 28zM398 607q-45 0 -85.5 -15.5t-73.5 -43t-56.5 -65.5t-34.5 -82h500
q-11 44 -34.5 82t-56.5 65.5t-73.5 43t-85.5 15.5zM398 101q44 0 84 15t73 41t56.5 62.5t35.5 80.5h-498q12 -44 35.5 -80.5t56.5 -62.5t73 -41t84 -15z" />
    <glyph glyph-name="upsilon" unicode="&#x3c5;" horiz-adv-x="522" 
d="M370 455q2 -2 20.5 -18t39.5 -43.5t38.5 -66.5t17.5 -85q0 -25 -6 -52q-7 -27 -23 -61.5t-48 -63.5q-70 -65 -179 -65q-55 0 -96 23.5t-64 68.5q-17 30 -20 55.5t-3 30.5v237q0 21 15 36t35 15t35 -15t15 -36v-239v-1q0 -1 1 -2q1 -6 3 -17t8 -22q8 -11 22.5 -22
t48.5 -11q61 0 99.5 29.5t52.5 84.5q3 12 3 27q0 23 -10 45.5t-23.5 41t-26.5 31.5t-19 16l3 -1q-20 15 -20 41q0 15 11 29q15 20 40 20q15 0 30 -10zM304 376q-1 0 -1 1l3 -1h-2z" />
    <glyph glyph-name="phi" unicode="&#x3c6;" 
d="M338 579q37 -10 69 -31t55.5 -50.5t36.5 -66t13 -77.5q0 -40 -13.5 -77t-38 -67t-58 -51.5t-72.5 -31.5v-77q0 -20 -15 -35t-35 -15q-21 0 -36 15t-15 35v77q-39 10 -72.5 31.5t-58 51.5t-38.5 67t-14 77q0 41 14 77.5t38.5 66.5t58 51.5t72.5 31.5v77q0 20 15 35t36 15
q20 0 35 -15t15 -35v-68zM147 354q0 -37 22.5 -70t59.5 -54v248q-37 -21 -59.5 -54t-22.5 -70zM345 240q30 17 48 47t18 67t-22 70t-59 54v-229z" />
    <glyph glyph-name="chi" unicode="&#x3c7;" horiz-adv-x="634" 
d="M564 99q17 -5 27.5 -18t10.5 -30q0 -2 -0.5 -5.5t-1.5 -8.5v2q-5 -18 -18 -28.5t-30 -10.5q-4 0 -14 2h1q-45 12 -78.5 35t-60.5 56.5t-50.5 76.5t-47.5 96q-31 -55 -66 -119.5t-66 -120.5q-7 -12 -19 -19t-24 -7q-13 0 -25 6q-13 8 -19.5 19.5t-6.5 25.5q0 12 6 24
l168 303q-37 70 -83.5 127.5t-102.5 113.5q-9 7 -14 17.5t-5 21.5q0 17 12 32q7 9 17 13.5t21 4.5q19 0 33 -11q1 -1 16.5 -14.5t40 -40t56 -67t65.5 -94.5l110 201q8 13 19.5 19.5t24.5 6.5q12 0 24 -6q14 -7 20.5 -19t6.5 -25q0 -8 -7 -24l-142 -259l22 -47
q28 -59 48.5 -99.5t40 -66.5t40.5 -40.5t51 -22.5z" />
    <glyph glyph-name="afii10145" unicode="&#x40f;" horiz-adv-x="488" 
d="M398 700q20 0 34.5 -14.5t14.5 -34.5v-602q0 -20 -14.5 -34.5t-34.5 -14.5h-101v-126q0 -20 -14.5 -35t-34.5 -15t-35 15t-15 35v126h-101q-20 0 -34.5 14.5t-14.5 34.5v602q0 20 14.5 34.5t34.5 14.5t35 -14.5t15 -34.5v-551h200v551q0 20 15 34.5t36 14.5z" />
    <glyph glyph-name="afii10018" unicode="&#x411;" horiz-adv-x="479" 
d="M321 432q57 -29 87 -81t30 -121t-30 -121t-87 -81h1q-21 -10 -40 -15.5t-34.5 -8.5t-26 -3.5t-12.5 -0.5h-111q-20 0 -35 14.5t-15 34.5v602q0 20 15 34.5t35 14.5h237q20 0 35 -15t15 -35t-15 -35t-35 -15h-187v-140h61q2 0 12.5 -0.5t26 -3.5t34.5 -8.5t40 -15.5h-1z
M280 118q59 32 59 112q0 78 -59 112q-12 6 -24.5 9.5t-22.5 5.5t-16.5 2.5t-7.5 0.5h-61v-260h61q2 0 24 2.5t47 15.5z" />
    <glyph glyph-name="afii10022" unicode="&#x415;" horiz-adv-x="488" 
d="M147 301v-201h251q20 0 34.5 -15t14.5 -36q0 -20 -14.5 -34.5t-34.5 -14.5h-301q-20 0 -34.5 14.5t-14.5 34.5v602q0 20 14.5 34.5t34.5 14.5h301q20 0 34.5 -14.5t14.5 -34.5q0 -21 -14.5 -36t-34.5 -15h-251v-201h251q20 0 34.5 -14.5t14.5 -34.5t-14.5 -34.5
t-34.5 -14.5h-251z" />
    <glyph glyph-name="uni0417" unicode="&#x417;" horiz-adv-x="430" 
d="M188 700q41 0 77.5 -16t63.5 -43t43 -63.5t16 -77.5q0 -42 -18 -81t-50 -69q32 -30 50 -69t18 -81q0 -41 -16 -77.5t-43 -63.5t-63.5 -43t-77.5 -16h-90q-20 0 -35 14.5t-15 34.5q0 21 15 36t35 15h90q21 0 39 7.5t31.5 21t21.5 32t8 39.5q0 20 -7.5 38t-20.5 32
t-30.5 22.5t-38.5 8.5h-33q-20 0 -35 14.5t-15 34.5t15 34.5t35 14.5h30q21 0 39 8t31.5 22t21.5 32.5t8 38.5q0 21 -8 39t-21.5 31.5t-31.5 21.5t-39 8h-90q-20 0 -35 15t-15 36q0 20 15 34.5t35 14.5h90v0z" />
    <glyph glyph-name="afii10029" unicode="&#x41b;" horiz-adv-x="576" 
d="M487 700q21 0 35.5 -14.5t14.5 -34.5v-602q0 -20 -14.5 -34.5t-35.5 -14.5q-20 0 -35 14.5t-15 34.5v551h-200v-460q0 -21 -7.5 -45.5t-24 -45.5t-43 -35t-65.5 -14q-20 0 -35 14.5t-15 34.5q0 21 15 36t35 15q16 0 24 5t10 10q3 8 4.5 15t1.5 11v510q0 20 14.5 34.5
t35.5 14.5h300v0z" />
    <glyph glyph-name="afii10033" unicode="&#x41f;" horiz-adv-x="635" 
d="M547 0q-20 0 -34.5 14.5t-14.5 34.5v551h-351v-551q0 -20 -15 -34.5t-36 -14.5q-20 0 -34.5 14.5t-14.5 34.5v602q0 20 14.5 34.5t35.5 14.5h450q21 0 36 -14.5t15 -34.5v-602q0 -20 -15 -34.5t-36 -14.5z" />
    <glyph glyph-name="afii10041" unicode="&#x427;" horiz-adv-x="459" 
d="M368 700q20 0 35 -14.5t15 -34.5v-602q0 -20 -15 -34.5t-35 -14.5t-34.5 14.5t-14.5 34.5v191h-71q-60 0 -105 26.5t-70 76.5q-9 17 -14 33.5t-7.5 30t-3 22.5t-0.5 12v210q0 20 15 34.5t36 14.5q20 0 34.5 -14.5t14.5 -34.5v-210q0 -2 2 -19.5t12 -37.5q8 -14 26.5 -29
t59.5 -15h71v311q0 20 14.5 34.5t34.5 14.5z" />
    <glyph glyph-name="afii10042" unicode="&#x428;" horiz-adv-x="605" 
d="M517 700q20 0 35 -14.5t15 -34.5v-602q0 -20 -15 -34.5t-35 -14.5h-420q-20 0 -35 14.5t-15 34.5v602q0 20 15 34.5t35 14.5t35 -14.5t15 -34.5v-551h111v551q0 20 14.5 34.5t34.5 14.5t35 -14.5t15 -34.5v-551h111v551q0 20 14.5 34.5t34.5 14.5z" />
    <glyph glyph-name="uni0437" unicode="&#x437;" horiz-adv-x="488" 
d="M249 0q-42 0 -78.5 16t-64 43.5t-43.5 64t-16 78.5q0 20 15 35t35 15t35 -15t15 -35q0 -21 8 -39.5t22 -32t32.5 -21.5t39.5 -8t39.5 8t32 21.5t21.5 32t8 39.5t-8 39.5t-21.5 32.5t-32 22t-39.5 8q-20 0 -35 15t-15 35t15 35t35 15q21 0 39.5 8t32 22t21.5 32.5t8 39.5
t-8 39.5t-21.5 32t-32 21.5t-39.5 8t-39.5 -8t-32.5 -21.5t-22 -32t-8 -39.5t-15 -36t-35 -15t-35 15t-15 36q0 42 16 79t43.5 64t64 43t78.5 16t79 -16t64 -43t43 -64t16 -79t-18 -81.5t-50 -70.5q32 -30 50 -70t18 -82t-16 -78.5t-43 -64t-64 -43.5t-79 -16z" />
    <glyph glyph-name="afii10077" unicode="&#x43b;" horiz-adv-x="576" 
d="M491 466q21 0 36 -15t15 -36v-365q0 -20 -15 -35t-36 -15q-20 0 -35 15t-15 35v315h-203v-223q0 -22 -7.5 -47t-24.5 -46t-44 -35t-66 -14q-20 0 -35 15t-15 35q0 21 15 36t35 15q17 0 24.5 5.5t9.5 10.5q4 7 5.5 14t1.5 12v272q0 21 15 36t36 15h303v0z" />
    <glyph glyph-name="afii10079" unicode="&#x43d;" horiz-adv-x="488" 
d="M401 466q20 0 35 -15t15 -36v-365q0 -20 -15 -35t-35 -15t-35 15t-15 35v132h-203v-132q0 -20 -15 -35t-35 -15q-21 0 -36 15t-15 35v365q0 21 15 36t36 15q20 0 35 -15t15 -36v-132h203v132q0 21 15 36t35 15z" />
    <glyph glyph-name="afii10090" unicode="&#x448;" horiz-adv-x="605" 
d="M522 466q20 0 35 -15t15 -36v-365q0 -20 -15 -35t-35 -15h-426q-20 0 -35 15t-15 35v365q0 21 15 36t35 15q21 0 36 -15t15 -36v-314h111v314q0 21 15 36t35 15q21 0 36 -15t15 -36v-314h112v314q0 21 15 36t36 15z" />
    <glyph glyph-name="afii10196" unicode="&#x475;" horiz-adv-x="488" 
d="M200 0q-19 0 -32 10t-22.5 24t-15.5 29.5t-10 28.5h1q-9 25 -17.5 58t-16.5 73q-6 26 -12 51.5t-10.5 48t-8 40.5t-5.5 30q-3 13 -3 16q-1 5 -1 10q0 18 12 32t30 17q4 1 9 1q18 0 32 -12.5t17 -29.5q4 -25 10 -55t12.5 -61t13 -60t12.5 -51q26 59 55 105.5t54.5 79
t43 50.5t19.5 20q7 8 16 11t18 3q22 0 38 -17q12 -14 12 -33q0 -22 -15 -37l-5 -4q-7 -8 -30 -33.5t-49.5 -64.5t-50.5 -89t-33 -107q-2 -14 -4.5 -25t-7.5 -19q-8 -17 -22 -27.5t-34 -12.5z" />
    <glyph glyph-name="wacute" unicode="&#x1e83;" horiz-adv-x="688" 
d="M290 562q-14 0 -26.5 7.5t-18.5 20.5q-5 12 -5 22q0 14 7 26t21 19h-1l122 62q5 2 10 3.5t12 1.5q14 0 26.5 -7t18.5 -20q2 -5 4 -11t2 -12q0 -14 -8 -27t-20 -19l-121 -60q-6 -2 -11.5 -4t-11.5 -2zM624 461q-9 4 -18 4q-15 0 -28.5 -8.5t-18.5 -24.5l-80 -228l-80 228
q-6 12 -19 22.5t-27 11.5h-4q-16 -1 -29 -9t-18 -25l-79 -228l-80 228q-5 16 -18 24.5t-29 8.5q-10 0 -18 -2q-16 -6 -24.5 -19t-8.5 -29q0 -9 2 -17l128 -365q5 -14 18 -23.5t30 -9.5q16 0 29.5 9.5t18.5 23.5q9 25 19.5 55t21 60.5t21 60t18.5 53.5l80 -229
q6 -14 19 -23.5t29 -9.5q17 0 30 9.5t18 23.5l128 365q2 8 2 17q0 15 -8.5 28.5t-24.5 19.5v-2z" />
    <glyph glyph-name="Wdieresis" unicode="&#x1e84;" horiz-adv-x="945" 
d="M883 696q15 -6 23 -19t8 -27q0 -12 -3 -19l-251 -600q-5 -14 -18 -22.5t-27 -8.5q-34 0 -47 31l-88 213l-90 -213q-5 -14 -17.5 -22.5t-27.5 -8.5t-28 8.5t-18 22.5l-251 600q-3 7 -3 19q0 19 13.5 34.5t36.5 15.5q15 0 27.5 -8.5t17.5 -22.5l205 -490l80 195l-107 257
q-4 10 -4 20q0 19 14 34t37 15q34 0 45 -31l70 -167l69 167q5 14 18 22.5t27 8.5q23 0 37 -15.5t14 -34.5q0 -12 -3 -19l-109 -257l82 -195l204 490q5 14 17.5 22.5t27.5 8.5q9 0 19 -4zM445 856q0 -20 -14.5 -35t-34.5 -15q-21 0 -36 15t-15 35t15 35t36 15q20 0 34.5 -15
t14.5 -35zM613 856q0 -20 -15 -35t-35 -15t-34.5 15t-14.5 35t14.5 35t34.5 15t35 -15t15 -35z" />
    <glyph glyph-name="wdieresis" unicode="&#x1e85;" horiz-adv-x="688" 
d="M315 597q0 -21 -15 -36t-35 -15q-21 0 -36 15t-15 36q0 20 15 35t36 15q20 0 35 -15t15 -35zM484 597q0 -21 -14.5 -36t-35.5 -15q-20 0 -35 15t-15 36q0 20 15 35t35 15q21 0 35.5 -15t14.5 -35zM624 461q-9 4 -18 4q-15 0 -28.5 -8.5t-18.5 -24.5l-80 -228l-80 228
q-6 12 -19 22.5t-27 11.5h-4q-16 -1 -29 -9t-18 -25l-79 -228l-80 228q-5 16 -18 24.5t-29 8.5q-10 0 -18 -2q-16 -6 -24.5 -19t-8.5 -29q0 -9 2 -17l128 -365q5 -14 18 -23.5t30 -9.5q16 0 29.5 9.5t18.5 23.5q9 25 19.5 55t21 60.5t21 60t18.5 53.5l80 -229
q6 -14 19 -23.5t29 -9.5q17 0 30 9.5t18 23.5l128 365q2 8 2 17q0 15 -8.5 28.5t-24.5 19.5v-2z" />
    <glyph glyph-name="dagger" unicode="&#x2020;" 
d="M457 520q21 0 36 -15t15 -36q0 -20 -15 -34.5t-36 -14.5h-134v-371q0 -20 -14.5 -34.5t-35.5 -14.5q-20 0 -35 14.5t-15 34.5v371h-126q-20 0 -35 14.5t-15 34.5q0 21 15 36t35 15h126v131q0 20 15 34.5t35 14.5q21 0 35.5 -14.5t14.5 -34.5v-131h134z" />
    <glyph glyph-name="daggerdbl" unicode="&#x2021;" 
d="M457 280q21 0 36 -15t15 -35t-15 -35t-36 -15h-134v-131q0 -20 -14.5 -34.5t-35.5 -14.5q-20 0 -35 14.5t-15 34.5v131h-126q-20 0 -35 15t-15 35t15 35t35 15h126v140h-126q-20 0 -35 14.5t-15 34.5q0 21 15 36t35 15h126v131q0 20 15 34.5t35 14.5q21 0 35.5 -14.5
t14.5 -34.5v-131h134q21 0 36 -15t15 -36q0 -20 -15 -34.5t-36 -14.5h-134v-140h134z" />
    <glyph glyph-name="bullet" unicode="&#x2022;" horiz-adv-x="255" 
d="M209 350q0 -33 -23.5 -56.5t-55.5 -23.5q-33 0 -56.5 23.5t-23.5 56.5q0 32 23.5 55.5t56.5 23.5q32 0 55.5 -23.5t23.5 -55.5z" />
    <glyph glyph-name="ellipsis" unicode="&#x2026;" horiz-adv-x="506" 
d="M257 100q21 0 35.5 -15t14.5 -36q0 -20 -14.5 -34.5t-35.5 -14.5q-20 0 -35 14.5t-15 34.5q0 21 15 36t35 15zM415 100q21 0 36 -15t15 -36q0 -20 -15 -34.5t-36 -14.5q-20 0 -34.5 14.5t-14.5 34.5q0 21 14.5 36t34.5 15zM97 100q21 0 36 -15t15 -36q0 -20 -15 -34.5
t-36 -14.5q-20 0 -34.5 14.5t-14.5 34.5q0 21 14.5 36t34.5 15z" />
    <glyph glyph-name="guilsinglleft" unicode="&#x2039;" horiz-adv-x="386" 
d="M293 105q-21 0 -35 14l-195 196q-14 14 -14 35q0 19 14 35l195 196q13 14 36 14q19 0 35 -14q14 -17 14 -36q0 -21 -14 -35l-161 -160l161 -160q14 -14 14 -35q0 -19 -14 -36q-17 -14 -36 -14z" />
    <glyph glyph-name="guilsinglright" unicode="&#x203a;" horiz-adv-x="386" 
d="M99 105q-20 0 -36 14q-14 17 -14 36q0 21 14 35l161 160l-161 160q-14 14 -14 35q0 19 14 36q14 14 35 14q10 0 19.5 -3t16.5 -11l195 -196q14 -16 14 -35q0 -21 -14 -35l-195 -196q-8 -8 -17 -11t-18 -3z" />
    <glyph glyph-name="fraction" unicode="&#x2044;" horiz-adv-x="313" 
d="M228 699q18 -3 29 -17.5t11 -31.5q0 -6 -1 -10l-120 -600q-3 -18 -17 -29t-31 -11h-4.5t-5.5 1q-17 3 -28.5 17.5t-11.5 31.5q0 6 1 10l121 600q3 18 17 29t31 11q5 0 9 -1z" />
    <glyph glyph-name="zerosuperior" unicode="&#x2070;" horiz-adv-x="318" 
d="M241 660q33 -41 33 -103v-61q0 -31 -8.5 -57.5t-24 -45.5t-36 -29.5t-44.5 -10.5q-25 0 -45.5 11t-35.5 30t-23 45t-8 57v61q0 31 9 57t24 45t35.5 30t43.5 11t43.5 -10.5t36.5 -29.5zM232 557q0 18 -4.5 36.5t-13 33t-22 23.5t-31.5 9t-31.5 -9t-22.5 -23.5t-13.5 -33
t-4.5 -36.5v-61q0 -45 19.5 -73.5t52.5 -28.5q32 0 51.5 28.5t19.5 73.5v61z" />
    <glyph glyph-name="foursuperior" unicode="&#x2074;" horiz-adv-x="303" 
d="M207 353q-8 0 -14 6t-6 15v55h-117q-8 0 -14.5 6.5t-6.5 15.5q0 6 4 11l137 229h-1q5 9 19 9q8 0 13.5 -6t5.5 -15v-209q14 0 22.5 -6t8.5 -14t-8.5 -14.5t-22.5 -6.5v-55q0 -9 -6 -15t-14 -6zM105 470h82v136z" />
    <glyph glyph-name="fivesuperior" unicode="&#x2075;" horiz-adv-x="318" 
d="M161 577q23 0 43.5 -9t36 -24t24.5 -35.5t9 -43.5t-9 -43.5t-24.5 -35.5t-36 -24t-43.5 -9t-43.5 9t-35.5 24t-24 35.5t-9 43.5q0 9 6 15t15 6q8 0 14 -6t6 -15q0 -30 20.5 -50.5t50.5 -20.5q29 0 50.5 20.5t21.5 50.5q0 29 -20 49t-49 22l-52 -12q-5 -2 -7 -2h-5
q-9 0 -14 6.5t-6 16.5l15 136q2 19 21 19h92q8 0 13.5 -6t5.5 -15q0 -8 -5.5 -14t-13.5 -6h-74l-10 -89l32 6q2 1 5 1z" />
    <glyph glyph-name="sixsuperior" unicode="&#x2076;" horiz-adv-x="318" 
d="M161 353q-23 0 -43.5 9t-35.5 24t-24 35.5t-9 43.5q0 14 2.5 26t8.5 23l93 175q7 11 19 11q8 0 14 -6.5t6 -14.5q0 -3 -3 -9l-49 -93h21q23 0 43.5 -9t36 -24t24.5 -35.5t9 -43.5t-9 -43.5t-24.5 -35.5t-36 -24t-43.5 -9zM161 536q-30 0 -50.5 -20.5t-20.5 -50.5
t20.5 -50.5t50.5 -20.5t50.5 20.5t20.5 50.5t-20.5 50.5t-50.5 20.5z" />
    <glyph glyph-name="sevensuperior" unicode="&#x2077;" horiz-adv-x="288" 
d="M69 353q-3 0 -9 2h1q-12 5 -12 19q0 3 2 9l138 276h-120q-8 0 -14 6t-6 14q0 9 6 15t14 6h153q5 0 10 -2t7 -7q4 -8 4 -12q0 -3 -0.5 -5t-1.5 -4l-154 -307q-5 -10 -18 -10z" />
    <glyph glyph-name="eightsuperior" unicode="&#x2078;" horiz-adv-x="318" 
d="M228 555q21 -16 33.5 -39t12.5 -51q0 -23 -9 -43.5t-24.5 -35.5t-36 -24t-44.5 -9q-23 0 -43 9t-35 24t-24 35.5t-9 43.5q0 28 15 52.5t38 43.5q-11 14 -17 29t-6 29q0 33 24 57t57 24q35 0 59 -24t24 -57q0 -14 -4.5 -26.5t-12.5 -23.5zM120 619q0 -18 11.5 -30
t28.5 -12t30 12t13 30q0 17 -13 28.5t-30 11.5t-28.5 -11.5t-11.5 -28.5zM160 394q31 0 51.5 20.5t20.5 50.5t-20.5 50.5t-51.5 20.5q-29 0 -50 -20.5t-21 -50.5t21 -50.5t50 -20.5z" />
    <glyph glyph-name="ninesuperior" unicode="&#x2079;" horiz-adv-x="318" 
d="M160 700q24 0 44.5 -9t36 -24t24.5 -35.5t9 -43.5q0 -14 -3.5 -26t-8.5 -24v1l-93 -175q-9 -11 -18 -11t-15 6t-6 15q0 5 3 10v-1l49 93h-22q-23 0 -43 9t-35 24t-24 35.5t-9 43.5t9 43.5t24 35.5t35 24t43 9zM160 516q31 0 51.5 21t20.5 51t-20.5 50.5t-51.5 20.5
q-29 0 -50 -20.5t-21 -50.5t21 -51t50 -21z" />
    <glyph glyph-name="zeroinferior" unicode="&#x2080;" horiz-adv-x="318" 
d="M241 307q33 -41 33 -103v-61q0 -31 -8.5 -57.5t-24 -45.5t-36 -29.5t-44.5 -10.5q-25 0 -45.5 11t-35.5 30t-23 45t-8 57v61q0 31 9 57t24 45t35.5 30t43.5 11t43.5 -11t36.5 -29zM232 204q0 18 -4.5 36.5t-13 33t-22 23.5t-31.5 9t-31.5 -9t-22.5 -23.5t-13.5 -33
t-4.5 -36.5v-61q0 -45 19.5 -73.5t52.5 -28.5q32 0 51.5 28.5t19.5 73.5v61z" />
    <glyph glyph-name="oneinferior" unicode="&#x2081;" horiz-adv-x="181" 
d="M109 0q-11 0 -18 7t-7 18v275q-14 1 -24 8t-10 17q0 11 7 18t18 7h34q10 0 17.5 -7t7.5 -18v-300q0 -11 -7.5 -18t-17.5 -7z" />
    <glyph glyph-name="twoinferior" unicode="&#x2082;" horiz-adv-x="313" 
d="M74 0q-5 0 -11 3t-10 7q-2 2 -3 7t-1 8v6q1 2 7.5 17t19 35t31.5 42.5t45 40.5q38 24 52.5 39t14.5 37q0 25 -18 42t-42 17q-26 0 -43 -17t-17 -42q0 -10 -7.5 -17.5t-17.5 -7.5q-11 0 -18 7.5t-7 17.5q0 22 8.5 42t23.5 34.5t35 23t43 8.5q22 0 42 -8.5t35 -23
t23.5 -34.5t8.5 -42q0 -23 -7.5 -40t-20 -31t-28.5 -25.5t-32 -21.5h1q-19 -13 -36 -32.5t-31 -42.5h130q10 0 17 -7t7 -17q0 -11 -7 -18t-17 -7h-170z" />
    <glyph glyph-name="threeinferior" unicode="&#x2083;" horiz-adv-x="323" 
d="M243 183q16 -14 26 -34t10 -43q0 -22 -9 -41.5t-25 -33.5t-37 -22.5t-45 -8.5q-23 0 -44 8.5t-36.5 22.5t-24.5 33.5t-9 41.5q0 10 7 17.5t18 7.5q10 0 17.5 -7.5t7.5 -17.5q0 -24 19 -40.5t45 -16.5q28 0 47 16.5t19 40.5q0 25 -19 41.5t-47 16.5q-10 0 -17 7t-7 17
q0 11 7 18t17 7q21 0 35.5 12.5t14.5 29.5t-14.5 29.5t-35.5 12.5q-20 0 -34 -12.5t-14 -29.5q0 -10 -7 -17t-18 -7q-10 0 -17 7t-7 17q0 19 7.5 36t21 29.5t31 19.5t37.5 7q21 0 39 -7t31.5 -19.5t21 -29.5t7.5 -36q0 -33 -21 -57z" />
    <glyph glyph-name="fourinferior" unicode="&#x2084;" horiz-adv-x="303" 
d="M207 0q-8 0 -14 6t-6 15v55h-117q-8 0 -14.5 6t-6.5 16q0 6 4 11l137 229h-1q5 9 19 9q8 0 13.5 -6t5.5 -15v-209q14 0 22.5 -6t8.5 -14q0 -9 -8.5 -15t-22.5 -6v-55q0 -9 -6 -15t-14 -6zM105 117h82v136z" />
    <glyph glyph-name="fiveinferior" unicode="&#x2085;" horiz-adv-x="318" 
d="M161 224q23 0 43.5 -9t36 -24t24.5 -35.5t9 -43.5t-9 -43.5t-24.5 -35.5t-36 -24t-43.5 -9t-43.5 9t-35.5 24t-24 35.5t-9 43.5q0 9 6 15t15 6q8 0 14 -6t6 -15q0 -30 20.5 -50.5t50.5 -20.5q29 0 50.5 20.5t21.5 50.5q0 29 -20 49t-49 22l-52 -12q-5 -2 -7 -2h-5
q-9 0 -14 6.5t-6 15.5l15 137q2 19 21 19h92q8 0 13.5 -6t5.5 -15q0 -8 -5.5 -14t-13.5 -6h-74l-10 -89l32 6q2 1 5 1z" />
    <glyph glyph-name="sixinferior" unicode="&#x2086;" horiz-adv-x="318" 
d="M161 0q-23 0 -43.5 9t-35.5 24t-24 35.5t-9 43.5q0 14 2.5 26t8.5 23l93 175q7 11 19 11q8 0 14 -6.5t6 -14.5q0 -3 -3 -9l-49 -93h21q23 0 43.5 -9t36 -24t24.5 -35.5t9 -43.5t-9 -43.5t-24.5 -35.5t-36 -24t-43.5 -9zM161 183q-30 0 -50.5 -20.5t-20.5 -50.5
t20.5 -50.5t50.5 -20.5t50.5 20.5t20.5 50.5t-20.5 50.5t-50.5 20.5z" />
    <glyph glyph-name="seveninferior" unicode="&#x2087;" horiz-adv-x="288" 
d="M69 0q-3 0 -9 2h1q-12 5 -12 19q0 3 2 9l138 276h-120q-8 0 -14 6t-6 14q0 9 6 15t14 6h153q5 0 10 -2t7 -7q4 -8 4 -12q0 -3 -0.5 -5t-1.5 -4l-154 -307q-5 -10 -18 -10z" />
    <glyph glyph-name="eightinferior" unicode="&#x2088;" horiz-adv-x="318" 
d="M228 202q21 -16 33.5 -39t12.5 -51q0 -23 -9 -43.5t-24.5 -35.5t-36 -24t-44.5 -9q-23 0 -43 9t-35 24t-24 35.5t-9 43.5q0 28 15 52.5t38 43.5q-11 14 -17 29t-6 29q0 33 24 57t57 24q35 0 59 -24t24 -57q0 -14 -4.5 -26.5t-12.5 -23.5zM120 266q0 -18 11.5 -30
t28.5 -12t30 12t13 30q0 17 -13 28.5t-30 11.5t-28.5 -11.5t-11.5 -28.5zM160 41q31 0 51.5 20.5t20.5 50.5t-20.5 50.5t-51.5 20.5q-29 0 -50 -20.5t-21 -50.5t21 -50.5t50 -20.5z" />
    <glyph glyph-name="nineinferior" unicode="&#x2089;" horiz-adv-x="318" 
d="M160 347q24 0 44.5 -9t36 -24t24.5 -35.5t9 -43.5q0 -14 -3.5 -26t-8.5 -24v1l-93 -175q-9 -11 -18 -11t-15 6t-6 15q0 5 3 10v-1l49 92h-22q-23 0 -43 9t-35 24.5t-24 36t-9 43.5t9 43.5t24 35.5t35 24t43 9zM160 163q31 0 51.5 21t20.5 51t-20.5 50.5t-51.5 20.5
q-29 0 -50 -20.5t-21 -50.5t21 -51t50 -21z" />
    <glyph glyph-name="Euro" unicode="&#x20ac;" horiz-adv-x="664" 
d="M622 95q5 -13 5 -23q0 -21 -17.5 -34.5t-44 -22t-56 -12t-53.5 -3.5q-53 0 -101.5 15.5t-90 43t-74.5 66t-55 85.5h-39q-20 0 -34.5 14.5t-14.5 34.5q0 21 17.5 36t44.5 15q-2 10 -2.5 21t-0.5 19v14q0 5 0.5 13.5t0.5 12.5q-26 0 -43 15t-17 35t14.5 35t34.5 15h39
q21 46 54 85t75 66.5t90.5 43t101.5 15.5q24 0 53.5 -3.5t56 -12t44 -22.5t17.5 -34q0 -8 -5 -23q-6 -14 -18.5 -22t-26.5 -8q-8 0 -20 5q-46 20 -101 20q-59 0 -113 -29.5t-96 -80.5h239q21 0 36 -15t15 -35t-15 -35t-36 -15h-277q-3 -21 -3 -40q0 -8 0.5 -19t2.5 -21h277
q21 0 36 -15t15 -36q0 -20 -15 -34.5t-36 -14.5h-239q42 -51 96 -80.5t113 -29.5q55 0 101 20q4 2 9.5 3.5t10.5 1.5q14 0 26.5 -8t18.5 -22z" />
    <glyph glyph-name="afii61352" unicode="&#x2116;" horiz-adv-x="1192" 
d="M922 180q-51 0 -95.5 20.5t-77.5 55.5t-52.5 82.5t-19.5 101.5t19.5 101t52.5 82.5t77.5 56t95.5 20.5t95.5 -20.5t77.5 -56t52.5 -82.5t19.5 -101t-19.5 -101.5t-52.5 -82.5t-77.5 -55.5t-95.5 -20.5zM922 600q-30 0 -56 -12.5t-46 -34t-31.5 -51t-11.5 -62.5
t11.5 -62.5t31.5 -51t46 -34t56 -12.5t57 12.5t46.5 34t31 51t11.5 62.5t-11.5 62.5t-31 51t-46.5 34t-57 12.5zM972 49q0 -20 -14.5 -34.5t-35.5 -14.5q-20 0 -35 14.5t-15 34.5q0 21 15 36t35 15q21 0 35.5 -15t14.5 -36zM513 0q-12 0 -23 5.5t-18 16.5l-329 471v-444
q0 -20 -15 -34.5t-36 -14.5q-20 0 -34.5 14.5t-14.5 34.5v602q0 15 9 28t26 18q5 2 8 2h6q12 0 23 -5t18 -16l330 -471v444q0 20 14.5 34.5t35.5 14.5q20 0 35 -14.5t15 -34.5v-602q0 -20 -15 -34.5t-35 -14.5z" />
    <glyph glyph-name="trademark" unicode="&#x2122;" horiz-adv-x="833" 
 />
    <glyph glyph-name="Delta" unicode="&#x2206;" horiz-adv-x="576" 
d="M97 0q-21 0 -35.5 14.5t-14.5 34.5q0 8 2 16l196 601h-1q5 16 18.5 25t29.5 9q35 0 48 -34h-1l195 -601q3 -9 3 -16q0 -20 -14 -34.5t-36 -14.5h-390zM166 100h253l-127 391z" />
    <glyph glyph-name="product" unicode="&#x220f;" horiz-adv-x="635" 
d="M547 0q-20 0 -34.5 14.5t-14.5 34.5v551h-351v-551q0 -20 -15 -34.5t-36 -14.5q-20 0 -34.5 14.5t-14.5 34.5v602q0 20 14.5 34.5t35.5 14.5h450q21 0 36 -14.5t15 -34.5v-602q0 -20 -15 -34.5t-36 -14.5z" />
    <glyph glyph-name="summation" unicode="&#x2211;" 
d="M97 0q-31 0 -44 27q-2 5 -4 10.5t-2 11.5q0 8 3 15.5t7 13.5l194 272q-45 65 -96.5 135.5t-97.5 136.5q-4 6 -7 13.5t-3 15.5q0 6 2 11.5t4 10.5q13 27 44 27h360q21 0 36 -14.5t15 -34.5q0 -21 -15 -36t-36 -15h-263l160 -221q4 -5 6 -13.5t2 -15.5q0 -8 -1.5 -16
t-6.5 -13l-160 -221h263q21 0 36 -15t15 -36q0 -20 -15 -34.5t-36 -14.5h-360z" />
    <glyph glyph-name="minus" unicode="&#x2212;" horiz-adv-x="529" 
d="M439 402q21 0 35.5 -14.5t14.5 -34.5t-14.5 -34.5t-35.5 -14.5h-341q-21 0 -35.5 14.5t-14.5 34.5t14.5 34.5t35.5 14.5h341v0z" />
    <glyph glyph-name="lessequal" unicode="&#x2264;" horiz-adv-x="488" 
d="M137 315q-14 13 -14 35t14 35l151 150q13 15 35 15q18 0 35 -15q14 -14 14 -35q0 -18 -14 -35l-115 -115l25 -25t31.5 -31t32 -31.5l26.5 -26.5q14 -17 14 -36q0 -21 -14 -35q-15 -15 -35 -15q-22 0 -35 15zM398 100q20 0 34.5 -15t14.5 -36q0 -20 -14.5 -34.5
t-34.5 -14.5h-301q-20 0 -34.5 14.5t-14.5 34.5q0 21 14.5 36t34.5 15h301z" />
    <glyph glyph-name="greaterequal" unicode="&#x2265;" horiz-adv-x="488" 
d="M207 165q-14 -15 -35 -15q-20 0 -35 15q-14 14 -14 35q0 19 14 36l115 114q-25 26 -57 57.5t-58 57.5q-14 17 -14 35q0 21 14 35q16 15 35 15q21 0 35 -15l151 -150q14 -13 14 -35t-14 -35zM398 100q20 0 34.5 -15t14.5 -36q0 -20 -14.5 -34.5t-34.5 -14.5h-301
q-20 0 -34.5 14.5t-14.5 34.5q0 21 14.5 36t34.5 15h301z" />
    <glyph glyph-name="lozenge" unicode="&#x25ca;" horiz-adv-x="664" 
d="M616 381q5 -6 8 -14.5t3 -16.5q0 -7 -3 -15.5t-8 -15.5l-241 -300q-7 -10 -17 -14.5t-21 -4.5q-26 0 -39 19l-241 300q-5 6 -7.5 14.5t-2.5 16.5q0 19 11 31l240 300q13 19 39 19q11 0 21 -4.5t17 -14.5zM513 350l-176 220l-177 -220l177 -220z" />
    <glyph glyph-name="apple" unicode="&#xf8ff;" horiz-adv-x="854" 
d="M740 612q46 -68 63.5 -131.5t17.5 -117.5q0 -28 -4 -54t-9 -49q-10 -38 -30.5 -83.5t-50.5 -84.5t-68.5 -65.5t-85.5 -26.5q-42 0 -78 21.5t-62 46.5q-26 -25 -62 -46.5t-79 -21.5q-44 0 -82 25t-68 63.5t-51.5 84.5t-31.5 87q-6 23 -10 49t-4 55q0 54 18 118.5t66 133.5
q2 3 14.5 15t33 26.5t48.5 27t61 15.5q50 -2 101 -21v25q0 3 -0.5 5.5t-0.5 5.5q0 16 2 35t8.5 38t18 37t29.5 32q6 6 13.5 8.5t15.5 2.5q25 0 40 -19q10 -13 10 -30q0 -24 -19 -39q-11 -8 -15.5 -28.5t-4.5 -40.5v-8q0 -2 0.5 -11t0.5 -11q23 10 44.5 14t50.5 4
q35 -2 63 -14t48.5 -26.5t32.5 -27t14 -15.5l-2 6zM573 99q30 0 57 23.5t47.5 61.5t33 84.5t12.5 93.5q0 44 -14 92.5t-49 100.5q-17 24 -38.5 34t-44.5 10q-28 0 -55 -12.5t-49 -35.5q-15 -16 -40 -16h-4q-10 0 -19.5 4t-16.5 12q-23 23 -48.5 35.5t-52.5 12.5
q-23 0 -44.5 -10.5t-41.5 -33.5q-36 -52 -49.5 -100.5t-13.5 -92.5q0 -50 13 -97t34 -84t47.5 -59.5t54.5 -22.5q14 0 29 7.5t27.5 18t23 21.5t15.5 19q7 11 18 16.5t23 5.5h10q26 0 42 -22q5 -8 15 -19t23 -21.5t27 -18t28 -7.5z" />
    <glyph glyph-name="fi" unicode="&#xfb01;" horiz-adv-x="546" 
d="M461 466q20 0 34 -15t16 -37v-364q0 -20 -15 -35t-35 -15t-35 15t-15 35v315h-173v-315q0 -20 -15 -35t-36 -15q-20 0 -35 15t-15 35v315h-41q-20 0 -35 14.5t-15 35.5t15 36t35 15h41v70q0 6 3 30t18 53q21 44 60 66.5t91 22.5q20 0 35 -15t15 -35q0 -21 -15 -36
t-35 -15q-29 0 -42 -10t-20 -23q-6 -14 -8 -26q-1 -6 -1 -12v-70h223zM461 547q-20 0 -35 15t-15 35q0 21 15 36t35 15t35 -15t15 -36q0 -20 -15 -35t-35 -15z" />
    <glyph glyph-name="fl" unicode="&#xfb02;" horiz-adv-x="546" 
d="M469 518q-4 -1 -11 -1q-17 0 -31 10t-19 28v-1q-9 35 -28 44t-41 9h-30q-29 0 -42 -10t-20 -23q-6 -14 -8 -26q-1 -6 -1 -12v-70h71q21 0 36 -15t15 -36t-15 -35.5t-36 -14.5h-71v-315q0 -20 -15 -35t-35 -15q-21 0 -36 15t-15 35v315h-41q-20 0 -35 14.5t-15 35.5t15 36
t35 15h41v70q0 6 3 30t18 53q21 44 60 66.5t91 22.5h30q63 0 107.5 -34t59.5 -95q1 -4 1 -11q0 -17 -10.5 -31t-28.5 -19h1zM461 466q20 0 35 -15t15 -36v-365q0 -20 -15 -35t-35 -15t-35 15t-15 35v365q0 21 15 36t35 15z" />
    <glyph glyph-name="N.001" horiz-adv-x="546" 
d="M457 700q20 0 35 -14.5t15 -34.5v-602q0 -16 -10 -29t-26 -18h1q-5 -1 -9 -1.5t-6 -0.5q-13 0 -24.5 6t-17.5 18l-269 447v-422q0 -20 -14.5 -34.5t-34.5 -14.5t-35 14.5t-15 34.5v602q0 16 10 29t26 18h-1q5 1 9 1.5t6 0.5q13 0 24.5 -6t17.5 -18l269 -447v422
q0 20 14.5 34.5t34.5 14.5z" />
    <glyph glyph-name="i.alt1" horiz-adv-x="196" 
d="M100 466q20 0 35 -15t15 -36v-365q0 -20 -15 -35t-35 -15t-35 15t-15 35v365q0 21 15 36t35 15z" />
    <glyph glyph-name="m.alt1" horiz-adv-x="664" 
d="M389 365v-315q0 -20 -15 -35t-35 -15t-35 15t-15 35v315h-143v-315q0 -20 -15 -35t-35 -15q-21 0 -36 15t-15 35v365q0 21 15 36t36 15h486q21 0 36 -15t15 -36t-15 -35.5t-36 -14.5h-193zM582 283q21 0 36 -15t15 -36v-182q0 -20 -15 -35t-36 -15q-20 0 -35 15t-15 35
v182q0 21 15 36t35 15z" />
    <glyph glyph-name="z.alt3" horiz-adv-x="548" 
d="M97 607q-20 0 -35 15t-15 36q0 20 15 35t35 15h365q22 0 36.5 -15.5t14.5 -35.5q0 -8 -7 -24l-21 -35l-40 -69q-6 -13 -18 -19.5t-25 -6.5q-24 0 -37.5 15t-13.5 35q0 10 6 21q3 6 8 15t13 18h-281zM280 404q21 0 36 -15t15 -35t-15 -35t-36 -15q-20 0 -35 15t-15 35
t15 35t35 15zM462 101q21 0 36 -15t15 -36q0 -20 -15 -35t-36 -15h-365q-4 0 -11 1.5t-13.5 4.5t-11.5 7.5t-5 10.5q-5 7 -7 14t-2 13t1 12.5t6 11.5q5 8 9.5 18t9.5 20v-2q9 17 18 33.5t19.5 30t22.5 22t26 8.5q10 0 25 -6h-1q12 -6 19 -18t7 -26q0 -12 -6 -25l-2 -4
q-2 -2 -5 -6t0 -1l8 -18h258z" />
    <glyph glyph-name="K.001" horiz-adv-x="605" 
d="M553 684q14 -14 14 -33q0 -23 -17 -37l-357 -331h144q23 0 38 -17l151 -185q11 -14 11 -31q0 -23 -20 -40q-11 -10 -30 -10q-23 0 -39 19v-2l-134 166h-167v-134q0 -20 -15 -34.5t-36 -14.5q-20 0 -34.5 14.5t-14.5 34.5v602q0 20 14.5 34.5t34.5 14.5q21 0 36 -14.5
t15 -34.5v-275l336 312q17 12 34 12q21 0 35 -15z" />
    <glyph glyph-name="seven.alt1" horiz-adv-x="490" 
d="M445 684q15 -23 2 -49l-304 -608q-14 -27 -45 -27q-10 0 -23 5h1q-19 10 -25 29.5t2 38.5v-1l87 171h-42q-20 0 -35 15t-15 36q0 20 15 35t35 15h91l133 263h-173v-71q0 -20 -15 -35t-36 -15q-20 0 -35 15t-15 35v122q0 20 15 35t35 15h304q13 0 24.5 -6t18.5 -18z" />
    <glyph glyph-name="C.alt1" horiz-adv-x="488" 
d="M398 0q-72 0 -136 27.5t-111.5 75t-75 111.5t-27.5 136t27.5 135.5t75 111.5t111.5 75.5t136 27.5q20 0 34.5 -14.5t14.5 -34.5q0 -21 -14.5 -36t-34.5 -15q-52 0 -97.5 -19.5t-79.5 -53.5t-53.5 -79.5t-19.5 -97.5t19.5 -97.5t53.5 -79.5t79.5 -53.5t97.5 -19.5
q20 0 34.5 -15t14.5 -36q0 -20 -14.5 -34.5t-34.5 -14.5z" />
    <glyph glyph-name="f.alt3" 
d="M461 708q21 0 36 -15t15 -35q0 -21 -15 -36t-36 -15h-314v-557q0 -20 -14.5 -35t-36.5 -15q-20 0 -35 15t-15 35v608q0 19 15 36q14 14 35 14h365zM309 404q21 0 36 -15t15 -35t-15 -35t-36 -15q-20 0 -35 15t-15 35t15 35t35 15z" />
    <glyph glyph-name="M.alt3" horiz-adv-x="663" 
d="M626 49q0 -20 -14.5 -34.5t-34.5 -14.5t-35 14.5t-15 34.5v458l-152 -188q-7 -9 -17 -13.5t-21 -4.5q-26 0 -39 18l-152 188v-458q0 -20 -14.5 -34.5t-35.5 -14.5q-20 0 -34.5 14.5t-14.5 34.5v602q0 15 9 28.5t24 18.5l-1 -1q12 3 22 3h470h11.5t9.5 -2q16 -5 25 -18.5
t9 -28.5v-602zM474 600h-274l137 -171z" />
    <glyph glyph-name="one.alt1" horiz-adv-x="342" 
d="M251 708q20 0 35 -15t15 -35v-608q0 -20 -15 -35t-35 -15t-35 15t-15 35v193h-102q-21 0 -35.5 15t-14.5 36q0 20 14.5 35t35.5 15h102v81h-72q-20 0 -35 15t-15 36q0 20 15 35t35 15h72v81q-26 0 -44 15t-18 36q0 20 15 35t36 15h61z" />
    <glyph glyph-name="three.alt1" horiz-adv-x="546" 
d="M418 419q44 -32 68.5 -80.5t24.5 -106.5q0 -48 -18.5 -90.5t-50 -74t-73.5 -49.5t-90 -18t-90.5 18t-74 49.5t-50 74t-18.5 90.5t18.5 90.5t50 74.5t74 50.5t90.5 18.5h6q27 2 46 22.5t19 47.5q0 30 -21 50.5t-50 20.5h-122q-20 0 -35 15t-15 36q0 20 15 35t35 15h122
q35 0 66.5 -13.5t55 -37t37 -54.5t13.5 -67q0 -57 -35 -103zM279 101q27 0 51 10t42 28t28.5 42t10.5 51q0 28 -10.5 52t-28.5 42t-42 28.5t-51 10.5t-51 -10.5t-42.5 -28.5t-29 -42t-10.5 -52q0 -27 10.5 -51t29 -42t42.5 -28t51 -10z" />
    <glyph glyph-name="nine.alt1" 
d="M279 708q48 0 90.5 -18.5t74 -50t50 -73.5t18.5 -90t-18.5 -90.5t-50 -74t-74 -50t-90.5 -18.5q-2 0 -4 0.5t-9 3.5l-122 -221q-7 -12 -19.5 -19t-24.5 -7t-24 6q-13 8 -19.5 19.5t-6.5 24.5q0 11 7 25l108 197q-54 33 -86.5 87t-32.5 117q0 48 18.5 90t50 73.5t74 50
t90.5 18.5zM279 344q28 0 52 10t42 28t28 42t10 52q0 27 -10 51t-28 42t-42 28t-52 10q-27 0 -51 -10t-42 -28t-28.5 -42t-10.5 -51q0 -28 10.5 -52t28.5 -42t42 -28t51 -10z" />
    <glyph glyph-name="six.alt1" 
d="M279 0q-48 0 -90.5 18t-74 49.5t-50 74t-18.5 90.5t18.5 90.5t50 74.5t74 50.5t90.5 18.5q2 0 4 -0.5t9 -2.5q29 51 61.5 109.5t60.5 109.5q7 12 19 19t25 7q10 0 24 -6q14 -7 20.5 -18.5t6.5 -25.5q0 -9 -7 -25l-111 -198q54 -32 87.5 -86t33.5 -117q0 -48 -18.5 -90.5
t-50 -74t-74 -49.5t-90.5 -18zM279 365q-27 0 -51 -10.5t-42 -28.5t-28.5 -42t-10.5 -52q0 -27 10.5 -51t28.5 -42t42 -28t51 -10q28 0 52 10t42 28t28 42t10 51q0 28 -10 52t-28 42t-42 28.5t-52 10.5z" />
    <glyph glyph-name="f_i_v_e.001" horiz-adv-x="1101" 
d="M47 621q6 12 18 19.5t26 7.5t27 -7l75 -39v56q0 20 15 35t35 15q21 0 36 -15t15 -35v-108l111 -58v166q0 20 15 35t36 15q20 0 35 -15t15 -35v-218l112 -59v277q0 20 15 35t36 15q20 0 35 -15t15 -35v-328l112 -58v386q0 20 15 35t35 15t35 -15t15 -35v-437
q30 -15 63 -32.5t62 -32.5h-1q14 -7 21 -19.5t7 -26.5q0 -10 -5 -23v2q-7 -14 -19 -21.5t-26 -7.5q-6 0 -12 2.5t-12 4.5l-78 39v-56q0 -20 -15 -35t-35 -15t-35 15t-15 35v108l-112 60v-168q0 -20 -15 -35t-35 -15q-21 0 -36 15t-15 35v219l-112 58v-277q0 -20 -15 -35
t-35 -15q-21 0 -36 15t-15 35v328l-111 58v-386q0 -20 -15 -35t-36 -15q-20 0 -35 15t-15 35v439l-125 64q-13 6 -20 18t-7 26q0 6 1 12t4 11z" />
    <glyph glyph-name="two.alt1" horiz-adv-x="494" 
d="M406 102q21 0 36 -15t15 -36t-15 -36t-36 -15h-308q-21 0 -36 15t-15 36q0 3 2 28t14 62.5t37 83.5t71 91q-54 27 -88 75.5t-36 106.5v5q0 7 0.5 15t1.5 16q6 37 23.5 69t44.5 55.5t61.5 37t73.5 13.5q42 0 79.5 -16t65.5 -44t44 -65.5t16 -79.5v-10q0 -15 -4.5 -40
t-20 -54.5t-46 -60.5t-81.5 -57h1q-33 -17 -58 -39t-43 -46t-30 -49t-19 -46h250zM159 548q-10 -20 -10 -44q0 -21 8 -40t22 -33t33 -22t40 -8t40 8t33 22t22 33t8 40v8q-3 40 -33 67t-70 27q-30 0 -55 -16t-38 -42z" />
    <glyph glyph-name="zero.alt1" 
d="M444 625q34 -40 51 -93.5t17 -116.5v-121q0 -64 -16.5 -117.5t-48.5 -93.5t-75 -61.5t-93 -21.5t-93 21.5t-75 61.5t-48.5 93.5t-16.5 117.5v121q0 63 17 116t50 94q32 40 75 61.5t91 21.5q47 0 90 -21.5t75 -61.5zM279 607q-41 0 -70 -27.5t-46 -71.5l248 -227v134
q0 35 -8.5 69.5t-25.5 61.5t-41.5 44t-56.5 17zM279 101q53 0 89 45q6 8 16 24l-237 215v-91q0 -95 42 -148q36 -45 90 -45z" />
    <glyph glyph-name="w.alt4" horiz-adv-x="896" 
d="M836 706q17 -5 26.5 -18.5t9.5 -29.5v-6t-2 -8l-182 -608q-5 -16 -18.5 -26t-29.5 -10q-14 0 -27.5 12t-20.5 24l-135 449l-134 -449q-5 -16 -18 -26t-30 -10q-14 0 -27.5 12t-20.5 24l-180 601q-3 8 -3.5 12.5t-0.5 7.5q0 16 7.5 29t21.5 18q8 3 12.5 3.5t8.5 0.5
q15 0 28 -10t20 -26l134 -449q15 49 32 106t35 116.5t35 117.5t32 109q8 13 21.5 24.5t26.5 11.5q17 0 30 -9.5t18 -26.5l135 -449q14 49 31 106t35 116.5t35.5 117.5t32.5 109q6 16 20 26t29 10h6.5t5.5 -1z" />
    <glyph glyph-name="H.alt1.001" horiz-adv-x="573" 
d="M485 700q20 0 34.5 -14.5t14.5 -34.5v-602q0 -20 -14.5 -34.5t-34.5 -14.5t-35 14.5t-15 34.5v271l-111 -98q-17 -12 -34 -12q-5 0 -10 1t-10 3q-14 6 -21.5 18.5t-7.5 26.5v53q-8 -8 -18 -19t-20.5 -23t-20.5 -23.5t-17 -19.5l-18 -14v-164q0 -20 -15 -34.5t-35 -14.5
t-35 14.5t-15 34.5v602q0 20 15 34.5t35 14.5t35 -14.5t15 -34.5v-295l106 118q8 7 18 11.5t19 4.5q10 0 18 -3q14 -6 23.5 -18.5t9.5 -28.5v-71l82 71q2 4 12 8v203q0 20 15 34.5t35 14.5z" />
    <glyph glyph-name="A.alt1.001" horiz-adv-x="664" 
d="M624 68q4 -12 2.5 -24t-7.5 -21.5t-16.5 -16t-24.5 -6.5q-15 0 -28 8.5t-19 23.5l-64 159l-89 -126q-14 -22 -40 -22q-27 0 -41 22l-89 126q-7 -17 -15 -37.5t-17 -41.5t-17.5 -41.5t-15.5 -38.5q-8 -17 -27 -26.5t-36 -2.5q-20 8 -28.5 26.5t-0.5 38.5l88 220l-22 34
q-5 6 -7 13t-2 14q0 12 5.5 22t15.5 17t23.5 9t28.5 -2l110 273q6 14 18.5 23t28.5 9q14 0 26.5 -9.5t19.5 -22.5l109 -273q16 4 29.5 2t23 -9t15 -17.5t5.5 -21.5q0 -16 -8 -27l-22 -34zM338 180l85 123l-85 213l-86 -213z" />
    <glyph glyph-name="G.alt1.001" horiz-adv-x="751" 
d="M709 75q2 -5 4.5 -12.5t2.5 -12.5q0 -18 -13 -34t-36 -16q-14 0 -25.5 6t-18.5 18l-24 41q-48 -32 -100 -48.5t-103 -16.5q-68 0 -131.5 26.5t-112 73.5t-77.5 111t-29 139t29 139t77 111t111.5 73.5t132.5 26.5t132.5 -25.5t114.5 -76.5q7 -7 10.5 -17t3.5 -19
q0 -20 -14.5 -34.5t-34.5 -14.5q-21 0 -35 14q-36 36 -82.5 54.5t-94.5 18.5q-51 0 -96.5 -20t-79.5 -54.5t-54 -80t-20 -95.5q0 -51 20 -96.5t54 -79.5t79.5 -54t96.5 -20q38 0 77 12t75 38l-105 174q-2 5 -4.5 13t-2.5 13q0 20 15 34.5t35 14.5h180q20 0 35 -14.5
t15 -34.5t-15 -34.5t-35 -14.5h-92z" />
    <glyph glyph-name="Q.alt1" horiz-adv-x="692" 
d="M656 350q0 -64 -19.5 -121.5t-54 -103.5t-81 -77.5t-101.5 -43.5v-71q0 -20 -14.5 -34.5t-34.5 -14.5q-21 0 -35.5 14.5t-14.5 34.5v72q-55 12 -101.5 43.5t-80.5 77t-53.5 103t-19.5 121.5q0 72 24 135.5t65.5 111.5t97 75.5t118.5 27.5t118.5 -27.5t97 -75.5
t65.5 -111.5t24 -135.5zM400 106q34 13 63 37.5t50 56.5t32.5 70t11.5 80q0 52 -16 97.5t-44 79.5t-65.5 53.5t-80.5 19.5q-42 0 -79.5 -19.5t-65.5 -53.5t-44 -79.5t-16 -97.5q0 -41 11.5 -79t32 -70t49 -56.5t62.5 -38.5v68q0 20 14.5 34.5t35.5 14.5q20 0 34.5 -14.5
t14.5 -34.5v-68z" />
    <glyph glyph-name="R.alt1" horiz-adv-x="518" 
d="M463 80q14 -14 14 -36q0 -21 -13 -35q-17 -14 -36 -14t-35 14l-245 240v-205q0 -20 -15 -34.5t-35 -14.5q-21 0 -35.5 14.5t-14.5 34.5v601q0 20 14.5 35t35.5 15h149q3 0 13 -0.5t26 -3.5t35 -8.5t40 -15.5h-1q57 -29 87.5 -81t30.5 -121t-30.5 -121.5t-87.5 -81.5h1
q-11 -5 -25.5 -10t-34.5 -11zM148 335h99q1 0 7.5 0.5t16.5 2.5t22.5 5.5t24.5 9.5q29 17 44.5 44.5t15.5 67.5q0 41 -15.5 68t-44.5 43q-12 6 -24.5 10t-22.5 6t-16.5 2.5t-7.5 0.5h-99v-260z" />
    <glyph glyph-name="V.alt1" horiz-adv-x="663" 
d="M337 0q-15 0 -27.5 9.5t-19.5 22.5l-240 600q-3 7 -3 18q0 14 8.5 28t23.5 19q7 3 17 3q15 0 28 -8.5t18 -23.5l195 -484l167 416h-48q-20 0 -34.5 15t-14.5 35t14.5 35t34.5 15h121q12 0 23 -6t18 -17q8 -11 8 -26q0 -12 -3 -19q-57 -145 -120 -300t-120 -300
q-7 -13 -19.5 -22.5t-26.5 -9.5z" />
    <glyph glyph-name="x.alt7" 
d="M96 0q-15 0 -25 6q-25 16 -25 44q0 5 3 12.5l5 12.5q28 51 60 106t61 106q7 12 18.5 19.5t24.5 7.5h122q28 0 43 -27l122 -212q2 -5 4.5 -12.5t2.5 -12.5q0 -28 -26 -43q-14 -7 -25 -7q-28 0 -43 25l-107 188h-64l-107 -188q-7 -13 -19 -19t-25 -6zM208 425
q-14 0 -25.5 6.5t-18.5 17.5h1l-110 182l-6 14t-3 13q0 13 6.5 24.5t17.5 17.5q16 8 27 8q12 0 23.5 -6t18.5 -18l97 -158h55l97 158q7 12 18.5 18t24.5 6q11 0 27 -8q11 -6 17.5 -17.5t6.5 -24.5q0 -5 -2.5 -12.5t-6.5 -14.5l-111 -182h1q-7 -11 -18.5 -17.5t-25.5 -6.5
h-111z" />
    <glyph glyph-name="t.alt1" horiz-adv-x="310" 
d="M218 466q20 0 35 -15t15 -36t-15 -35.5t-35 -14.5h-68v-315q0 -20 -15 -35t-36 -15q-20 0 -35 15t-15 35v608q0 20 15 35t35 15q21 0 36 -15t15 -35v-192h68v0z" />
    <glyph glyph-name="ampersand.alt1" horiz-adv-x="654" 
d="M617 73q5 -12 5 -22q0 -29 -29 -46h1q-12 -5 -23 -5q-14 0 -26 7t-18 20l-46 91q-35 -54 -88.5 -86t-114.5 -32q-48 0 -90.5 18t-74 49.5t-50 74t-18.5 90.5t18.5 90.5t50 74.5t74 50.5t90.5 18.5q3 0 8 -1t24 -6l-87 176q-5 13 -5 23q0 12 7 26q8 12 19.5 18t23.5 6h213
q20 0 35 -15t15 -35q0 -21 -15 -36t-35 -15h-132l128 -255q13 -20 20 -43l120 -237v1zM410 232q0 20 -8 47l-15 28q-17 26 -46 42t-63 16q-27 0 -51 -10.5t-42 -28.5t-28.5 -42t-10.5 -52q0 -27 10.5 -51t28.5 -42t42 -28t51 -10q28 0 52 10t42 28t28 42t10 51z" />
    <glyph glyph-name="w.alt7.001" horiz-adv-x="945" 
d="M73 704q5 2 10 3t10 1q15 0 28 -8.5t18 -22.5l206 -496l82 194l-14 35q-5 13 -13 32t-19.5 46.5t-27 64.5t-35.5 86q-3 7 -3 18q0 15 8.5 28.5t22.5 19.5q9 3 19 3q15 0 28 -8t19 -23l206 -496l208 496q5 14 18 22.5t27 8.5q5 0 10 -1t10 -3q15 -6 23 -19t8 -28
q0 -11 -3 -18l-254 -608q-5 -14 -18 -22.5t-29 -8.5q-15 0 -27.5 8.5t-18.5 22.5l-90 216l-90 -216q-5 -14 -18 -22.5t-29 -8.5q-14 0 -27 8.5t-18 22.5l-255 608q-3 7 -3 18q0 15 8.5 28t22.5 19z" />
    <glyph glyph-name="e.alt7" 
d="M461 101q21 0 36 -15t15 -36q0 -20 -15 -35t-36 -15h-365q-20 0 -35 15t-15 35v608q0 19 15 36q14 14 35 14h365q21 0 36 -15t15 -35q0 -21 -15 -36t-36 -15h-303l218 -217q14 -17 14 -36q0 -21 -14 -35l-218 -218h303zM268 354l-121 121v-244z" />
    <glyph glyph-name="m.alt4" horiz-adv-x="722" 
d="M658 706q16 -5 25 -18t9 -30v-608q0 -20 -14.5 -35t-36.5 -15q-20 0 -35 15t-15 35v457l-172 -231v-226q0 -20 -15 -35t-35 -15q-22 0 -37 15t-15 35v226l-171 231v-457q0 -20 -15 -35t-36 -15t-35.5 15t-14.5 35v608q0 17 9 30t25 18q8 2 17 2q25 0 39 -19l234 -312
l233 312q14 19 39 19q9 0 17 -2z" />
    <glyph glyph-name="seven.001" horiz-adv-x="488" 
d="M444 684q7 -14 7 -26q0 -10 -5 -23l-304 -608q-14 -27 -45 -27q-23 0 -36.5 15.5t-13.5 35.5q0 5 1.5 11.5t3.5 11.5l268 533h-172v-71q0 -20 -15 -35t-36 -15q-20 0 -35 15t-15 35v122q0 20 15 35t35 15h304q28 0 43 -24z" />
    <glyph glyph-name="e.alt3" 
d="M96 0q-20 0 -35 15t-15 35v608q0 19 15 36q14 14 35 14h365q21 0 36 -15t15 -35q0 -21 -15 -36t-36 -15h-314v-506h314q21 0 36 -15t15 -36q0 -20 -15 -35t-36 -15h-365zM360 354q0 -20 -15 -35t-36 -15q-20 0 -35 15t-15 35t15 35t35 15q21 0 36 -15t15 -35z" />
    <glyph glyph-name="O.002" horiz-adv-x="751" 
d="M382 700q20 0 34.5 -14.5t14.5 -34.5q0 -21 -14.5 -36t-34.5 -15q-49 0 -92 -19.5t-75 -53.5t-50.5 -79.5t-18.5 -97.5t18.5 -97.5t50.5 -79.5t75 -53.5t92 -19.5q48 0 91 19.5t74.5 53.5t50 79.5t18.5 97.5q0 20 15 34.5t36 14.5q20 0 34.5 -14.5t14.5 -34.5
q0 -72 -26.5 -136t-71.5 -111.5t-106 -75t-130 -27.5t-130.5 27.5t-107 75t-72 111.5t-26.5 136t26.5 135.5t72 111.5t107 75.5t130.5 27.5z" />
    <glyph glyph-name="zero.001" horiz-adv-x="725" 
d="M628 625q34 -40 51 -93.5t17 -116.5v-121q0 -64 -16.5 -117.5t-48.5 -93.5t-75 -61.5t-93 -21.5q-49 0 -93 22q-44 -22 -93 -22q-50 0 -93 21.5t-75 61.5t-48 93.5t-16 117.5v121q0 63 16.5 116t49.5 94q32 40 75 61.5t91 21.5t93 -23q23 12 46.5 17.5t46.5 5.5
q48 0 90.5 -21.5t74.5 -61.5zM331 294q0 -38 10.5 -75.5t28.5 -70.5q39 66 39 146v121q0 33 -9.5 69.5t-29.5 71.5q-20 -35 -29.5 -71.5t-9.5 -69.5v-121zM187 146q31 -38 96 -46q-53 91 -53 194v121q0 50 14 99.5t40 95.5q-34 -5 -60 -23.5t-43 -45.5t-26 -60t-9 -66v-121
q0 -47 10.5 -84.5t30.5 -63.5zM595 415q0 33 -9 66.5t-26.5 60.5t-44 45.5t-60.5 22.5q55 -95 55 -195v-121q0 -51 -13.5 -100t-39.5 -94q32 4 56 16t39 30q20 26 31.5 64t11.5 84v121z" />
    <glyph glyph-name="Z.002" horiz-adv-x="486" 
d="M96 3q-28 0 -42 24h1q-7 14 -7 25t5 23l263 526h-169v-70q0 -20 -15 -34.5t-35 -14.5t-34.5 14.5t-14.5 34.5v120q0 20 14.5 34.5t34.5 14.5h299q12 0 23.5 -6t18.5 -18q7 -14 7 -25t-5 -23l-263 -527h169v68q0 20 15 34.5t35 14.5t34.5 -14.5t14.5 -34.5v-120
q0 -19 -14 -35q-7 -7 -16.5 -10.5t-18.5 -3.5z" />
    <glyph glyph-name="A.alt3.002" horiz-adv-x="604" 
d="M96 700q20 0 35 -14.5t15 -34.5v-444q37 54 79 114t85 121t85 121t80 115q8 10 19 16t22 6q16 0 28 -9q22 -16 22 -40q0 -8 -1.5 -15.5t-6.5 -13.5l-421 -600q-16 -22 -41 -22q-7 0 -15 2q-16 5 -25 18t-9 29v602q0 20 14.5 34.5t34.5 14.5z" />
    <glyph glyph-name="U.001" horiz-adv-x="575" 
d="M292 0q-75 0 -130 34t-86 100q-11 23 -16.5 44.5t-8.5 38.5t-3.5 28.5t-0.5 14.5v391q0 20 15 34.5t35 14.5t34.5 -14.5t14.5 -34.5v-391q0 -4 1.5 -17.5t6.5 -31t15 -37.5t26 -36.5t40 -27t57 -10.5q48 0 76.5 21.5t43.5 49t20 54t5 35.5v391q0 20 15 34.5t35 14.5
t34.5 -14.5t14.5 -34.5v-391q0 -3 -0.5 -14.5t-3 -28.5t-8.5 -38.5t-16 -44.5q-31 -66 -86 -100t-130 -34z" />
    <glyph glyph-name="D.alt1.001" horiz-adv-x="605" 
d="M96 0q-20 0 -34.5 14.5t-14.5 34.5v301q0 20 14.5 34.5t34.5 14.5h369q-8 62 -33 104.5t-64 66.5q-17 10 -34 16t-31 9t-23 4l-9 1h-175q-20 0 -34.5 15t-14.5 36q0 20 14.5 34.5t34.5 14.5h175q3 0 17 -1t34.5 -5t46 -13.5t52.5 -25.5q25 -15 51 -39.5t47 -61.5
t34.5 -87t13.5 -117t-13.5 -117t-34.5 -87t-47 -61.5t-51 -39.5q-27 -17 -52.5 -26t-46 -13t-34.5 -5t-17 -1h-175zM147 100h124q1 0 10.5 0.5t24 4t32 10t35.5 18.5h-1q77 49 93 168h-318v-201z" />
    <glyph glyph-name="notequal.001" horiz-adv-x="488" 
d="M138 319q-8 7 -11.5 16t-3.5 19q0 22 15 36l152 152q14 14 35 14q19 0 36 -14q14 -16 14 -36q0 -19 -14 -35l-116 -117l25 -25l31.5 -31.5t32.5 -32t27 -26.5q14 -17 14 -37q0 -21 -14 -35q-15 -15 -36 -15q-22 0 -35 15zM401 101q20 0 35 -15t15 -36q0 -20 -15 -35
t-35 -15h-304q-20 0 -35 15t-15 35q0 21 15 36t35 15h304z" />
    <glyph glyph-name="w.alt1" horiz-adv-x="693" 
d="M633 460q14 -6 22 -18.5t8 -26.5q0 -6 -2 -11.5t-4 -10.5l-172 -365q-7 -11 -19.5 -19.5t-25.5 -8.5q-15 0 -27.5 7.5t-18.5 20.5l-41 87l-40 -87q-6 -13 -18.5 -20.5t-26.5 -7.5q-15 0 -28 7.5t-18 20.5l-172 365q-5 12 -5 23q0 14 7 26t21 18q10 6 22 6q14 0 26 -9
t20 -21l127 -266l30 62l-76 161q-5 12 -5 22q0 14 7.5 26.5t21.5 18.5q10 6 22 6q14 0 26 -8t19 -22l40 -85l41 85q6 14 19 22t27 8q10 0 22 -6q13 -6 21 -18.5t8 -26.5q0 -12 -6 -22l-76 -161l31 -63l126 267q7 12 19.5 21t26.5 9q10 0 21 -6z" />
    <glyph glyph-name="e.001" 
d="M461 101q21 0 36 -15t15 -36q0 -20 -15 -35t-36 -15h-365q-20 0 -35 15t-15 35v608q0 20 15 35t35 15h152q21 0 35.5 -15t14.5 -35q0 -21 -14.5 -36t-35.5 -15h-101v-141h193q20 0 35 -15t15 -36t-15 -35.5t-35 -14.5h-193v-82h254q20 0 35 -15t15 -36q0 -20 -15 -35
t-35 -15h-254v-81h314z" />
    <glyph glyph-name="g.001" horiz-adv-x="692" 
d="M45 354h-21v-364h21v364zM612 404q20 0 35 -15t15 -35v-304q0 -20 -15 -35t-35 -15t-35 15t-15 35v254h-412q11 -44 34.5 -81.5t56.5 -64.5t73 -42t85 -15q20 0 35 -15t15 -36q0 -20 -15 -35t-35 -15q-73 0 -137.5 28t-112.5 76t-76 112.5t-28 137.5t28 137.5t76 112.5
t112.5 76t137.5 28h213q20 0 35 -15t15 -35q0 -21 -15 -36t-35 -15h-213q-45 0 -85 -15t-73 -42t-56.5 -64.5t-34.5 -81.5h462z" />
    <glyph glyph-name="J.alt1" horiz-adv-x="430" 
d="M98 0q-20 0 -35 14.5t-15 34.5q0 21 15 36t35 15q64 0 87 47q5 10 7.5 19t4.5 17q2 9 2 17v451q0 20 14.5 34.5t34.5 14.5h91q20 0 34.5 -15t14.5 -35t-14.5 -35t-34.5 -15h-41v-400q0 -2 -0.5 -11t-3 -22.5t-7 -30t-13.5 -34.5q-25 -50 -70.5 -76t-105.5 -26z" />
    <glyph glyph-name="K.alt1.001" horiz-adv-x="605" 
d="M556 81q11 -12 11 -31q0 -11 -4.5 -21t-14.5 -18q-12 -11 -31 -11q-22 0 -39 20v-1l-225 282h-106v-252q0 -20 -15 -34.5t-36 -14.5q-20 0 -34.5 14.5t-14.5 34.5v602q0 20 14.5 34.5t34.5 14.5q21 0 36 -14.5t15 -34.5v-252h106l225 282q8 10 18 14.5t21 4.5
q19 0 31 -11q10 -8 14.5 -18t4.5 -21q0 -19 -11 -31l-175 -220h136q20 0 35 -14.5t15 -34.5t-15 -34.5t-35 -14.5h-136z" />
    <glyph glyph-name="m.001" horiz-adv-x="722" 
d="M669 700q23 -15 23 -42v-608q0 -20 -14.5 -35t-36.5 -15q-20 0 -35 15t-15 35v303l-222 112l-223 -112v-303q0 -20 -15 -35t-36 -15t-35.5 15t-14.5 35v608q0 13 5 24t15 16q18 10 31 10q6 0 11 -1.5t10 -3.5l252 -125l250 125q12 5 22 5q16 0 26 -7zM255 521l-109 55
v-109zM591 467v109l-110 -55z" />
    <glyph glyph-name="N.alt1" horiz-adv-x="634" 
d="M547 700q20 0 35 -14.5t15 -34.5v-602q0 -16 -10.5 -29t-27.5 -18h1q-10 -2 -13 -2q-12 0 -24 6t-18 18l-269 447v-422q0 -20 -14.5 -34.5t-34.5 -14.5q-21 0 -36 14.5t-15 34.5v551h-40q-20 0 -34.5 15t-14.5 36q0 20 14.5 34.5t34.5 14.5h88q13 1 25.5 -6t19.5 -18
l268 -447v422q0 20 14.5 34.5t35.5 14.5z" />
    <glyph glyph-name="o.001" horiz-adv-x="780" 
d="M398 0q-72 0 -136 26t-115 77t-77 115t-26 136q0 71 26 135t77 115t115 77.5t136 26.5q71 0 135 -26.5t115 -77.5t77.5 -115t26.5 -135q0 -72 -26.5 -136t-77.5 -115t-115 -77t-135 -26zM398 607q-51 0 -97 -19t-82 -55t-55 -82t-19 -97t19 -97t55 -82t82 -55t97 -19
t97 19t82 55t55 82t19 97t-19 97t-55 82t-82 55t-97 19zM376 197q-22 0 -35 14l-86 86q-14 13 -14 35t14 37q14 13 36 13q9 0 18 -3t17 -10l87 -87q13 -16 13 -35q0 -22 -13 -36q-15 -14 -37 -14zM505 325q-22 0 -35 15l-86 86q-15 13 -15 35t15 36q14 14 35 14q20 0 36 -14
l86 -86q14 -16 14 -36q0 -21 -14 -35q-15 -15 -36 -15z" />
    <glyph glyph-name="P.alt1" horiz-adv-x="517" 
d="M97 0q-20 0 -34.5 14.5t-14.5 34.5v241q0 20 14.5 35t34.5 15h149q42 0 69.5 14t44.5 45q13 25 15.5 47t2.5 24q0 82 -64 114q-13 6 -25 9t-22 5q-11 2 -21 2h-98v-70q0 -20 -15 -34.5t-36 -14.5q-20 0 -34.5 14.5t-14.5 34.5v121q0 20 14.5 34.5t34.5 14.5h149
q3 0 13.5 -1t26 -4t35 -8.5t39.5 -14.5q54 -29 85.5 -81t31.5 -121q0 -2 -0.5 -12.5t-3 -25.5t-8.5 -34.5t-16 -39.5q-29 -57 -81 -87.5t-122 -30.5h-98v-191q0 -20 -15 -34.5t-36 -14.5z" />
    <glyph glyph-name="r.001" horiz-adv-x="488" 
d="M448 70q3 -8 3 -19q0 -15 -8 -28t-23 -19q-10 -4 -19 -4q-15 0 -28 8.5t-19 22.5l-130 314l-76 -99v-196q0 -20 -15 -35t-36 -15q-20 0 -35 15t-15 35v608q0 20 15 35t35 15h304q14 0 26.5 -7.5t18.5 -20.5q5 -12 5 -23q0 -8 -2.5 -16t-7.5 -14l-146 -189zM148 411
l150 196h-150v-196z" />
    <glyph glyph-name="S.alt1.001" horiz-adv-x="518" 
d="M247 0q-63 0 -115 31.5t-79 85.5q-5 13 -5 23q0 16 7 26l119 191q-101 62 -101 167q0 36 16 69.5t45 58.5q28 20 66.5 34t76.5 14q31 0 62.5 -10t57.5 -29q10 -7 15 -18t5 -22q0 -17 -9 -29q-16 -21 -41 -21q-18 0 -28 9q-14 9 -30 14.5t-32 5.5q-45 0 -75 -21.5
t-30 -54.5q0 -23 7.5 -38.5t20 -26.5t28.5 -18.5t34 -13.5q7 -2 25 -8t41 -17t47.5 -26.5t46 -36t36.5 -47t19 -58.5v-9q0 -2 0.5 -4t0.5 -4q0 -40 -15.5 -78t-42.5 -68q-32 -34 -77 -52.5t-96 -18.5zM157 139q37 -39 90 -39q64 0 100 39q31 34 31 79v8q-1 15 -11.5 29
t-26 26t-34.5 21.5t-37 17.5z" />
    <glyph glyph-name="t.001" horiz-adv-x="605" 
d="M546 580q12 -7 19 -19t7 -25q0 -9 -7 -25q-16 -25 -44 -25q-10 0 -24 7l-138 78v-521q0 -20 -15 -35t-36 -15q-20 0 -35 15t-15 35v521l-137 -78q-7 -3 -13.5 -5.5t-11.5 -2.5q-28 0 -43 26q-7 16 -7 26q0 13 6.5 24.5t18.5 18.5q51 29 106 61t106 60q6 2 13 4.5t12 2.5
t12.5 -2.5t12.5 -4.5z" />
    <glyph glyph-name="x.001" horiz-adv-x="663" 
d="M629 69q3 -8 3 -19q0 -15 -8.5 -28t-23.5 -19q-8 -3 -18 -3q-15 0 -28.5 8.5t-18.5 23.5l-75 187q-8 -20 -17.5 -44t-19.5 -49t-19.5 -49.5t-17.5 -44.5q-8 -12 -20.5 -22t-26.5 -10q-15 0 -28 10t-20 22l-74 187l-75 -187q-5 -15 -18.5 -23.5t-28.5 -8.5q-9 0 -18 3
q-14 5 -23 19t-9 29q0 10 3 18l115 285l-115 286q-3 7 -3 17q0 15 9 29t23 19q9 3 18 3q15 0 28.5 -8.5t18.5 -23.5l75 -186q7 20 17 44t20 48.5t19.5 49t17.5 44.5q7 13 20 22.5t28 9.5q14 0 26.5 -9.5t20.5 -22.5l74 -186l75 186q5 15 19 23.5t29 8.5q9 0 17 -3
q15 -6 23.5 -19t8.5 -28q0 -11 -3 -18l-115 -286zM406 354l-67 169l-68 -169l68 -169z" />
    <glyph glyph-name="Z.alt1.001" 
d="M457 100q21 0 36 -15t15 -36q0 -20 -15 -34.5t-36 -14.5h-360q-29 0 -41 24q-9 13 -9 26q0 7 1 13t6 11l136 227h-93q-20 0 -35 14.5t-15 34.5t15 34.5t35 14.5h152l121 201h-273q-20 0 -35 15t-15 36q0 20 15 34.5t35 14.5h360q14 0 25.5 -6.5t17.5 -19.5q7 -11 7 -23
q0 -15 -8 -26l-134 -226h92q21 0 36 -14.5t15 -34.5t-15 -34.5t-36 -14.5h-152l-121 -201h273z" />
    <glyph glyph-name="k.001" horiz-adv-x="576" 
d="M534 77q8 -11 8 -27q0 -28 -23 -43v1q-14 -8 -27 -8t-24.5 6t-19.5 17l-194 297l-107 -109v-161q0 -20 -15 -35t-36 -15q-20 0 -35 15t-15 35v608q0 16 10 29.5t27 18.5h-2q5 1 9 1.5t6 0.5q27 0 43 -23l134 -205l182 184q17 14 36 14q20 0 36 -14q14 -15 14 -37t-14 -35
l-198 -198zM198 406l-51 82v-134z" />
    <glyph glyph-name="a.alt1" horiz-adv-x="488" 
d="M401 466q20 0 35 -15t15 -36v-365q0 -20 -15 -35t-35 -15q-15 0 -28.5 10.5t-21.5 26.5q-28 -17 -58.5 -27t-62.5 -10q-38 0 -71.5 12.5t-58 34t-39 50t-14.5 60.5t14.5 60.5t39 50t58 34t71.5 12.5q29 0 59 -10.5t61 -28.5v90h-193q-20 0 -35 14.5t-15 35.5t15 36t35 15
h244zM230 101q15 0 29.5 4t26.5 11.5t19.5 18t7.5 22.5t-7.5 22.5t-19.5 18t-26.5 11.5t-29.5 4t-29.5 -4t-26.5 -11.5t-19.5 -18t-7.5 -22.5t7.5 -22.5t19.5 -18t26.5 -11.5t29.5 -4z" />
    <glyph glyph-name="M.alt1" horiz-adv-x="780" 
d="M720 693q12 -6 19 -17.5t7 -24.5v-602q0 -20 -15 -34.5t-35 -14.5t-35 14.5t-15 34.5v514l-139 -84q28 -28 43.5 -61t15.5 -68t-13.5 -66t-36.5 -54t-54 -36.5t-66 -13.5t-66 13.5t-54 36.5t-36.5 54t-13.5 66t15 68t44 61l-139 84v-514q0 -20 -15 -34.5t-36 -14.5
q-20 0 -34.5 14.5t-14.5 34.5v602q0 13 6.5 24.5t18.5 17.5q16 7 24 7q5 0 13 -2.5t13 -4.5l275 -165l275 165q5 2 12.5 4.5t12.5 2.5q10 0 24 -7zM396 280q29 0 49.5 20.5t20.5 49.5t-20.5 49.5t-49.5 20.5t-49.5 -20.5t-20.5 -49.5t20.5 -49.5t49.5 -20.5z" />
    <glyph glyph-name="E.alt1.001" 
d="M457 100q21 0 36 -15t15 -36q0 -20 -15 -34.5t-36 -14.5h-360q-20 0 -35 14.5t-15 34.5v602q0 18 15 35q14 14 35 14h360q21 0 36 -14.5t15 -34.5q0 -21 -15 -36t-36 -15h-299l215 -215q14 -16 14 -35q0 -21 -14 -35l-215 -215h299zM267 350l-120 119v-240z" />
    <glyph glyph-name="F.alt1.001" 
d="M457 700q21 0 36 -14.5t15 -34.5q0 -21 -15 -36t-36 -15h-310v-94q37 14 70 14q35 0 66 -13.5t54 -36.5t36.5 -54t13.5 -66t-13.5 -66t-36.5 -54t-54 -36.5t-66 -13.5q-33 0 -70 14v-145q0 -20 -14.5 -34.5t-35.5 -14.5q-20 0 -35 14.5t-15 34.5v602q0 20 15 34.5
t35 14.5h360zM217 420q-29 0 -49.5 -20.5t-20.5 -49.5t20.5 -49.5t49.5 -20.5t49.5 20.5t20.5 49.5t-20.5 49.5t-49.5 20.5z" />
    <glyph glyph-name="g.alt1" horiz-adv-x="517" 
d="M264 0q-28 0 -57.5 9.5t-58.5 25.5v-86h161q21 0 36 -15t15 -35v-92q0 -20 -15 -35t-36 -15q-20 0 -35 15t-15 35v41h-162q-20 0 -35 15t-15 36v303q0 8 1 12q-1 5 -1 9.5v9.5q0 48 17 90.5t46.5 74t69 50t84.5 18.5t84.5 -18.5t69 -50t46.5 -74t17 -90.5t-17 -90.5
t-46.5 -74t-69 -50t-84.5 -18.5zM264 365q-24 0 -45.5 -10.5t-37 -28.5t-24.5 -42t-9 -51q0 -28 9 -52t24.5 -42t37 -28t45.5 -10t45.5 10t37 28t25 42t9.5 52q0 27 -9.5 51t-25 42t-37 28.5t-45.5 10.5z" />
    <glyph glyph-name="k.alt1" horiz-adv-x="459" 
d="M410 83q11 -12 11 -32q0 -25 -18 -40q-14 -11 -32 -11q-23 0 -38 19v-1l-130 157l-55 -54v-71q0 -20 -15 -35t-36 -15q-20 0 -35 15t-15 35v608q0 20 15 35t35 15q21 0 36 -15t15 -35v-394l188 187q14 14 35 14q19 0 36 -14q14 -16 14 -36t-14 -36l-133 -132l136 -164v0z
" />
    <glyph glyph-name="T.alt1.001" 
d="M457 700q21 0 36 -14.5t15 -34.5q0 -21 -15 -36t-36 -15h-130v-87q53 -19 86.5 -63t33.5 -100t-33.5 -100t-86.5 -63v-138q0 -20 -14.5 -34.5t-35.5 -14.5q-20 0 -34.5 14.5t-14.5 34.5v138q-53 19 -87 63t-34 100t34 100t87 63v87h-131q-20 0 -35 15t-15 36
q0 20 15 34.5t35 14.5h360zM277 280q29 0 50 20.5t21 49.5t-21 49.5t-50 20.5t-49.5 -20.5t-20.5 -49.5t20.5 -49.5t49.5 -20.5z" />
    <glyph glyph-name="I.alt3" horiz-adv-x="430" 
d="M339 520q20 0 34.5 -15t14.5 -35t-14.5 -35t-34.5 -15h-71v-371q0 -20 -15 -34.5t-35 -14.5h-120q-20 0 -35 14.5t-15 34.5q0 21 15 36t35 15h71v110h-71q-20 0 -35 14.5t-15 34.5q0 21 15 36t35 15h71v341q0 20 14.5 34.5t34.5 14.5h121q20 0 34.5 -14.5t14.5 -34.5
q0 -21 -14.5 -36t-34.5 -15h-71v-80h71z" />
    <glyph glyph-name="I.alt1.001" horiz-adv-x="430" 
d="M388 350q0 -56 -33.5 -100t-86.5 -63v-138q0 -20 -15 -34.5t-35 -14.5t-34.5 14.5t-14.5 34.5v138q-53 19 -87 63t-34 100t34 100t87 63v138q0 20 14.5 34.5t34.5 14.5t35 -14.5t15 -34.5v-138q53 -19 86.5 -63t33.5 -100zM218 280q29 0 49.5 20.5t20.5 49.5t-20.5 49.5
t-49.5 20.5t-49.5 -20.5t-20.5 -49.5t20.5 -49.5t49.5 -20.5z" />
    <glyph glyph-name="r.alt1" horiz-adv-x="320" 
d="M228 466q20 0 35 -15t15 -36t-15 -35.5t-35 -14.5h-78v-315q0 -20 -15 -35t-36 -15q-20 0 -35 15t-15 35v365q0 21 15 36t35 15h129v0z" />
    <glyph glyph-name="q.alt1.001" horiz-adv-x="692" 
d="M662 354q0 -65 -20 -123t-54.5 -104.5t-82 -78.5t-102.5 -44v-72q0 -20 -15 -35t-35 -15q-21 0 -36 15t-15 35v73q-55 12 -102 44t-81.5 78t-54 104t-19.5 123q0 73 24 137.5t66 112.5t98 76t120 28t120 -28t98 -76t66.5 -112.5t24.5 -137.5zM403 107q34 14 63.5 38.5
t50.5 57t33 71t12 80.5q0 53 -16.5 99t-44.5 80.5t-66.5 54t-81.5 19.5t-80.5 -19.5t-65.5 -54t-44.5 -80.5t-16.5 -99q0 -42 11.5 -80.5t32 -70.5t49 -57t63.5 -39v69q0 20 15 35t36 15q20 0 35 -15t15 -35v-69z" />
    <glyph glyph-name="W.alt1.001" horiz-adv-x="780" 
d="M696 700q20 0 35 -14.5t15 -34.5v-602q0 -13 -7 -24.5t-19 -17.5q-14 -7 -24 -7q-5 0 -12.5 2.5t-12.5 4.5l-275 165l-276 -166q-5 -4 -11.5 -5t-12.5 -1q-14 0 -27 8q-11 6 -17 17t-6 24v602q0 20 14.5 34.5t34.5 14.5q21 0 36 -14.5t15 -34.5v-514l139 84
q-29 27 -44 60.5t-15 68.5t13.5 66t36.5 54t54 36.5t66 13.5t66 -13.5t54 -36.5t36.5 -54t13.5 -66t-15.5 -68.5t-43.5 -60.5l139 -84v514q0 20 15 34.5t35 14.5zM396 420q-29 0 -49.5 -20.5t-20.5 -49.5t20.5 -49.5t49.5 -20.5t49.5 20.5t20.5 49.5t-20.5 49.5t-49.5 20.5z
" />
    <glyph glyph-name="L.alt1.001" 
d="M457 100q21 0 36 -15t15 -36q0 -20 -15 -34.5t-36 -14.5h-360q-20 0 -35 14.5t-15 34.5v602q0 20 15 34.5t35 14.5q21 0 35.5 -14.5t14.5 -34.5v-145q37 14 70 14q35 0 66 -13.5t54 -36.5t36.5 -54t13.5 -66t-13.5 -66t-36.5 -54t-54 -36.5t-66 -13.5q-33 0 -70 14v-94
h310zM217 420q-29 0 -49.5 -20.5t-20.5 -49.5t20.5 -49.5t49.5 -20.5t49.5 20.5t20.5 49.5t-20.5 49.5t-49.5 20.5z" />
    <glyph glyph-name="X.alt1.001" horiz-adv-x="644" 
d="M596 80q11 -12 11 -30q0 -23 -20 -40q-13 -10 -30 -10q-11 0 -21.5 6t-18.5 14l-132 170q-16 -5 -31 -7.5t-27 -2.5t-26.5 2.5t-31.5 7.5l-134 -170q-14 -20 -39 -20q-14 0 -31 10q-18 16 -18 40q0 17 10 30l132 169q-15 23 -23.5 48.5t-8.5 52.5t8.5 52.5t23.5 48.5
l-132 169q-10 11 -10 30q0 24 18 40q17 10 30 10q10 0 21 -6t19 -14l133 -170q17 5 31.5 7.5t27.5 2.5q11 0 26 -2.5t31 -7.5l133 170q8 8 19.5 14t20.5 6q17 0 30 -10q20 -17 20 -40q0 -19 -11 -30l-131 -169q14 -23 23 -48.5t9 -52.5t-9 -52.5t-23 -48.5zM257 350
q0 -29 20.5 -49.5t49.5 -20.5t49.5 20.5t20.5 49.5t-20.5 49.5t-49.5 20.5t-49.5 -20.5t-20.5 -49.5z" />
    <glyph glyph-name="b.001" 
d="M461 708q21 0 36 -15t15 -35v-608q0 -20 -15 -35t-36 -15q-20 0 -35 15t-15 35v254h-264v-254q0 -20 -14.5 -35t-36.5 -15q-20 0 -35 15t-15 35v608q0 20 15 35t35 15h365zM411 404v203h-264v-203h264z" />
    <glyph glyph-name="c.001" horiz-adv-x="984" 
d="M92 0q-20 0 -35 15t-15 35q0 21 15 36t35 15h821q20 0 35 -15t15 -36q0 -20 -15 -35t-35 -15h-821zM298 195q-53 0 -99.5 20t-81.5 55t-55 82t-20 100t20 99.5t55 81.5t81.5 55t99.5 20q55 0 103 -21q19 -8 27 -27.5t-1 -38.5q-8 -20 -27 -27.5t-39 1.5q-32 12 -63 12
q-32 0 -60.5 -12t-49.5 -33t-33 -49t-12 -61q0 -32 12 -60.5t33 -49.5t49.5 -33.5t60.5 -12.5q34 0 63 13q20 9 39 1t27 -27q9 -20 1 -39t-27 -27q-50 -22 -103 -22zM728 184q-48 0 -90 20.5t-73.5 56.5t-49.5 83.5t-18 101.5t18 102t49.5 83.5t73.5 56t90 20.5t89.5 -20.5
t73 -56t49.5 -83.5t18 -102t-18 -101.5t-49.5 -83.5t-73 -56.5t-89.5 -20.5zM728 607q-27 0 -51 -12.5t-41.5 -34.5t-27.5 -51.5t-10 -62.5q0 -34 10 -63.5t27.5 -51.5t41.5 -34.5t51 -12.5t50.5 12.5t41 34.5t27.5 51.5t10 63.5q0 33 -10 62.5t-27.5 51.5t-41 34.5
t-50.5 12.5z" />
    <glyph glyph-name="u.alt3" horiz-adv-x="575" 
d="M293 304q-20 0 -35 15t-15 35t15 35t35 15q21 0 36 -15t15 -35t-15 -35t-36 -15zM294 0q-75 0 -131 34.5t-88 100.5q-11 23 -16.5 45t-8.5 39.5t-3.5 29.5t-0.5 15v394q0 20 15 35t35 15t35 -15t15 -35v-394q0 -4 1.5 -18t7 -32t15.5 -38t26.5 -36.5t40 -27.5t57.5 -11
q48 0 77 22t44.5 50t20.5 54.5t5 36.5v394q0 20 15 35t35 15t35 -15t15 -35v-394q0 -3 -0.5 -15t-3 -29.5t-8.5 -39.5t-16 -45q-32 -66 -88 -100.5t-131 -34.5z" />
    <glyph glyph-name="n.alt1.001" horiz-adv-x="488" 
d="M401 466q20 0 35 -15t15 -36v-365q0 -20 -15 -35t-35 -15t-35 15t-15 35v135l-203 135v-270q0 -20 -15 -35t-36 -15q-20 0 -35 15t-15 35v365q0 14 7 25.5t20 18.5q11 7 24 7q7 0 14 -2t13 -7l226 -150v108q0 21 15 36t35 15z" />
    <glyph glyph-name="m.alt3" horiz-adv-x="663" 
d="M632 50q0 -20 -15 -35t-35 -15t-35 15t-15 35v464l-155 -191q-13 -19 -38 -19t-40 19l-153 191v-464q0 -20 -15 -35t-36 -15q-20 0 -35 15t-15 35v608q0 16 9.5 29.5t24.5 18.5l-2 -1q13 3 23 3h475h12.5t9.5 -2q16 -5 25.5 -18.5t9.5 -29.5v-608zM477 607h-277l139 -173
z" />
    <glyph glyph-name="U.alt3" horiz-adv-x="575" 
d="M291 301q-20 0 -34.5 14.5t-14.5 34.5t14.5 34.5t34.5 14.5q21 0 36 -14.5t15 -34.5t-15 -34.5t-36 -14.5zM292 0q-75 0 -130 34t-86 100q-11 23 -16.5 44.5t-8.5 38.5t-3.5 28.5t-0.5 14.5v391q0 20 15 34.5t35 14.5t34.5 -14.5t14.5 -34.5v-391q0 -4 1.5 -17.5t6.5 -31
t15 -37.5t26 -36.5t40 -27t57 -10.5q48 0 76.5 21.5t43.5 49t20 54t5 35.5v391q0 20 15 34.5t35 14.5t34.5 -14.5t14.5 -34.5v-391q0 -3 -0.5 -14.5t-3 -28.5t-8.5 -38.5t-16 -44.5q-31 -66 -86 -100t-130 -34z" />
    <glyph glyph-name="W.alt4" horiz-adv-x="896" 
d="M829 698q17 -5 26 -18.5t9 -28.5v-7t-2 -8l-180 -600q-5 -17 -18 -26.5t-29 -9.5q-14 0 -27 12t-21 24l-132 444l-133 -444q-5 -17 -18 -26.5t-30 -9.5q-13 0 -26.5 12t-20.5 24l-178 594q-3 8 -3.5 12t-0.5 8q0 15 7.5 28t21.5 18q8 3 12 3.5t8 0.5q15 0 28 -10t20 -26
l132 -444q15 48 32 105t34.5 115.5t34.5 116t32 107.5q7 12 20.5 24t27.5 12q16 0 29 -9.5t18 -26.5l133 -444q14 48 31 105t34.5 115.5t35 116t32.5 107.5q6 16 19.5 26t28.5 10h6.5t5.5 -1z" />
    <glyph glyph-name="Z.alt3" horiz-adv-x="548" 
d="M98 600q-20 0 -35 15t-15 36q0 20 15 34.5t35 14.5h360q22 0 36.5 -15.5t14.5 -34.5q0 -11 -8 -24l-20 -35l-39 -68q-7 -13 -18.5 -19.5t-25.5 -6.5q-23 0 -36.5 15t-13.5 35q0 9 6 20q3 6 8.5 15t12.5 18h-277zM278 399q21 0 35.5 -14.5t14.5 -34.5t-14.5 -34.5
t-35.5 -14.5q-20 0 -34.5 14.5t-14.5 34.5t14.5 34.5t34.5 14.5zM458 100q21 0 36 -15t15 -36q0 -20 -15 -34.5t-36 -14.5h-360q-4 0 -11 1.5t-13.5 4.5t-11.5 7.5t-5 10.5q-9 13 -9 26q0 14 7 24q5 8 9.5 18t9.5 19v-1q9 16 18 33t19.5 30t22 21.5t25.5 8.5q10 0 24 -6h-1
q13 -7 19.5 -18.5t6.5 -25.5q0 -12 -6 -24l-2 -4q-2 -3 -4.5 -7t0.5 -1l7 -17h255z" />
    <glyph glyph-name="E.alt3" 
d="M97 0q-20 0 -35 14.5t-15 34.5v602q0 18 15 35q14 14 35 14h360q21 0 36 -14.5t15 -34.5q0 -21 -15 -36t-36 -15h-310v-500h310q21 0 36 -15t15 -36q0 -20 -15 -34.5t-36 -14.5h-360zM357 350q0 -20 -14.5 -34.5t-35.5 -14.5q-20 0 -35 14.5t-15 34.5t15 34.5t35 14.5
q21 0 35.5 -14.5t14.5 -34.5z" />
    <glyph glyph-name="M.alt4" horiz-adv-x="722" 
d="M652 698q16 -5 25 -18t9 -29v-602q0 -20 -14.5 -34.5t-35.5 -14.5q-20 0 -34.5 14.5t-14.5 34.5v452l-171 -228v-224q0 -20 -15 -34.5t-35 -14.5t-35 14.5t-15 34.5v224l-170 228v-452q0 -20 -15 -34.5t-35 -14.5t-35 14.5t-15 34.5v602q0 16 9.5 29t24.5 18q8 2 17 2
q24 0 39 -20l230 -307l231 307q14 20 39 20q8 0 16 -2z" />
    <glyph glyph-name="i.alt3.001" horiz-adv-x="430" 
d="M169 526v81h-71q-20 0 -35 15t-15 36q0 20 15 35t35 15h121q21 0 35.5 -15t14.5 -35v-344h72q20 0 35 -15t15 -37q0 -20 -15 -34.5t-35 -14.5h-72v-112h72q20 0 35 -15t15 -36q0 -20 -15 -35t-35 -15h-122q-20 0 -35 15t-15 35v375h-71q-20 0 -35 15t-15 36q0 20 15 35
t35 15h71z" />
    <glyph glyph-name="H.alt3" horiz-adv-x="576" 
d="M97 0q-20 0 -35 14.5t-15 34.5v602q0 20 15 34.5t35 14.5t35 -14.5t15 -34.5v-602q0 -20 -15 -34.5t-35 -14.5zM487 0q-20 0 -35 14.5t-15 34.5v602q0 20 15 34.5t35 14.5q21 0 35.5 -14.5t14.5 -34.5v-602q0 -20 -14.5 -34.5t-35.5 -14.5zM342 350q0 -20 -15 -34.5
t-35 -14.5t-34.5 14.5t-14.5 34.5t14.5 34.5t34.5 14.5t35 -14.5t15 -34.5z" />
    <glyph glyph-name="F.alt3" 
d="M457 700q21 0 36 -14.5t15 -34.5q0 -21 -15 -36t-36 -15h-310v-551q0 -20 -14.5 -34.5t-35.5 -14.5q-20 0 -35 14.5t-15 34.5v602q0 18 15 35q14 14 35 14h360zM307 399q21 0 35.5 -14.5t14.5 -34.5t-14.5 -34.5t-35.5 -14.5q-20 0 -35 14.5t-15 34.5t15 34.5t35 14.5z
" />
    <glyph glyph-name="less.alt1" horiz-adv-x="694" 
d="M244 574q13 13 35 13t36 -13q14 -14 14 -37q0 -22 -14 -35l-97 -95h102l167 167q14 13 36 13t35 -13q15 -15 15 -37q0 -20 -15 -35l-96 -95h152q20 0 35 -15t15 -36q0 -20 -15 -35t-35 -15h-157l101 -100q8 -7 11.5 -16.5t3.5 -18.5q0 -21 -15 -37q-16 -14 -36 -14
q-10 0 -19 4t-16 10l-171 172h-101l100 -100q14 -14 14 -36t-14 -36q-16 -14 -36 -14q-21 0 -35 14l-185 185q-14 14 -14 35q0 19 14 36z" />
    <glyph glyph-name="T.alt3" 
d="M480 515q13 -7 20.5 -19t7.5 -26q0 -2 -2 -10q-5 -18 -18.5 -29t-30.5 -11h-130v-371q0 -20 -14.5 -34.5t-35.5 -14.5q-20 0 -34.5 14.5t-14.5 34.5v371h-131q-20 0 -35 15t-15 35t15 35t35 15h110l4 17l-137 68h1q-13 8 -20.5 19.5t-7.5 25.5q0 4 3 10q4 18 17 29t30 11
h360q21 0 36 -14.5t15 -34.5q0 -21 -15 -36t-36 -15h-110l-4 -17z" />
    <glyph glyph-name="B.alt1" 
d="M97 0q-21 0 -35 14q-15 17 -15 35v602q0 20 15 34.5t35 14.5h157h3.5t8.5 -2q6 2 7.5 2h3.5h180q32 0 45 -28q5 -8 5 -21q0 -18 -11 -31l-151 -196q21 -6 35 -11t23 -9h-1q51 -28 78.5 -76t27.5 -113q0 -54 -18 -93.5t-46.5 -65t-63.5 -39.5t-69 -17h-214zM147 100h159
q8 1 25.5 5.5t35.5 15.5q41 30 41 94q0 24 -5 41.5t-12.5 29t-17 18.5t-17.5 11q-9 5 -19 7.5l-18 4.5q-10 2 -19 3h-53q-14 0 -26 8t-18 20q-5 12 -5 23q0 16 10 30l147 189h-84q-2 0 -2.5 0.5t-2.5 0.5t-3 -0.5t-3 -0.5h-113v-500z" />
    <glyph glyph-name="h.alt3" horiz-adv-x="576" 
d="M96 0q-20 0 -35 15t-15 35v608q0 20 15 35t35 15q21 0 36 -15t15 -35v-608q0 -20 -15 -35t-36 -15zM491 0q-20 0 -35 15t-15 35v608q0 20 15 35t35 15q21 0 36 -15t15 -35v-608q0 -20 -15 -35t-36 -15zM344 354q0 -20 -15 -35t-35 -15t-35 15t-15 35t15 35t35 15t35 -15
t15 -35z" />
    <glyph glyph-name="j.001" horiz-adv-x="430" 
d="M189 0q-21 0 -36 15t-15 35q0 21 15 36t36 15q33 0 54 11.5t34 36.5v-1q5 10 7 19.5t4 17.5q2 9 2 17v135l-231 289q-5 7 -8 15.5t-3 16.5q0 7 1.5 12t3.5 10q5 13 18 20.5t27 7.5h243q20 0 35 -15t15 -35v-456q0 -2 -0.5 -11t-3 -22.5t-7.5 -30.5t-13 -35
q-25 -48 -71.5 -75.5t-106.5 -27.5zM204 607l86 -110v110h-86z" />
    <glyph glyph-name="O.alt7 " horiz-adv-x="576" 
d="M292 180q-51 0 -95.5 20.5t-77.5 56t-52.5 83t-19.5 101.5t19.5 101t52.5 82t77.5 55.5t95.5 20.5t95.5 -20.5t77.5 -55.5t52.5 -82t19.5 -101t-19.5 -101.5t-52.5 -83t-77.5 -56t-95.5 -20.5zM292 600q-30 0 -56.5 -12.5t-46 -34t-31 -50.5t-11.5 -62q0 -34 11.5 -63.5
t31 -51t46 -34t56.5 -12.5t56 12.5t46 34t31.5 51t11.5 63.5q0 33 -11.5 62t-31.5 50.5t-46 34t-56 12.5zM457 100q21 0 35.5 -15t14.5 -36q0 -20 -14.5 -34.5t-35.5 -14.5h-331q-20 0 -34.5 14.5t-14.5 34.5q0 21 14.5 36t34.5 15h331z" />
    <glyph glyph-name="p.alt1" horiz-adv-x="488" 
d="M443 78q8 -11 8 -28q0 -13 -6 -23q-7 -13 -18.5 -20t-25.5 -7h-253v-193q0 -20 -15 -35t-36 -15q-20 0 -35 15t-15 35v609q0 20 15 35t35 15h304q14 0 25.5 -7.5t18.5 -19.5q6 -12 6 -23q0 -17 -8 -29l-103 -154zM238 205q-9 12 -9 27q0 8 2 15t7 13l68 105h-158v-264
h158l-68 103v1z" />
    <glyph glyph-name="s.001" 
d="M309 0q-5 0 -10 0.5t-9 2.5q-14 7 -22.5 19.5t-8.5 27.5q0 5 1 10t3 10l123 295h-290q-26 0 -41 21q-9 12 -9 28q0 11 4 18l90 243q8 13 20.5 23t26.5 10q10 0 18 -3q15 -6 24 -18.5t9 -28.5q0 -11 -3 -18l-66 -174h292q27 0 43 -23q8 -12 8 -27q0 -10 -4 -20l-152 -365
q-7 -15 -19.5 -23t-27.5 -8z" />
    <glyph glyph-name="U.alt1.001" horiz-adv-x="576" 
d="M292 0q-75 0 -130 34t-86 100q-11 23 -16.5 44.5t-8.5 38.5t-3.5 28.5t-0.5 13.5v392q0 20 15 34.5t35 14.5h120q27 0 42 -23l178 -280v254q0 20 15 34.5t35 14.5q21 0 35.5 -14.5t14.5 -34.5v-392q0 -2 -0.5 -13.5t-3.5 -28.5t-9 -38.5t-16 -44.5q-31 -66 -86 -100
t-130 -34zM147 600v-341q0 -13 3 -27q2 -12 6 -27.5t12 -31.5q18 -37 48 -55t76 -18q89 0 126 76q11 23 14 42l-243 382h-42z" />
    <glyph glyph-name="g.002" horiz-adv-x="722" 
d="M641 374q22 0 36.5 -15t14.5 -35v-274q0 -15 -8.5 -28.5t-22.5 -18.5q-8 -3 -20 -3q-22 0 -35 15l-32 31q-89 -46 -175 -46q-69 0 -134 25.5t-117 78.5q-51 51 -77 115t-26 135q0 72 26 136t77 115q51 52 116.5 77.5t134.5 25.5t133.5 -25.5t116.5 -77.5q14 -14 14 -36
t-13 -36q-15 -14 -37 -14t-35 14q-38 37 -84 55.5t-95 18.5t-95.5 -18.5t-83.5 -55.5q-38 -38 -56 -84t-18 -95t18 -95.5t56 -83.5q38 -38 84 -56t95 -18q22 0 46.5 4.5t54.5 15.5l-168 168q-15 13 -15 35q0 20 15 35q13 15 39 15h270zM489 273l102 -101v101h-102z" />
    <glyph glyph-name="t.002" horiz-adv-x="488" 
d="M451 384q0 -20 -15 -35t-35 -15h-85l130 -261q5 -12 5 -23q0 -29 -28 -45h1q-12 -5 -23 -5q-31 0 -45 27l-154 307h-105q-20 0 -35 15t-15 35t15 35t35 15h55l-100 201q-2 6 -3.5 11t-1.5 11q0 13 10 30q12 21 40 21h304q20 0 35 -15t15 -35q0 -21 -15 -36t-35 -15h-222
l87 -173h135q20 0 35 -15t15 -35z" />
    <glyph glyph-name="g.003" horiz-adv-x="517" 
d="M264 466q45 0 85 -18.5t69 -50.5t46 -74.5t17 -89.5v-426q0 -20 -15 -35t-35 -15h-273q-21 0 -36 15t-15 35q0 21 15 36t36 15h223v177q-31 -16 -60 -25.5t-57 -9.5q-45 0 -84.5 18.5t-69 50t-46.5 74t-17 90.5t17 90.5t46.5 74t69 50t84.5 18.5zM264 101q24 0 45.5 10
t37 28t25 42t9.5 52q0 27 -9.5 51t-25 42t-37 28.5t-45.5 10.5t-45.5 -10.5t-37 -28.5t-24.5 -42t-9 -51q0 -28 9 -52t24.5 -42t37 -28t45.5 -10z" />
    <glyph glyph-name="j.002" horiz-adv-x="342" 
d="M251 466q20 0 35 -15t15 -36v-608q0 -20 -15 -35t-35 -15h-152q-21 0 -35.5 15t-14.5 35q0 21 14.5 36t35.5 15h101v557q0 21 14.5 36t36.5 15z" />
    <glyph glyph-name="k.002" horiz-adv-x="605" 
d="M557 86q15 -15 15 -36q0 -22 -15 -35q-15 -15 -35 -15q-21 0 -37 15l-167 167h-171v-132q0 -20 -15 -35t-36 -15q-20 0 -35 15t-15 35v608q0 20 15 35t35 15q21 0 36 -15t15 -35v-132h171l167 168q16 14 36 14t36 -14q15 -17 15 -37q0 -22 -15 -35l-182 -182
q-7 -8 -16.5 -11.5t-18.5 -3.5h-193v-142h193q9 0 18.5 -3.5t16.5 -10.5z" />
    <glyph glyph-name="m.002" horiz-adv-x="692" 
d="M625 706q17 -5 27 -18t10 -30v-608q0 -20 -15 -35t-35 -15q-21 0 -35.5 15t-14.5 35v427l-150 -250l90 -152q8 -13 8 -25q0 -27 -25 -43q-14 -7 -25 -7q-12 0 -24 6t-19 18l-64 106l-63 -106q-15 -24 -43 -24q-12 0 -26 7q-25 16 -25 43q0 6 1.5 13t5.5 12l92 152
l-149 250v-427q0 -20 -15 -35t-36 -15q-20 0 -35 15t-15 35v608q0 17 10 30t27 18h-1q5 1 8.5 1.5t5.5 0.5q13 0 24.5 -6t18.5 -18l215 -359l216 359q6 12 17.5 18t25.5 6q4 0 14 -2h-1z" />
    <glyph glyph-name="m.003" horiz-adv-x="663" 
d="M632 50q0 -20 -15 -35t-35 -15q-21 0 -36 15t-15 35v315h-142v-315q0 -20 -15 -35t-35 -15q-21 0 -36 15t-15 35v315h-142v-315q0 -20 -15 -35t-36 -15q-20 0 -35 15t-15 35v365q0 21 15 36t35 15h487q20 0 35 -15t15 -36v-365v0z" />
    <glyph glyph-name="talt.103" horiz-adv-x="546" 
d="M461 708q20 0 35 -15t15 -35v-91q0 -20 -15 -35t-35 -15t-35 15t-15 35v40h-82v-557q0 -20 -15 -35t-35 -15t-35 15t-15 35v557h-83v-40q0 -20 -15 -35t-35 -15t-35 15t-15 35v91q0 20 15 35t35 15h365v0z" />
    <glyph glyph-name="n.alt1.002" horiz-adv-x="488" 
d="M400 0q-20 0 -35 15t-15 35v315h-203v-315q0 -20 -15 -35t-35 -15t-35 15t-15 35v365q0 21 15 36t35 15h303q21 0 36 -15t15 -36v-365q0 -20 -15 -35t-36 -15z" />
    <glyph glyph-name="s.alt1" horiz-adv-x="430" 
d="M294 286q29 -14 47.5 -29t29 -30t15 -29.5t5.5 -26.5v-11q0 -28 -9.5 -54.5t-29.5 -47.5q-27 -28 -63.5 -43t-80.5 -15q-49 0 -90 22.5t-63 60.5q-7 16 -7 26q0 13 6 24.5t19 18.5q14 7 25 7q12 0 24 -6.5t19 -19.5q11 -18 30.5 -25t36.5 -7q23 0 41 6t29 19h-1
q14 14 14 38q-3 6 -12.5 13t-23 14.5t-28.5 14t-29 9.5l-2 1q-22 6 -45 16.5t-42 27.5t-31 40.5t-12 55.5q0 28 12.5 52t34.5 42t52.5 28t65.5 10q23 0 48 -7.5t45 -20.5q11 -7 17.5 -18.5t6.5 -23.5q0 -8 -2.5 -14t-6.5 -13h1q-14 -23 -42 -23q-13 0 -29 8l2 -1q-9 5 -20 8
t-20 3q-17 0 -29 -4t-20 -9t-11.5 -10t-3.5 -7q0 -4 1 -9t6 -11t16 -12.5t31 -12.5q8 -2 29 -8t44 -17z" />
    <glyph glyph-name="c.alt1" horiz-adv-x="422" 
d="M265 0q-45 0 -84.5 18t-69 49.5t-46.5 74t-17 90.5t17 90.5t46.5 74.5t69 50.5t84.5 18.5q24 0 46.5 -5.5t43.5 -15.5q28 -14 28 -45q0 -10 -5 -22q-6 -14 -18.5 -21.5t-26.5 -7.5q-9 0 -22 5q-22 11 -46 11t-45 -10.5t-36.5 -28.5t-25 -42t-9.5 -52q0 -27 9.5 -51
t25 -42t36.5 -28t45 -10q26 0 46 10q5 3 10.5 4t10.5 1q14 0 27 -7.5t19 -21.5q2 -5 3.5 -10t1.5 -11q0 -14 -7 -27t-21 -19q-43 -20 -90 -20z" />
    <glyph glyph-name="e.alt1" horiz-adv-x="488" 
d="M264 0q-13 0 -17 1q-46 2 -85 21t-65 52q-50 64 -50 159q0 48 16 90.5t43.5 74t64 50t78.5 18.5q85 0 145 -66q28 -31 42.5 -71t14.5 -85q0 -21 -15 -36t-35 -15h-251q5 -16 13.5 -32t20.5 -29t28.5 -21.5t38.5 -9.5h6q13 0 33.5 2.5t42.5 17.5q16 8 29 8t25.5 -7
t20.5 -21q5 -4 5 -21q0 -26 -24 -44q-35 -23 -69.5 -29.5t-55.5 -6.5zM344 294q-17 32 -41.5 52t-53.5 20q-25 0 -49.5 -20t-41.5 -52h186z" />
    <glyph glyph-name="f.alt1" horiz-adv-x="400" 
d="M310 466q20 0 35 -15t15 -36t-15 -35.5t-35 -14.5h-70v-315q0 -20 -15 -35t-36 -15t-35.5 15t-14.5 35v315h-41q-20 0 -35 14.5t-15 35.5t15 36t35 15h41v192q0 20 14.5 35t35.5 15h121q20 0 35 -15t15 -35q0 -21 -15 -36t-35 -15h-70v-141h70v0z" />
    <glyph glyph-name="y.alt1" horiz-adv-x="488" 
d="M401 466q20 0 35 -15t15 -36v-369q-1 -2 -1 -6l-1 -5q-1 -3 -2.5 -6t-2.5 -6l-120 -239q-6 -13 -18.5 -20t-26.5 -7q-10 0 -23 5q-13 7 -20 19t-7 26q0 11 5 23v-1l87 171h-224q-20 0 -35 15t-15 35v365q0 21 15 36t35 15t35 -15t15 -36v-314h204v314q0 21 15 36t35 15z
" />
    <glyph glyph-name="Y.alt1" horiz-adv-x="546" 
d="M457 700q20 0 35 -14.5t15 -34.5v-301q0 -20 -15 -34.5t-35 -14.5h-131v-252q0 -20 -14.5 -34.5t-34.5 -14.5t-34.5 14.5t-14.5 34.5v252h-131q-20 0 -35 14.5t-15 34.5v301q0 20 15 34.5t35 14.5t34.5 -14.5t14.5 -34.5v-252h262v252q0 20 14.5 34.5t34.5 14.5z" />
    <glyph glyph-name="x.alt1" horiz-adv-x="459" 
d="M411 84q10 -15 10 -31q0 -24 -20 -39q-14 -11 -30 -11q-11 0 -21.5 5.5t-18.5 15.5l-95 127l-98 -131q-8 -8 -19 -14t-22 -6q-6 0 -14.5 2.5t-15.5 7.5q-8 8 -14 18t-6 22q0 7 3 15.5t8 14.5l114 154l-114 155q-11 11 -11 29q0 11 6 22t14 18q7 5 15.5 8t14.5 3
q26 0 41 -20l98 -131q20 28 47 63t48 64q7 8 18 14t22 6q17 0 30 -10q20 -15 20 -39q0 -15 -10 -32l-112 -150z" />
    <glyph glyph-name="O.alt1" horiz-adv-x="780" 
d="M643 597q51 -51 77 -115t26 -132q0 -69 -26 -133t-77 -115q-50 -50 -114 -76t-133 -26q-72 0 -134.5 26t-113.5 76q-51 51 -76.5 115t-25.5 133t25.5 132.5t76.5 114.5t114 77t134 26q69 0 132.5 -26t114.5 -77zM573 173q36 36 54.5 82.5t18.5 94.5q0 49 -18.5 94.5
t-54.5 82.5q-36 35 -81 54t-96 19t-96.5 -19t-80.5 -54q-38 -37 -55.5 -83t-17.5 -94q0 -49 17.5 -95t55.5 -82q35 -35 80.5 -54t96.5 -19t96 19t81 54zM396 429q32 0 55.5 -23.5t23.5 -55.5q0 -33 -23.5 -56.5t-55.5 -23.5q-34 0 -57.5 23.5t-23.5 56.5q0 16 6.5 30.5
t17.5 25t25.5 17t31.5 6.5z" />
    <glyph glyph-name="o.alt3" horiz-adv-x="751" 
d="M383 708q70 0 131.5 -28t107.5 -76t73 -112.5t27 -137.5t-27 -137.5t-73 -112.5t-107.5 -76t-131.5 -28t-132 28t-108 76t-72.5 112.5t-26.5 137.5t26.5 137.5t72.5 112.5t108 76t132 28zM621 354q0 53 -18.5 99t-51 80.5t-76 54t-92.5 19.5q-40 0 -79.5 -16t-74.5 -44
l368 -302q12 28 18 55.5t6 53.5zM145 354q0 -53 19 -99t51 -80t75.5 -54t92.5 -20q42 0 81.5 16t74.5 45l-370 304q-11 -30 -17.5 -58.5t-6.5 -53.5z" />
    <glyph glyph-name="o.alt1" 
d="M279 466q48 0 90.5 -18.5t74 -50.5t50 -74.5t18.5 -90.5t-18.5 -90.5t-50 -74t-74 -49.5t-90.5 -18t-90.5 18t-74 49.5t-50 74t-18.5 90.5t18.5 90.5t50 74.5t74 50.5t90.5 18.5zM279 101q28 0 52 10t42 28t28 42t10 51q0 28 -10 52t-28 42t-42 28.5t-52 10.5
q-27 0 -51 -10.5t-42 -28.5t-28.5 -42t-10.5 -52q0 -27 10.5 -51t28.5 -42t42 -28t51 -10z" />
    <glyph glyph-name="R.001" horiz-adv-x="517" 
d="M428 0q-28 0 -44 26l-119 217q-9 -2 -13 -2.5t-6 -0.5h-98v-191q0 -20 -15 -34.5t-36 -14.5q-20 0 -34.5 14.5t-14.5 34.5v241q0 20 14.5 35t34.5 15h114l-157 287q-6 12 -6 23t7 25q7 12 18.5 18.5t23.5 6.5h149q3 0 13.5 -1t26 -4t35 -8.5t39.5 -14.5q54 -29 85.5 -81
t31.5 -121q0 -2 -0.5 -12.5t-3 -26t-8.5 -35t-16 -39.5q-13 -26 -34.5 -48.5t-50.5 -39.5l107 -196q6 -12 6 -24t-6.5 -24t-19.5 -19q-12 -6 -23 -6zM181 600l135 -246q30 21 44 45q13 25 15.5 47t2.5 24q0 82 -64 114q-13 6 -25 9t-22 5q-11 2 -21 2h-65z" />
    <glyph glyph-name="u.alt1" horiz-adv-x="453" 
d="M365 466q20 0 35 -15t15 -36v-237q0 -5 -3 -30.5t-19 -55.5q-23 -45 -64.5 -68.5t-96.5 -23.5q-56 0 -97.5 23.5t-64.5 68.5q-17 30 -20 55.5t-3 30.5v237q0 21 15 36t35 15q21 0 36 -15t15 -36v-237q0 -2 2 -15.5t10 -28.5q8 -11 22.5 -22t49.5 -11q34 0 49 11t22 22
q8 14 10 28t2 16v237q0 21 15 36t35 15z" />
    <glyph glyph-name="l.alt1" horiz-adv-x="197" 
d="M100 708q21 0 36 -15t15 -35v-608q0 -20 -15 -35t-36 -15q-20 0 -35 15t-15 35v608q0 20 15 35t35 15z" />
    <glyph glyph-name="d.alt1" 
d="M46 232q0 48 18.5 90.5t50 74.5t74 50.5t90.5 18.5q31 0 64.5 -11t67.5 -31v234q0 20 15 35t35 15q21 0 36 -15t15 -35v-608q0 -20 -15 -35t-36 -15q-15 0 -29 11.5t-22 29.5q-32 -19 -65.5 -30t-65.5 -11q-48 0 -90.5 18t-74 49.5t-50 74t-18.5 90.5zM147 232
q0 -27 10.5 -51t28.5 -42t42 -28t51 -10q28 0 52 10t42 28t28 42t10 51q0 28 -10 52t-28 42t-42 28.5t-52 10.5q-27 0 -51 -10.5t-42 -28.5t-28.5 -42t-10.5 -52z" />
    <glyph glyph-name="b.alt1" horiz-adv-x="517" 
d="M264 466q45 0 84.5 -18.5t69 -50.5t46.5 -74.5t17 -90.5t-17 -90.5t-46.5 -74t-69 -49.5t-84.5 -18q-30 0 -59.5 9.5t-57.5 26.5q-9 -15 -22.5 -25.5t-27.5 -10.5q-20 0 -35 15t-15 35v608q0 20 15 35t35 15q21 0 36 -15t15 -35v-229q30 17 60 27t56 10zM264 101
q24 0 45.5 10t37 28t25 42t9.5 51q0 28 -9.5 52t-25 42t-37 28.5t-45.5 10.5t-45.5 -10.5t-37 -28.5t-24.5 -42t-9 -52q0 -27 9 -51t24.5 -42t37 -28t45.5 -10z" />
    <glyph glyph-name="h.alt1" horiz-adv-x="518" 
d="M450 463q14 -7 23 -20t9 -28v-365q0 -20 -15 -35t-36 -15q-20 0 -35 15t-15 35v234l-246 -267q-15 -17 -37 -17q-12 0 -19 3q-14 6 -23 18.5t-9 28.5v608q0 20 15 35t36 15q20 0 35 -15t15 -35v-479l246 270q17 17 37 17q11 0 19 -3z" />
    <glyph glyph-name="q.alt1" 
d="M512 -193q0 -20 -15 -35t-36 -15q-20 0 -35 15t-15 35v235q-34 -20 -67.5 -31t-64.5 -11q-48 0 -90.5 18.5t-74 50t-50 74t-18.5 90.5t18.5 90.5t50 74t74 50t90.5 18.5q32 0 65.5 -11t65.5 -30q8 18 22 29.5t29 11.5q21 0 36 -15t15 -35v-609zM411 233q0 27 -10 51
t-28 42t-42 28.5t-52 10.5q-27 0 -51 -10.5t-42 -28.5t-28.5 -42t-10.5 -51q0 -28 10.5 -52t28.5 -42t42 -28t51 -10q28 0 52 10t42 28t28 42t10 52z" />
    <glyph glyph-name="j.alt1" horiz-adv-x="314" 
d="M272 627q0 -21 -15 -36t-35 -15q-21 0 -36 15t-15 36q0 20 15 35t36 15q20 0 35 -15t15 -35zM99 -182q-20 0 -35 15t-15 35q0 21 15 36t35 15q29 0 42 10t19 23v-1q4 7 5.5 14t3.5 12l2 12v426q0 21 15 36t35 15q21 0 36 -15t15 -36v-425q0 -6 -3 -30.5t-18 -53.5
q-21 -43 -60 -65.5t-92 -22.5z" />
    <glyph glyph-name="z.alt1" horiz-adv-x="488" 
d="M401 101q20 0 35 -15t15 -36q0 -20 -15 -35t-35 -15h-304q-14 0 -27 7.5t-19 21.5q-4 8 -4 22q0 18 11 32l235 282h-196q-20 0 -35 14.5t-15 35.5t15 36t35 15h304q14 0 26.5 -9t19.5 -21q2 -5 3 -10t1 -10q0 -18 -11 -34l-235 -281h196v0z" />
    <glyph glyph-name="v.alt1" horiz-adv-x="529" 
d="M465 460q14 -6 21 -18.5t7 -26.5q0 -7 -1.5 -12t-3.5 -10l-173 -365q-5 -13 -17.5 -20.5t-26.5 -7.5t-26.5 8.5t-19.5 19.5l-173 365q-2 5 -3.5 10t-1.5 12q0 14 7 26.5t21 18.5q10 6 22 6q14 0 26.5 -8t18.5 -22l129 -268l127 268q7 12 19.5 21t25.5 9q11 0 22 -6z" />
    <glyph glyph-name="S.alt1" horiz-adv-x="546" 
d="M277 0q-10 0 -26 7q-11 7 -17.5 18.5t-6.5 23.5q0 13 8 27l135 225h-273q-29 0 -43 24q-3 7 -5 13t-2 12t1 12.5t6 12.5q44 75 90 150.5t91 150.5q7 11 18.5 17.5t23.5 6.5t26 -7q11 -7 17.5 -18.5t6.5 -23.5q0 -13 -8 -27l-135 -225h273q29 0 43 -24q7 -13 7 -25
q0 -6 -1.5 -13t-6.5 -13l-180 -300q-7 -11 -18.5 -17.5t-23.5 -6.5z" />
    <glyph glyph-name="A.alt1" horiz-adv-x="663" 
d="M623 68q3 -8 3 -19q0 -14 -8 -27t-23 -19q-8 -3 -17 -3q-15 0 -28.5 8.5t-19.5 23.5l-193 485l-167 -417h167q20 0 34.5 -15t14.5 -36q0 -20 -14.5 -34.5t-34.5 -14.5h-240q-28 0 -42 23q-8 11 -8 26q0 11 3 19l241 600q7 13 19.5 22.5t26.5 9.5t26.5 -9.5t19.5 -22.5
l240 -600v0z" />
    <glyph glyph-name="E.alt1.002" 
d="M97 0q-31 0 -44 27q-2 5 -4 10.5t-2 11.5q0 8 3 15.5t7 13.5l194 272q-45 65 -96.5 135.5t-97.5 136.5q-4 6 -7 13.5t-3 15.5q0 6 2 11.5t4 10.5q13 27 44 27h360q21 0 36 -14.5t15 -34.5q0 -21 -15 -36t-36 -15h-263l160 -221q4 -5 6 -13.5t2 -15.5q0 -8 -1.5 -16
t-6.5 -13l-160 -221h263q21 0 36 -15t15 -36q0 -20 -15 -34.5t-36 -14.5h-360z" />
    <glyph glyph-name="D.alt1" horiz-adv-x="605" 
d="M96 0q-20 0 -34.5 14.5t-14.5 34.5v602q0 20 14.5 34.5t34.5 14.5h175q1 0 23.5 -1.5t55.5 -11t71 -30.5t70.5 -60t54 -99t21.5 -148t-21.5 -148t-54 -99t-70.5 -60t-71 -30.5t-55.5 -11t-23.5 -1.5h-175zM147 100h124q1 0 10.5 1t23.5 4.5t31.5 10t35.5 17.5
q46 30 70.5 85t24.5 132q0 79 -25.5 134.5t-73.5 85.5q-17 10 -34 16t-31 9t-23 4l-9 1h-124v-500z" />
    <glyph glyph-name="F.alt1" 
d="M457 700q21 0 36 -14.5t15 -34.5q0 -21 -15 -36t-36 -15h-310v-201h250q20 0 35 -14.5t15 -34.5t-15 -34.5t-35 -14.5h-250v-252q0 -20 -14.5 -34.5t-35.5 -14.5q-20 0 -35 14.5t-15 34.5v602q0 20 15 34.5t35 14.5h360z" />
    <glyph glyph-name="G.alt1" horiz-adv-x="722" 
d="M636 370q21 0 35.5 -15t14.5 -35v-271q0 -20 -14.5 -34.5t-35.5 -14.5q-18 0 -32 16t-19 39q-47 -26 -94.5 -40.5t-94.5 -14.5q-71 0 -134.5 27.5t-111.5 75t-76 111.5t-28 136t28 135.5t76 111.5t111.5 75.5t134.5 27.5q70 0 133 -26t114 -77q15 -15 15 -35t-15 -34.5
t-35 -14.5t-35 14q-36 36 -82.5 54.5t-94.5 18.5q-49 0 -94.5 -19t-80 -52.5t-55 -79.5t-20.5 -99t20.5 -99t55 -79.5t80 -52.5t94.5 -19q48 0 94 18t83 55q2 2 4.5 4t9.5 5v88h-131q-20 0 -35 14.5t-15 35.5q0 20 15 35t35 15h180z" />
    <glyph glyph-name="H.alt1" horiz-adv-x="576" 
d="M487 700q21 0 35.5 -14.5t14.5 -34.5v-602q0 -20 -14.5 -34.5t-35.5 -14.5q-20 0 -35 14.5t-15 34.5v252h-290v-252q0 -20 -15 -34.5t-35 -14.5t-35 14.5t-15 34.5v602q0 20 15 34.5t35 14.5t35 -14.5t15 -34.5v-252h290v252q0 20 15 34.5t35 14.5z" />
    <glyph glyph-name="K.alt1" horiz-adv-x="606" 
d="M552 85q15 -15 15 -36q0 -20 -15 -35q-14 -14 -35 -14q-19 0 -35 14l-195 196h-140v-161q0 -20 -15 -34.5t-35 -14.5t-35 14.5t-15 34.5v602q0 20 15 34.5t35 14.5t35 -14.5t15 -34.5v-332l333 365q16 16 37 16q19 0 33 -12q17 -16 17 -38q0 -18 -12 -33l-283 -307h35
q21 0 35 -15l210 -210v0z" />
    <glyph glyph-name="L.alt1" horiz-adv-x="546" 
d="M97 0q-20 0 -35 14.5t-15 34.5v602q0 20 15 34.5t35 14.5t34.5 -14.5t14.5 -34.5v-551h311q20 0 35 -15t15 -36q0 -20 -15 -34.5t-35 -14.5h-360z" />
    <glyph glyph-name="X.alt1" horiz-adv-x="605" 
d="M562 674q5 -12 5 -23q0 -18 -8 -29l-191 -272l191 -272q8 -11 8 -29q0 -25 -21 -40h1q-14 -9 -30 -9q-11 0 -22 6t-19 16l-169 240l-168 -240q-8 -10 -19 -16t-23 -6q-16 0 -28 9q-22 16 -22 40q0 17 9 29l191 272l-191 272q-8 11 -8 29q0 11 5 23v-1q7 13 18.5 20
t25.5 7h420q29 0 45 -27v1zM422 600h-229l114 -163z" />
    <glyph glyph-name="t.alt3" 
d="M484 521q28 -14 28 -45q0 -2 -2 -10q-4 -18 -18 -29.5t-31 -11.5h-131v-375q0 -20 -15 -35t-36 -15q-20 0 -35 15t-15 35v375h-133q-20 0 -35 15t-15 36q0 20 15 35t35 15h112l4 18l-139 68h2q-29 18 -29 45q0 3 2 11q5 18 18 29t30 11h365q21 0 36 -15t15 -35
q0 -21 -15 -36t-36 -15h-111l-5 -17z" />
    <glyph glyph-name="U.alt1" horiz-adv-x="575" 
d="M292 0q-75 0 -130 34t-86 100q-11 23 -16.5 44.5t-8.5 38.5t-3.5 28.5t-0.5 14.5v391q0 20 15 34.5t35 14.5t34.5 -14.5t14.5 -34.5v-391q0 -4 1.5 -17.5t6.5 -31t15 -37.5t26 -36.5t40 -27t57 -10.5q48 0 76.5 21.5t43.5 49t20 54t5 35.5v391q0 20 15 34.5t35 14.5
t34.5 -14.5t14.5 -34.5v-391q0 -3 -0.5 -14.5t-3 -28.5t-8.5 -38.5t-16 -44.5q-31 -66 -86 -100t-130 -34z" />
    <glyph glyph-name="Z.alt1.002" 
d="M98 0q-21 0 -36 14.5t-15 34.5q0 21 15 36t36 15h273l-316 525q-7 10 -7 26q0 20 15 34.5t35 14.5h360q20 0 35 -15t15 -35t-15 -35t-35 -15h-273l315 -526q8 -11 8 -24q0 -20 -15 -35t-35 -15h-360v0z" />
    <glyph glyph-name="W.alt1" horiz-adv-x="945" 
d="M883 696q15 -6 23 -19t8 -27q0 -12 -3 -19l-251 -600q-5 -14 -18 -22.5t-27 -8.5q-34 0 -47 31l-88 213l-90 -213q-5 -14 -17.5 -22.5t-27.5 -8.5t-28 8.5t-18 22.5l-251 600q-3 7 -3 19q0 19 13.5 34.5t36.5 15.5q15 0 27.5 -8.5t17.5 -22.5l205 -490l80 195l-107 257
q-4 10 -4 20q0 19 14 34t37 15q34 0 45 -31l70 -167l69 167q5 14 18 22.5t27 8.5q23 0 37 -15.5t14 -34.5q0 -12 -3 -19l-109 -257l82 -195l204 490q5 14 17.5 22.5t27.5 8.5q9 0 19 -4z" />
    <glyph glyph-name="I.alt1" horiz-adv-x="196" 
d="M99 0q-20 0 -34.5 14.5t-14.5 34.5v602q0 20 14.5 34.5t34.5 14.5t35 -14.5t15 -34.5v-602q0 -20 -15 -34.5t-35 -14.5z" />
    <glyph glyph-name="E.alt1" 
d="M97 0q-20 0 -35 14.5t-15 34.5v602q0 18 15 35q14 14 35 14h360q21 0 36 -14.5t15 -34.5q0 -21 -15 -36t-36 -15h-310v-500h310q21 0 36 -15t15 -36q0 -20 -15 -34.5t-36 -14.5h-360zM357 350q0 -20 -14.5 -34.5t-35.5 -14.5q-20 0 -35 14.5t-15 34.5t15 34.5t35 14.5
q21 0 35.5 -14.5t14.5 -34.5z" />
    <glyph glyph-name="b.002" 
d="M420 434q38 0 65 -26t27 -64v-253q0 -38 -27 -64.5t-65 -26.5h-283q-38 0 -64.5 26.5t-26.5 64.5v527q0 38 28.5 64t68.5 26h150q40 0 68.5 -26t28.5 -64v-184h30zM147 434h142v173h-142v-173zM411 334h-264v-233h264v233z" />
    <glyph glyph-name="b.007" horiz-adv-x="460" 
d="M371 466q21 0 36 -15t15 -36v-365q0 -20 -15 -35t-36 -15h-273q-21 0 -36 15t-15 35v365q0 21 15 36t36 15q20 0 35 -15t15 -36v-314h173v314q0 21 15 36t35 15z" />
    <glyph glyph-name="b.009" horiz-adv-x="663" 
d="M632 50q0 -20 -15 -35t-35 -15q-21 0 -36 15t-15 35v315h-142v-315q0 -20 -15 -35t-35 -15q-21 0 -36 15t-15 35v315h-142v-315q0 -20 -15 -35t-36 -15q-20 0 -35 15t-15 35v365q0 21 15 36t35 15h487q20 0 35 -15t15 -36v-365v0z" />
    <glyph glyph-name="b.005" horiz-adv-x="488" 
d="M97 0q-20 0 -35 15t-15 35q0 21 15 36t35 15h253v203h-253q-20 0 -35 15t-15 35v304q0 20 15 35t35 15h304q20 0 35 -15t15 -36q0 -20 -15 -35t-35 -15h-254v-203h254q20 0 35 -15t15 -35v-304q0 -20 -15 -35t-35 -15h-304z" />
    <glyph glyph-name="b.006" 
d="M461 404q21 0 36 -15t15 -35v-304q0 -20 -15 -35t-36 -15q-20 0 -35 15t-15 35v254h-264v-254q0 -20 -14.5 -35t-36.5 -15q-20 0 -35 15t-15 35v608q0 20 15 35t35 15q22 0 36.5 -15t14.5 -35v-254h142v163q0 20 15 35t36 15q20 0 35 -15t15 -35v-163h71v0z" />
    <glyph glyph-name="b.020" horiz-adv-x="780" 
d="M752 50q0 -20 -15 -35t-35 -15h-608q-20 0 -35 15t-15 35v608q0 20 15 35t35 15h608q20 0 35 -15t15 -35v-608z" />
    <glyph glyph-name="b.003" horiz-adv-x="546" 
d="M96 0q-20 0 -35 15t-15 35v608q0 20 15 35t35 15h365q20 0 35 -15t15 -36q0 -20 -15 -35t-35 -15h-315v-506h315q20 0 35 -15t15 -36q0 -20 -15 -35t-35 -15h-365z" />
    <glyph glyph-name="fi.001" horiz-adv-x="634" 
d="M552 466q20 0 35 -15t15 -36t-15 -35.5t-35 -14.5h-72v-315q0 -20 -15 -35t-35 -15t-35 15t-15 35v315h-113v-315q0 -20 -15 -35t-35 -15t-35 15t-15 35v315h-72q-20 0 -35 14.5t-15 35.5t15 36t35 15h72v192q0 20 15 35t35 15t35 -15t15 -35v-192h113v192q0 20 15 35
t35 15t35 -15t15 -35v-192h72v0z" />
    <glyph glyph-name="O.alt3" horiz-adv-x="751" 
d="M381 700q69 0 130 -27.5t106.5 -75.5t72 -111.5t26.5 -135.5t-26.5 -136t-72 -111.5t-106.5 -75t-130 -27.5t-130 27.5t-106.5 75t-72 111.5t-26.5 136t26.5 135.5t72 111.5t106.5 75.5t130 27.5zM616 350q0 52 -18.5 97.5t-50.5 79.5t-74.5 53.5t-91.5 19.5
q-40 0 -79 -16t-74 -44l365 -298q23 57 23 108zM146 350q0 -52 18.5 -97.5t50.5 -79.5t74.5 -53.5t91.5 -19.5q84 0 154 61l-366 299q-23 -60 -23 -110z" />
    <glyph glyph-name="b.015" horiz-adv-x="1129" 
d="M758 708q72 0 136 -26.5t115 -77.5t77 -115t26 -135q0 -72 -26 -136t-77 -115t-115 -77t-136 -26q-46 0 -92 13t-90 38q-43 -25 -89 -38t-94 -13q-70 0 -134.5 26t-115.5 77q-51 52 -77 117t-26 134t26 133.5t77 116.5q51 51 115.5 77.5t134.5 26.5q97 0 183 -51
q44 26 90 38.5t92 12.5zM583 186q32 37 48 80t16 88t-17.5 90t-53.5 86q-36 -41 -53.5 -86t-17.5 -90t15.5 -88t47.5 -80h15zM214 175q37 -36 82.5 -55t96.5 -19q22 0 46.5 4.5t51.5 15.5q-44 54 -65 113.5t-21 119.5t21 119.5t65 113.5q-27 11 -51.5 15.5t-46.5 4.5
q-51 0 -96.5 -19t-82.5 -55q-38 -38 -56 -84t-18 -95t18 -95.5t56 -83.5zM937 175q37 36 56 82t19 97t-19 97t-56 82q-74 74 -179 74q-20 0 -44.5 -4.5t-52.5 -15.5q43 -54 65 -113.5t22 -119.5t-22 -119.5t-65 -113.5q28 -11 52.5 -15.5t44.5 -4.5q52 0 97.5 19t81.5 55z
" />
    <glyph glyph-name="T.alt1" 
d="M480 515q13 -7 20.5 -19t7.5 -26q0 -2 -2 -10q-5 -18 -18.5 -29t-30.5 -11h-130v-371q0 -20 -14.5 -34.5t-35.5 -14.5q-20 0 -34.5 14.5t-14.5 34.5v371h-131q-20 0 -35 15t-15 35t15 35t35 15h110l4 17l-137 68h1q-13 8 -20.5 19.5t-7.5 25.5q0 4 3 10q4 18 17 29t30 11
h360q21 0 36 -14.5t15 -34.5q0 -21 -15 -36t-36 -15h-110l-4 -17z" />
    <glyph glyph-name="n.alt1" horiz-adv-x="488" 
d="M401 466q20 0 35 -15t15 -36v-365q0 -20 -15 -35t-35 -15t-35 15t-15 35v135l-203 135v-270q0 -20 -15 -35t-36 -15q-20 0 -35 15t-15 35v365q0 14 7 25.5t20 18.5q11 7 24 7q7 0 14 -2t13 -7l226 -150v108q0 21 15 36t35 15z" />
    <glyph glyph-name="b.004" horiz-adv-x="457" 
d="M97 245q-20 0 -35 15t-15 35v121q0 20 15 35t36 15h271q20 0 35 -15t15 -35t-15 -35t-35 -15h-222v-71q0 -20 -15 -35t-35 -15zM98 0q-20 0 -35 15t-15 35t15 35t35 15h221v71q0 20 15 35t35 15t35 -15t15 -35v-121q0 -20 -15 -35t-35 -15h-271z" />
    <glyph glyph-name="b.035" horiz-adv-x="721" 
d="M641 0q-21 0 -36 15t-15 35v557h-171v-557q0 -20 -15 -35t-37 -15q-20 0 -35 15t-15 35v557h-172v-557q0 -20 -15 -35t-35 -15q-21 0 -35.5 15t-14.5 35v608q0 20 14.5 35t35.5 15h546q21 0 35.5 -15t14.5 -35v-608q0 -20 -14.5 -35t-35.5 -15z" />
    <glyph glyph-name="b.013" 
d="M508 677q5 -14 2.5 -29t-13.5 -26l-167 -167v-405q0 -20 -15 -35t-36 -15q-20 0 -35 15t-15 35v426q0 21 14 35l96 96h-243q-20 0 -35 15t-15 36q0 20 15 35t35 15h365q16 0 29 -8.5t18 -22.5z" />
    <glyph glyph-name="b.011" horiz-adv-x="459" 
d="M371 466q20 0 35 -15t15 -36v-365q0 -20 -15 -35t-35 -15q-21 0 -36 15t-15 35v315h-173v-315q0 -20 -15 -35t-35 -15t-35 15t-15 35v608q0 20 15 35t35 15t35 -15t15 -35v-192h224v0z" />
    <glyph glyph-name="b.025" horiz-adv-x="955" 
d="M920 83q13 -14 13 -33q0 -24 -19 -39q-12 -11 -31 -11q-24 0 -39 18l-130 156l-55 -53v-71q0 -20 -15 -35t-35 -15h-213q-14 0 -28 10.5t-22 26.5q-27 -17 -58 -27t-63 -10q-38 0 -71.5 12.5t-58 33.5t-39 49.5t-14.5 60.5q0 33 14.5 61.5t39 50t58 34t71.5 12.5
q29 0 60 -10.5t61 -28.5v90h-192q-22 0 -36.5 14.5t-14.5 35.5t14.5 36t36.5 15h242q20 0 35 -15t15 -36v-314h113v557q0 20 15 35t35 15t35 -15t15 -35v-394l187 187q16 14 36 14t36 -14q15 -15 15 -36t-15 -36l-133 -132zM225 101q15 0 30 4t26.5 11.5t19 17.5t7.5 22
t-7.5 22.5t-19 18t-26.5 12t-30 4.5t-29.5 -4.5t-26 -12t-19 -18t-7.5 -22.5t7.5 -22t19 -17.5t26 -11.5t29.5 -4z" />
    <glyph glyph-name="b.016" horiz-adv-x="453" 
d="M365 466q20 0 35 -15t15 -35v-517q0 -21 -15 -36t-35 -15h-162v-41q0 -20 -15 -35t-36 -15t-35.5 15t-14.5 35v92q0 20 14.5 35t35.5 15h162v68q-41 -17 -83 -17q-55 0 -97 23.5t-65 68.5q-16 30 -19 55.5t-3 30.5v238q0 20 15 35t35 15t35 -15t15 -35v-237q0 -2 2 -15.5
t12 -28.5h-1q6 -11 21.5 -22.5t49.5 -11.5q35 0 50.5 12t22.5 26q6 14 8 26l2 12v239q0 20 15 35t36 15z" />
    <glyph glyph-name="b.017" horiz-adv-x="809" 
d="M732 466q20 0 35 -15t15 -36v-365q0 -20 -15 -35t-35 -15q-21 0 -36 15t-15 35v315h-172v-315q0 -20 -15 -35t-36 -15q-20 0 -35 15t-15 35v315h-173v-315q0 -20 -15 -35t-35 -15q-21 0 -36 15t-15 35v315h-40q-20 0 -35 14.5t-15 35.5t15 36t35 15h40v70q0 6 3 30t18 53
q21 44 60 66.5t91 22.5q21 0 36 -15t15 -35q0 -21 -15 -36t-36 -15q-29 0 -42 -10t-19 -23q-4 -7 -5.5 -14t-2.5 -12l-2 -12v-70h173v70q0 6 3 30t18 53q21 44 60 66.5t91 22.5q20 0 35 -15t15 -35q0 -21 -15 -36t-35 -15q-29 0 -42.5 -10t-18.5 -23v1q-7 -13 -9 -26
q-1 -7 -1 -13v-70h223zM732 547q-21 0 -36 15t-15 35q0 21 15 36t36 15q20 0 35 -15t15 -36q0 -20 -15 -35t-35 -15z" />
    <glyph glyph-name="b.018" horiz-adv-x="984" 
d="M730 466q48 0 90.5 -18.5t74 -50.5t50 -74.5t18.5 -90.5t-18.5 -90.5t-50 -74t-74 -49.5t-90.5 -18q-52 0 -101 25t-87 68l-19 -59h1q-5 -15 -18 -24.5t-30 -9.5q-16 0 -29 9.5t-19 23.5l-80 229l-80 -229v1q-6 -15 -19 -24.5t-29 -9.5q-17 0 -30 9.5t-18 23.5l-128 365
q-2 8 -2 18q0 15 8.5 28t24.5 19q8 2 18 2q16 0 28 -9t19 -25v1l80 -228l79 228v-1q5 16 18.5 25.5t30.5 9.5q16 0 29.5 -9t18.5 -25l80 -229l24 76h-1l4 10q10 38 31 70.5t51 56t67 37t78 13.5zM730 101q27 0 51 10t42 28t28.5 42t10.5 51q0 28 -10.5 52t-28.5 42t-42 28.5
t-51 10.5q-28 0 -52 -10.5t-42 -28.5t-28 -42t-10 -52q0 -27 10 -51t28 -42t42 -28t52 -10z" />
    <glyph glyph-name="ampersand.001" horiz-adv-x="640" 
d="M597 80q4 -6 7 -14.5t3 -15.5q0 -20 -12.5 -35t-35.5 -15q-10 0 -20 5.5t-18 12.5l-65 82l-42 -44q-27 -26 -68.5 -41t-78.5 -15q-46 0 -86.5 17.5t-70.5 47.5t-47.5 70.5t-17.5 86.5q0 34 11 66t30.5 59.5t46 48.5t58.5 35q-13 24 -20 48.5t-7 47.5q0 37 14 70t39 58
t57.5 39t70.5 14q37 0 70.5 -14t58 -39t39 -58t14.5 -70q0 -20 -14.5 -34.5t-34.5 -14.5q-13 0 -21 5t-13.5 12.5t-9 17.5t-6.5 20q-4 14 -9 28t-14 25t-23.5 17.5t-36.5 6.5q-17 0 -32 -6.5t-26 -18t-18 -26.5t-7 -32q0 -21 5 -31t13 -20l55 -69q4 -5 19 -23
q13 -16 37 -46.5t69 -85.5l62 68q17 14 38 14q8 0 16.5 -2.5t15.5 -8.5q16 -16 16 -37q0 -18 -13 -32l-73 -81zM392 178l-134 168q-24 -3 -45 -13.5t-36.5 -27t-24.5 -38t-9 -45.5q0 -26 10 -48.5t26.5 -39.5t39 -26.5t48.5 -9.5q42 0 76 26z" />
    <glyph glyph-name="b.014" horiz-adv-x="459" 
d="M98 0q-21 0 -36 15t-15 35v365q0 21 15 36t36 15h273q20 0 35 -15t15 -36v-183q0 -20 -15 -35t-35 -15h-223v-81h193q20 0 35 -15t15 -36q0 -20 -15 -35t-35 -15h-243zM321 365h-173v-82h173v82z" />
    <glyph glyph-name="b.012" horiz-adv-x="459" 
d="M371 466q20 0 35 -15t15 -36v-365q0 -20 -15 -35t-35 -15h-273q-21 0 -36 15t-15 35v182q0 21 15 36t36 15h223v82h-192q-22 0 -36.5 14.5t-14.5 35.5t14.5 36t36.5 15h242zM148 101h173v81h-173v-81z" />
    <glyph glyph-name="b.019" horiz-adv-x="517" 
d="M431 0q-11 0 -22 6t-19 14l-182 244q-9 14 -9 29q0 11 5 24q6 12 18.5 19.5t26.5 7.5q11 0 22 2q22 3 47 15q63 33 63 115q0 41 -15.5 68.5t-44.5 44.5q-25 12 -47.5 15t-24.5 3h-101v-557q0 -20 -15 -35t-36 -15q-20 0 -35 15t-15 35v608q0 20 15 35t35 15h152
q2 0 12.5 -0.5t26 -3.5t35 -8.5t40.5 -15.5h-1q58 -29 88.5 -81.5t30.5 -122.5t-30.5 -123t-88.5 -82h1l-26 -13l135 -178q9 -12 9 -29q0 -26 -20 -41q-13 -10 -30 -10z" />
    <glyph glyph-name="b.021" horiz-adv-x="838" 
d="M580 466q48 0 90 -18.5t73.5 -50t50 -74t18.5 -90.5t-18.5 -90.5t-50 -74t-73.5 -50t-90 -18.5q-7 0 -26 3t-40 9t-39 15t-23 20l-132 -263q-6 -12 -18.5 -19.5t-25.5 -7.5q-11 0 -23 5h1q-14 8 -21 20t-7 25q0 11 5 23l84 170h-222q-20 0 -35 15t-15 36v365q0 20 15 35
t35 15t35 -15t15 -35v-315h203v132q0 48 18.5 90.5t50.5 74t74.5 50t90.5 18.5zM580 101q27 0 51 10t42 28t28 42t10 52q0 27 -10 51t-28 42t-42 28.5t-51 10.5t-50 -10t-40.5 -27.5t-28.5 -42t-13 -52.5q0 -28 10 -52t28 -42t42 -28t52 -10z" />
    <glyph glyph-name="b.022" horiz-adv-x="692" 
d="M612 466q20 0 35 -15t15 -36v-365q0 -20 -15 -35t-35 -15h-213q-15 0 -28.5 10.5t-21.5 26.5q-28 -17 -58.5 -27t-62.5 -10q-38 0 -71.5 12.5t-58 33.5t-39 49.5t-14.5 60.5q0 33 14.5 61.5t39 50t58 34t71.5 12.5q29 0 59 -10.5t61 -28.5v90h-193q-20 0 -35 14.5
t-15 35.5t15 36t35 15h244q20 0 35 -15t15 -36v-314h113v314q0 21 14.5 36t35.5 15zM228 101q15 0 29.5 4t26 11.5t19 17.5t7.5 22t-7.5 22.5t-19 18t-26 12t-29.5 4.5t-29.5 -4.5t-26.5 -12t-19.5 -18t-7.5 -22.5t7.5 -22t19.5 -17.5t26.5 -11.5t29.5 -4zM612 648
q20 0 35 -15t15 -36q0 -20 -15 -35t-35 -15q-21 0 -35.5 15t-14.5 35q0 21 14.5 36t35.5 15z" />
    <glyph glyph-name="b.023" horiz-adv-x="750" 
d="M671 466q20 0 35 -15t15 -36v-365q0 -20 -15 -35t-35 -15t-35 15t-15 35v315h-153q20 -33 30.5 -67t10.5 -66q0 -48 -18.5 -90.5t-50 -74t-73.5 -49.5t-90 -18t-90.5 18t-74 49.5t-50 74t-18.5 90.5t18.5 90.5t50 74.5t74 50.5t90.5 18.5h394zM409 232q0 28 -10.5 52
t-28.5 42t-42 28.5t-51 10.5t-51 -10.5t-42.5 -28.5t-29 -42t-10.5 -52q0 -27 10.5 -51t29 -42t42.5 -28t51 -10t51 10t42 28t28.5 42t10.5 51zM671 648q20 0 35 -15t15 -36q0 -20 -15 -35t-35 -15t-35 15t-15 35q0 21 15 36t35 15z" />
    <glyph glyph-name="b.027" 
d="M280 0q-15 0 -27.5 7t-18.5 20l-182 365q-6 10 -6 23q0 14 7.5 26t19.5 18t23 6q14 0 25.5 -6.5t21.5 -22.5h-1l138 -274q15 31 32.5 66t35.5 71.5t35.5 72t32.5 66.5q7 11 19.5 19t26.5 8q12 0 23 -6q13 -6 20 -18t7 -26q0 -11 -5 -23l-182 -365q-7 -13 -19 -20t-26 -7z
M330 415q0 -21 -15 -35.5t-35 -14.5q-21 0 -36 14.5t-15 35.5t15 36t36 15q20 0 35 -15t15 -36z" />
    <glyph glyph-name="b.024" horiz-adv-x="430" 
d="M341 466q20 0 35 -15t15 -35v-487q0 -5 -3 -29.5t-17 -53.5q-22 -43 -61 -66t-91 -23q-20 0 -35 15t-15 35q0 21 15 36t35 15q29 0 42 10t20 23q6 12 8 25q1 6 1 13v436h-141v-314q0 -21 -15 -36t-36 -15q-20 0 -35 15t-15 36v365q0 20 15 35t35 15h243zM98 648
q21 0 36 -15t15 -36q0 -20 -15 -35t-36 -15q-20 0 -35 15t-15 35q0 21 15 36t35 15zM341 648q20 0 35 -15t15 -36q0 -20 -15 -35t-35 -15q-21 0 -36 15t-15 35q0 21 15 36t36 15z" />
    <glyph glyph-name="b.029" horiz-adv-x="488" 
d="M401 708q20 0 35 -15t15 -35q0 -21 -15 -36t-35 -15h-254v-324h193q21 0 36 -15t15 -36q0 -20 -15 -35t-36 -15h-193v-132q0 -20 -15 -35t-35 -15t-35 15t-15 35v608q0 20 15 35t35 15h304v0z" />
    <glyph glyph-name="b.036" horiz-adv-x="868" 
d="M819 361q9 -17 13.5 -34t7 -30.5t3 -22.5t0.5 -12v-212q0 -20 -15 -35t-35 -15q-21 0 -36 15t-15 35v212q0 2 -2 20t-13 38q-4 7 -10 15t-16 14.5t-24.5 11t-35.5 4.5h-72v-315q0 -20 -15 -35t-35 -15t-35 15t-15 35v315h-243q-29 0 -44.5 -9.5t-18.5 -14.5q0 -8 8 -19
t44 -22q12 -3 38.5 -11.5t54.5 -24.5t51 -41t28 -59v-11q0 -26 -9.5 -50.5t-28.5 -44.5q-25 -28 -63 -43t-83 -15q-49 0 -89.5 20.5t-63.5 58.5q-7 14 -7 25q0 13 6 25t18 19h-1q16 7 28 7q27 0 42 -24q8 -14 26 -22t41 -8q24 0 42.5 6t29.5 19h-1q13 12 13 30
q-4 6 -14 12.5t-23.5 13.5t-28 12t-27.5 8q-1 0 -2 1q-32 9 -55.5 20.5t-39.5 27.5q-35 35 -35 88q0 27 12.5 50t34.5 40t52 27t65 10h243v192q0 20 15 35t35 15t35 -15t15 -35v-192h72q61 0 107 -27t71 -78z" />
    <glyph glyph-name="b.030" horiz-adv-x="488" 
d="M451 415q0 -46 -10 -82.5t-26.5 -64.5t-36.5 -48t-41 -34l100 -100q14 -16 14 -36q0 -21 -14 -35q-15 -15 -36 -15q-22 0 -35 15l-138 137h-80v-102q0 -20 -15 -35t-36 -15q-20 0 -35 15t-15 35v608q0 20 15 35t35 15h122q2 0 13 -1t27.5 -4.5t37 -11.5t41.5 -21
q19 -14 39 -35.5t36.5 -52t27 -72t10.5 -95.5zM148 252h70q1 0 2 0.5t3 0.5q8 1 26.5 5t38.5 17q63 40 63 140q0 121 -64 167q-25 17 -46 21t-23 4h-70v-355z" />
    <glyph glyph-name="b.031" horiz-adv-x="488" 
d="M147 607v-324h193q21 0 36 -15t15 -36q0 -20 -15 -35t-36 -15h-193v-81h254q20 0 35 -15t15 -36q0 -20 -15 -35t-35 -15h-304q-20 0 -35 15t-15 35v608q0 20 15 35t35 15h304q20 0 35 -15t15 -35q0 -21 -15 -36t-35 -15h-254z" />
    <glyph glyph-name="b.034" horiz-adv-x="546" 
d="M461 708q20 0 35 -15t15 -35v-608q0 -20 -15 -35t-35 -15t-35 15t-15 35v309l-265 198v-507q0 -20 -15 -35t-35 -15t-35 15t-15 35v608q0 14 7.5 26.5t19.5 18.5q28 14 54 -5l284 -213v173q0 20 15 35t35 15z" />
    <glyph glyph-name="b.028" horiz-adv-x="488" 
d="M338 670q19 -14 39 -34.5t36.5 -51t27 -72t10.5 -97.5q0 -50 -10.5 -88t-27 -65.5t-37 -46t-40.5 -30.5q-21 -12 -41.5 -18.5t-36.5 -10t-26.5 -4t-12.5 -0.5h-72v-102q0 -20 -15 -35t-35 -15t-35 15t-15 35v608q0 20 15 35t35 15h122q2 0 13 -0.5t27.5 -4.5t37 -11.5
t41.5 -21.5zM288 275q62 39 62 140q0 121 -63 167q-25 17 -46 21t-23 4h-71v-355h71q1 0 2 0.5t3 0.5q7 1 25 4.5t40 17.5z" />
    <glyph glyph-name="b.032" horiz-adv-x="546" 
d="M405 430q51 -29 78.5 -80t27.5 -118q0 -69 -30.5 -121.5t-88.5 -82.5h1q-21 -10 -40.5 -15.5t-35 -8.5t-26 -3.5t-12.5 -0.5h-183q-20 0 -35 15t-15 35v608q0 20 15 35t35 15h159q5 0 28.5 -3t52.5 -18q41 -22 62.5 -60.5t21.5 -90.5q0 -29 -5.5 -51.5t-13.5 -40.5z
M146 607v-141h131q23 0 32.5 19t9.5 51q0 29 -9 42.5t-19 18.5v-1q-10 7 -21.5 9t-14.5 2h-109zM279 101q28 0 52 9.5t42 26.5t28 41t10 54q0 41 -15.5 69t-44.5 45q-25 12 -48 15.5t-24 3.5h-133v-264h133z" />
    <glyph glyph-name="b.033" horiz-adv-x="488" 
d="M338 670q19 -13 39 -34t36.5 -51.5t27 -72.5t10.5 -97v-121q0 -54 -10.5 -95.5t-27 -72.5t-36.5 -52.5t-39 -34.5q-21 -14 -41.5 -22t-37 -11.5t-27.5 -4.5t-13 -1h-122q-20 0 -35 15t-15 35v608q0 20 15 35t35 15h122q2 0 13 -0.5t27.5 -4.5t37 -11.5t41.5 -21.5z
M350 415q0 121 -63 167q-25 17 -46 21t-23 4h-71v-506h71q2 0 23 4t46 21q32 23 47.5 65.5t15.5 102.5v121z" />
    <glyph glyph-name="b.026" horiz-adv-x="546" 
d="M461 0q-31 0 -45 27l-137 275l-138 -275v1q-7 -14 -19 -21t-26 -7q-10 0 -23 5h2q-29 16 -29 45q0 12 6 23l182 365q6 12 18.5 20t26.5 8t26 -8t18 -20l183 -365q5 -12 5 -23q0 -14 -7 -25.5t-21 -19.5h1q-12 -5 -23 -5zM228 50q0 21 15 36t36 15q20 0 35 -15t15 -36
q0 -20 -15 -35t-35 -15q-21 0 -36 15t-15 35z" />
    <glyph glyph-name="b.037" horiz-adv-x="838" 
d="M762 466q20 0 35 -15t15 -36t-15 -35.5t-35 -14.5h-72v-315q0 -20 -15 -35t-35 -15t-35 15t-15 35v315h-82v-315q0 -20 -15 -35t-35 -15q-16 0 -29.5 11.5t-21.5 28.5q-32 -19 -65 -29.5t-66 -10.5q-48 0 -90.5 18t-74 49.5t-50 74t-18.5 90.5t18.5 90.5t50 74.5t74 50.5
t90.5 18.5q31 0 64 -11t68 -31v234q0 20 15 35t35 15t35 -15t15 -35v-192h82v192q0 20 15 35t35 15t35 -15t15 -35v-192h72zM276 101q27 0 51 10t42 28t28.5 42t10.5 51q0 28 -10.5 52t-28.5 42t-42 28.5t-51 10.5t-51 -10.5t-42.5 -28.5t-29 -42t-10.5 -52q0 -27 10.5 -51
t29 -42t42.5 -28t51 -10z" />
    <glyph glyph-name="b.038" horiz-adv-x="751" 
d="M672 466q20 0 35 -15t15 -36t-15 -35.5t-35 -14.5h-71v-315q0 -20 -15 -35t-35 -15q-21 0 -35.5 15t-14.5 35v315h-112l-132 -133l147 -146q14 -16 14 -36q0 -21 -14 -35q-15 -15 -36 -15q-22 0 -35 15l-188 187v-152q0 -20 -15 -35t-36 -15q-20 0 -35 15t-15 35v608
q0 20 15 35t35 15q21 0 36 -15t15 -35v-394l188 187q15 15 35 15h133v192q0 20 14.5 35t35.5 15q20 0 35 -15t15 -35v-192h71v0z" />
    <glyph glyph-name="b.039" horiz-adv-x="868" 
d="M818 360q9 -17 14 -33.5t7.5 -30t3 -22.5t0.5 -12v-212q0 -20 -15 -35t-35 -15q-21 0 -36 15t-15 35v212q0 2 -2 20t-13 38q-4 7 -10 15t-16 14.5t-24.5 11t-35.5 4.5h-72v-315q0 -20 -15 -35t-35 -15t-35 15t-15 35v315h-207q-25 0 -46.5 -10.5t-37.5 -28.5t-25 -42
t-9 -52q0 -27 9 -51t25 -42t37.5 -28t46.5 -10q11 0 22.5 2.5t22.5 7.5q19 9 38.5 2.5t28.5 -26.5q10 -20 2.5 -39.5t-26.5 -27.5q-43 -20 -88 -20t-85 18t-70 49.5t-47 74t-17 90.5t17 90.5t47 74.5t70 50.5t85 18.5h207v192q0 20 15 35t35 15t35 -15t15 -35v-192h72
q61 0 107 -27t70 -78v-1z" />
    <glyph glyph-name="b.044" horiz-adv-x="896" 
d="M822 101q20 0 35 -15t15 -36q0 -20 -15 -35t-35 -15h-304q-29 0 -43 24l-332 475v-449q0 -20 -15 -35t-35 -15t-35 15t-15 35v608q0 16 9 29t25 18q17 5 32 -0.5t25 -18.5l334 -477v449q0 20 15 35t35 15h304q20 0 35 -15t15 -35q0 -21 -15 -36t-35 -15h-253v-203h192
q21 0 35.5 -15t14.5 -35t-14.5 -35t-35.5 -15h-192v-203h253v0z" />
    <glyph glyph-name="b.041" horiz-adv-x="518" 
d="M431 101q21 0 36 -15t15 -36q0 -20 -15 -35t-36 -15q-38 0 -66.5 8t-49.5 20t-35.5 27t-24.5 29q-5 9 -11 24t-10 29q-14 -2 -26.5 -2.5t-17.5 -0.5q-17 0 -42 6v-90q0 -20 -15 -35t-35 -15q-21 0 -36 15t-15 35v608q0 20 15 35t36 15q20 0 35 -15t15 -35v-283l55 41
q33 23 67 36t65 13q47 0 83.5 -25t53.5 -67q10 -26 10 -53q0 -31 -13 -58q-16 -31 -50 -56.5t-87 -43.5q2 -12 4.5 -17.5t6.5 -10.5q22 -33 88 -33zM176 235q2 0 7 -0.5t7 -0.5q21 0 48 7t48 13q45 13 65 28.5t26 23.5q4 4 4 14q0 2 -0.5 5.5t-2.5 9.5q-4 11 -13.5 20.5
t-29.5 9.5q-16 0 -35 -8.5t-39 -22.5q-8 -6 -15 -11.5t-14 -10.5l-12 -9q-15 -10 -33.5 -23.5t-26.5 -20.5q5 -5 5.5 -5t0.5 1z" />
    <glyph glyph-name="b.042" horiz-adv-x="1014" 
d="M943 708q21 0 36 -15t15 -35v-608q0 -17 -10 -30t-26 -18q-8 -2 -15 -2q-12 0 -23 6t-19 16l-333 477v-449q0 -16 -9.5 -29.5t-26.5 -18.5q-8 -2 -15 -2q-12 0 -23 5.5t-18 16.5l-333 477v-449q0 -20 -15 -35t-35 -15q-22 0 -36.5 15t-14.5 35v608q0 16 9.5 29t25.5 18
q9 3 16 3q26 0 40 -22l335 -477v449q0 16 9 29t25 18q9 3 16 3q12 0 23 -5.5t18 -16.5l334 -477v449q0 20 14.5 35t35.5 15z" />
    <glyph glyph-name="b.092" horiz-adv-x="1049" 
d="M395 708q71 0 135.5 -26.5t115.5 -77.5q35 -35 60 -84t38 -107l194 273q14 22 41 22q6 0 15 -3q16 -5 26 -18t10 -29v-608q0 -20 -15 -35t-36 -15q-20 0 -35 15t-15 35v449l-237 -339q-10 -14 -21.5 -28.5t-25.5 -27.5q-50 -51 -114.5 -77.5t-135.5 -26.5t-135.5 26.5
t-115.5 77.5q-50 51 -76.5 115t-26.5 135q0 72 26.5 135.5t76.5 114.5q51 51 115.5 77.5t135.5 26.5zM216 175q36 -36 82 -55t97 -19t97.5 19t81.5 55q7 6 12.5 13.5t10.5 13.5l8 12q22 32 32.5 68.5t10.5 72.5q0 49 -18.5 95t-55.5 83q-35 36 -81.5 55t-97.5 19t-97 -19
t-82 -55t-55.5 -82t-19.5 -97t19.5 -97t55.5 -82z" />
    <glyph glyph-name="b.048" horiz-adv-x="460" 
d="M371 101q21 0 36 -15t15 -36q0 -20 -15 -35t-36 -15h-273q-17 0 -30.5 10t-18.5 25q-1 4 -1.5 7.5t-0.5 8.5q0 26 23 42h-1l137 89h-108q-17 0 -30.5 10t-18.5 26q-2 8 -2 15q0 27 23 42h-1l137 90h-108q-21 0 -36 14.5t-15 35.5t15 36t36 15h273q17 0 30 -9t17 -23
q2 -6 2.5 -10t0.5 -8q0 -13 -5.5 -24.5t-16.5 -18.5h1l-136 -90h107q17 0 30 -8.5t17 -22.5q2 -6 2.5 -10t0.5 -9q0 -12 -5.5 -23.5t-16.5 -18.5h1l-136 -90h107z" />
    <glyph glyph-name="greater.alt1" horiz-adv-x="694" 
d="M649 390q7 -8 11 -16.5t4 -19.5q0 -20 -15 -35l-184 -185q-16 -14 -36 -14q-21 0 -35 14q-15 14 -15 36t15 36l100 100h-101l-171 -172q-7 -6 -17 -10t-18 -4q-21 0 -37 14q-15 18 -15 37q0 20 15 35l101 100h-156q-20 0 -35 15t-15 35q0 21 15 36t35 15h152l-97 95
q-6 7 -10.5 16.5t-4.5 18.5q0 20 15 37q13 13 35 13q23 0 37 -13l167 -167h102l-97 95q-8 7 -11.5 16t-3.5 19q0 23 15 37q13 13 35 13t36 -13z" />
    <glyph glyph-name="b.043" horiz-adv-x="896" 
d="M822 101q20 0 35 -15t15 -36q0 -20 -15 -35t-35 -15h-304q-29 0 -43 24l-332 475v-449q0 -20 -15 -35t-35 -15t-35 15t-15 35v608q0 16 9 29t25 18q17 5 32 -0.5t25 -18.5l334 -477v449q0 20 15 35t35 15h304q20 0 35 -15t15 -35q0 -21 -15 -36t-35 -15h-253v-203h192
q21 0 35.5 -15t14.5 -35t-14.5 -35t-35.5 -15h-192v-203h253v0z" />
    <glyph glyph-name="b.045" horiz-adv-x="606" 
d="M570 68q6 -19 -4.5 -38t-27.5 -28q-8 -2 -16 -2q-16 0 -29.5 8.5t-18.5 24.5l-56 161l-294 -187v1q-14 -8 -27 -8t-24.5 6t-18.5 17q-8 11 -8 28q0 27 23 43l188 119h-100q-26 0 -41 21q-8 11 -9.5 23t3.5 23l152 396q13 32 48 32q16 0 29 -9t18 -24zM375 314l-69 197
l-75 -197h144z" />
    <glyph glyph-name="b.094" horiz-adv-x="518" 
d="M408 702q12 6 23 6q12 0 26 -7q12 -7 18.5 -18.5t6.5 -24.5v-608q0 -20 -15 -35t-36 -15q-20 0 -35 15t-15 35v197q-12 7 -49 29q-32 19 -93 56t-167 100q-11 8 -18 19.5t-7 25.5q2 28 27 43zM381 364v209l-183 -100z" />
    <glyph glyph-name="b.049" horiz-adv-x="458" 
d="M415 438q5 -13 5 -23q0 -8 -3 -16t-6 -15l-115 -152l115 -152q9 -12 9 -29q0 -26 -20 -41q-13 -10 -30 -10q-11 0 -21.5 5t-17.5 15l-97 129l-97 -129q-7 -10 -18 -15t-23 -5q-8 0 -15.5 2.5t-13.5 7.5q-9 8 -14.5 18.5t-5.5 22.5q0 8 2.5 15.5t7.5 13.5l114 152
q-27 35 -57 75.5t-57 76.5q-3 7 -6.5 15t-3.5 16q0 11 6 23q5 12 17.5 20t26.5 8h273q14 0 26.5 -8t18.5 -20zM271 365h-75l38 -47z" />
    <glyph glyph-name="b.054" horiz-adv-x="517" 
d="M431 466q20 0 35 -15t15 -36v-365q0 -20 -15 -35t-35 -15t-35 15t-15 35v335q-27 -41 -58 -87.5t-62.5 -93.5t-62.5 -93.5t-59 -87.5q-16 -23 -42 -23q-5 0 -8.5 0.5t-6.5 1.5q-16 5 -25.5 18t-9.5 30v608q0 20 15 35t35 15t35 -15t15 -35v-441l151 226q7 10 18 16.5
t23 6.5h92v0z" />
    <glyph glyph-name="b.047" horiz-adv-x="518" 
d="M277 109l-152 -101q-12 -8 -27 -8q-12 0 -24 6q-27 16 -27 44v608q0 20 15 35t35 15t35 -15t15 -35v-514l105 71l-1 -1q14 8 28 8q8 0 16.5 -3t15.5 -8l152 -121q19 -15 19 -40q0 -19 -11 -31q-15 -19 -41 -19q-19 0 -30 10z" />
    <glyph glyph-name="b.095" horiz-adv-x="460" 
d="M271 365h-173q-21 0 -36 14.5t-15 35.5t15 36t36 15h270q9 0 20 -3v1q10 -5 18.5 -14t12.5 -20q0 -2 0.5 -4t0.5 -3l1 -1q0 -3 0.5 -4.5t0.5 -2.5v-365q0 -20 -15 -35t-36 -15q-20 0 -35 15t-15 35v214l-183 -244q-7 -10 -18 -15t-22 -5q-8 0 -16 2.5t-14 7.5
q-9 8 -14.5 18.5t-5.5 22.5q0 8 2.5 15.5t7.5 13.5z" />
    <glyph glyph-name="b.051" horiz-adv-x="343" 
d="M252 466q20 0 35 -15t15 -36t-15 -35.5t-35 -14.5h-88l75 -302q5 -20 -5.5 -37.5t-29.5 -23.5q-3 -1 -7.5 -1.5t-6.5 -0.5q-17 0 -30 11t-18 28v-2l-91 365q-5 25 9 44q15 20 40 20h152v0z" />
    <glyph glyph-name="b.052" horiz-adv-x="546" 
d="M496 694q15 -17 15 -37q0 -22 -15 -35l-60 -61q-7 -7 -16.5 -10.5t-18.5 -3.5q-11 0 -23 5l-49 23v-525q0 -20 -15 -35t-35 -15t-35 15t-15 35v525l-49 -23q-13 -5 -23 -5q-20 0 -36 14l-60 61q-15 13 -15 35q0 20 15 37q14 14 35 14q19 0 36 -14l35 -36l87 44q2 1 5 1
l2 1q1 0 1 1h1q1 0 1 0.5t1 0.5q5 0 7 2h12q2 0 2.5 -0.5t2.5 -0.5h2l10 -3q-1 0 -0.5 -0.5t1.5 -0.5l88 -45l36 36q14 14 35 14q19 0 35 -14zM252 702l4 1l-2 -1h-2z" />
    <glyph glyph-name="b.057" horiz-adv-x="624" 
d="M577 269q14 -17 14 -37q0 -21 -14 -35l-61 -61l38 -58h-1q8 -14 8 -27q0 -26 -24 -44q-10 -7 -26 -7q-12 0 -23.5 5.5t-19.5 17.5l-29 44q-33 -32 -74.5 -49.5t-86.5 -17.5q-52 0 -97 18.5t-78 53.5q-29 31 -43 69.5t-14 80.5v14q3 34 20.5 62t41.5 50.5t51.5 39.5
t52.5 28l-138 214q-9 12 -9 28t6 23q7 13 19 20t26 7h132q39 0 77.5 -14t66.5 -35q29 -25 46 -58.5t17 -70.5q0 -101 -91 -161l96 -146l46 46q13 13 35 13q20 0 36 -13zM354 530q0 34 -30 55.5t-76 21.5l-5 2q-4 -2 -6 -2h-28l101 -154q30 21 37 40t7 37zM278 101
q32 0 59 14.5t45 40.5l-112 173q-20 -7 -41 -17.5t-39 -23.5t-30 -28.5t-13 -31.5v-7q0 -22 8 -43t23 -37q38 -40 100 -40z" />
    <glyph glyph-name="b.093" horiz-adv-x="546" 
d="M461 708q16 0 29 -8.5t18 -22.5q3 -8 3 -19q0 -10 -3.5 -19.5t-11.5 -16.5l-167 -167v-405q0 -20 -15 -35t-35 -15t-35 15t-15 35v426q0 21 14 35l96 96h-243q-20 0 -35 15t-15 36q0 20 15 35t35 15h365z" />
    <glyph glyph-name="b.055" horiz-adv-x="520" 
d="M97 365q-20 0 -35 14.5t-15 35.5t15 36t35 15h334q20 0 35 -15t15 -36v-153q0 -20 -15 -34.5t-35 -14.5t-35 14.5t-15 34.5v103h-284zM434 101q20 0 35 -15t15 -36q0 -20 -15 -35t-35 -15h-334q-20 0 -35 15t-15 35v152q0 20 15 35t35 15q21 0 36 -15t15 -35v-101h283z
" />
    <glyph glyph-name="b.060" horiz-adv-x="546" 
d="M500 447q11 -14 11 -32q0 -22 -14.5 -35t-36.5 -15h-131v-315q0 -20 -15 -35t-35 -15t-35 15t-15 35v315h-133q-14 0 -26 7t-18 20q-6 10 -6 24q0 7 3 14.5t7 14.5l182 244q7 8 18 13.5t23 5.5q11 0 22 -5.5t18 -13.5zM360 466l-81 108l-82 -108h163z" />
    <glyph glyph-name="b.056" horiz-adv-x="780" 
d="M398 708q73 0 137.5 -28t112.5 -76t76 -112.5t28 -137.5t-28 -137.5t-76 -112.5t-112.5 -76t-137.5 -28t-137.5 28t-112.5 76t-76 112.5t-28 137.5t28 137.5t76 112.5t112.5 76t137.5 28zM398 101q53 0 99 20t80.5 54t54 80t19.5 99t-19.5 99t-54 80.5t-80.5 54t-99 19.5
t-99 -19.5t-80.5 -54t-54 -80.5t-19.5 -99t19.5 -99t54 -80t80.5 -54t99 -20zM442 470q14 14 35 14q20 0 37 -14q14 -17 14 -37q0 -21 -14 -35l-161 -159q-7 -8 -16.5 -11.5t-18.5 -3.5q-21 0 -36 15q-14 14 -14 35q0 19 14 35z" />
    <glyph glyph-name="b.058" horiz-adv-x="896" 
d="M640 0q-14 0 -26.5 7t-18.5 20l-138 275l-137 -275q-14 -27 -45 -27h-5q-15 2 -26.5 12t-16.5 24l-183 608q-1 3 -1 14q0 16 9 29.5t26 18.5q4 2 7.5 2h6.5q17 0 30.5 -9.5t18.5 -26.5l145 -486l127 252q6 12 18 20t26 8t26.5 -8t18.5 -20l126 -252q17 57 35.5 118.5
t37 124t37.5 124.5t36 119q6 16 19.5 26t29.5 10q7 0 12 -2q17 -5 27 -18.5t10 -29.5v-6t-2 -8q-45 -151 -91 -304t-91 -304q-5 -14 -17 -24t-26 -12h-5z" />
    <glyph glyph-name="b.061" horiz-adv-x="517" 
d="M460 455q11 -7 16 -18.5t5 -22.5q0 -12 -1 -15q-5 -16 -18.5 -25t-30.5 -9h-283v-315q0 -20 -15 -35t-36 -15q-20 0 -35 15t-15 35v365q0 21 15 36t35 15h180l-209 151q-11 7 -16 18t-5 22q0 9 2 17q5 16 18 25t30 9h334q20 0 35 -15t15 -35q0 -21 -15 -36t-35 -15h-179
l208 -152v0z" />
    <glyph glyph-name="b.062" horiz-adv-x="728" 
d="M648 0q-20 0 -35 15t-15 35v557h-82v-557q0 -20 -15 -35t-35 -15h-189q-20 0 -35 15t-15 35v557h-81v-553q0 -21 -15 -36t-37 -15q-20 0 -35 15t-15 36v604q0 20 15 35t35 15h183q21 0 36 -15t15 -35v-557h87v557q0 20 15 35t36 15h183q20 0 35 -15t15 -35v-608
q0 -20 -15 -35t-36 -15z" />
    <glyph glyph-name="b.063" horiz-adv-x="553" 
d="M279 0q-20 0 -35 15t-15 35v557h-83v-553q0 -21 -15 -36t-35 -15t-35 15t-15 36v604q0 20 15 35t35 15h183q20 0 35 -15t15 -35v-557h88v557q0 20 15 35t35 15q21 0 36 -15t15 -35v-608q0 -20 -15 -35t-35 -15h-189z" />
    <glyph glyph-name="b.064" horiz-adv-x="546" 
d="M96 0q-20 0 -35 15t-15 35v182q0 21 15 36t35 15h71v71q0 20 15 35t36 15h71v72q0 20 15 35t35 15h72v81h-315q-20 0 -35 15t-15 36q0 20 15 35t35 15h365q20 0 35 -15t15 -35v-182q0 -21 -15 -36t-35 -15h-71v-71q0 -20 -15 -35t-36 -15h-71v-72q0 -20 -15 -35t-35 -15
h-72v-81h315q20 0 35 -15t15 -36q0 -20 -15 -35t-35 -15h-365z" />
    <glyph glyph-name="b.065" horiz-adv-x="313" 
d="M99 0q-20 0 -35 15t-15 35q0 21 15 36t35 15h71v101h-71q-20 0 -35 15t-15 36v202q0 21 15 36t35 15h71v101h-71q-20 0 -35 15t-15 35q0 21 15 36t35 15h122q20 0 35 -15t15 -35v-203q0 -20 -15 -35t-35 -15h-72v-102h72q20 0 35 -15t15 -35v-203q0 -20 -15 -35t-35 -15
h-122z" />
    <glyph glyph-name="b.066" horiz-adv-x="661" 
d="M580 0q-19 0 -33 12.5t-17 30.5l-19 138l-4 18l-2 11q-11 24 -30 39q-17 13 -41.5 23t-53.5 16.5t-61 10t-65 4.5q-17 -57 -30.5 -123t-18.5 -134q-3 -20 -17 -33t-34 -13h-4q-20 2 -32.5 16t-12.5 34v4q5 62 17 124.5t27 122.5l-45 -5q-3 -1 -5 -1h-4q-17 0 -30.5 12.5
t-18.5 28.5q0 1 -0.5 2t-0.5 3v5q0 18 12.5 32t31.5 17h1q1 0 1.5 0.5t1.5 0.5q9 1 33.5 2.5t54.5 3.5q22 60 44.5 107.5t42 82.5t34 58t20.5 32q3 3 4 7q8 8 18.5 13.5t22.5 5.5q25 0 41 -19q9 -9 31 -43.5t50 -92t57.5 -135t52.5 -171.5q10 -25 11 -50q7 -35 11.5 -71
t8.5 -72v-4q0 -19 -12.5 -33.5t-31.5 -16.5h-6zM304 402q38 -3 75.5 -9.5t77.5 -20.5q-23 60 -46.5 108.5t-43.5 85.5q-18 -33 -36.5 -70.5t-35.5 -78.5z" />
    <glyph glyph-name="b.077" 
d="M279 0q-48 0 -90.5 18t-74 49.5t-50 74t-18.5 90.5q0 21 15 36t35 15q22 0 36.5 -15t14.5 -36q0 -27 10.5 -51t28.5 -42t42 -28t51 -10q28 0 52 10t42 28t28 42t10 51q0 28 -10 52t-28 42t-42 28.5t-52 10.5h-121q-21 0 -36 14.5t-15 35.5v243q0 20 15 35t36 15h121
q35 0 66.5 -13.5t55 -37t37 -54.5t13.5 -67q0 -28 -10.5 -56.5t-30.5 -54.5q46 -35 74 -85t28 -108q0 -48 -18.5 -90.5t-50 -74t-74 -49.5t-90.5 -18zM208 466h78q26 2 45.5 22.5t19.5 47.5q0 30 -21.5 50.5t-50.5 20.5h-71v-141z" />
    </font>
</defs>
</svg>
